<mxfile host="app.diagrams.net" modified="2020-06-01T02:50:41.711Z" agent="5.0 (Windows NT 6.1; Win64; x64) AppleWebKit/537.36 (KHTML, like Gecko) Chrome/83.0.4103.61 Safari/537.36" etag="t_PAnnCRCBgTHqLVG3RM" version="13.1.6" type="github">
  <diagram id="C5HNDQXv8no6rYEC_CkG" name="Page-1">
    <mxGraphModel dx="3720" dy="1019" grid="1" gridSize="10" guides="1" tooltips="1" connect="1" arrows="1" fold="1" page="1" pageScale="1" pageWidth="850" pageHeight="1100" math="0" shadow="0">
      <root>
        <mxCell id="0" />
        <mxCell id="1" parent="0" />
        <mxCell id="EJOH6y6XxS1806s4NGWn-4" value="No" style="rounded=0;orthogonalLoop=1;jettySize=auto;html=1;entryX=0.5;entryY=0;entryDx=0;entryDy=0;edgeStyle=orthogonalEdgeStyle;exitX=0;exitY=0.5;exitDx=0;exitDy=0;" edge="1" parent="1" source="EJOH6y6XxS1806s4NGWn-1" target="EJOH6y6XxS1806s4NGWn-2">
          <mxGeometry relative="1" as="geometry" />
        </mxCell>
        <mxCell id="EJOH6y6XxS1806s4NGWn-16" value="Yes" style="edgeStyle=orthogonalEdgeStyle;rounded=0;orthogonalLoop=1;jettySize=auto;html=1;" edge="1" parent="1" source="EJOH6y6XxS1806s4NGWn-1" target="EJOH6y6XxS1806s4NGWn-15">
          <mxGeometry relative="1" as="geometry" />
        </mxCell>
        <mxCell id="EJOH6y6XxS1806s4NGWn-1" value="import currency equal location currency" style="rhombus;whiteSpace=wrap;html=1;" vertex="1" parent="1">
          <mxGeometry x="300" y="120" width="230" height="90" as="geometry" />
        </mxCell>
        <mxCell id="EJOH6y6XxS1806s4NGWn-5" value="No" style="edgeStyle=orthogonalEdgeStyle;rounded=0;orthogonalLoop=1;jettySize=auto;html=1;entryX=0.5;entryY=0;entryDx=0;entryDy=0;exitX=0;exitY=0.5;exitDx=0;exitDy=0;" edge="1" parent="1" source="EJOH6y6XxS1806s4NGWn-2" target="EJOH6y6XxS1806s4NGWn-3">
          <mxGeometry relative="1" as="geometry">
            <Array as="points">
              <mxPoint x="-145" y="295" />
            </Array>
          </mxGeometry>
        </mxCell>
        <mxCell id="EJOH6y6XxS1806s4NGWn-8" value="Yes" style="edgeStyle=orthogonalEdgeStyle;rounded=0;orthogonalLoop=1;jettySize=auto;html=1;entryX=0.5;entryY=0;entryDx=0;entryDy=0;" edge="1" parent="1" source="EJOH6y6XxS1806s4NGWn-2" target="EJOH6y6XxS1806s4NGWn-7">
          <mxGeometry relative="1" as="geometry" />
        </mxCell>
        <mxCell id="EJOH6y6XxS1806s4NGWn-2" value="&lt;span style=&quot;background-color: rgb(255 , 255 , 255)&quot;&gt;Agency contract&amp;nbsp;Multi Currency Options =&amp;nbsp;&lt;br&gt;USE_CONVERSION&lt;/span&gt;" style="rhombus;whiteSpace=wrap;html=1;" vertex="1" parent="1">
          <mxGeometry x="-70" y="250" width="230" height="90" as="geometry" />
        </mxCell>
        <mxCell id="EJOH6y6XxS1806s4NGWn-10" value="Yes" style="edgeStyle=orthogonalEdgeStyle;rounded=0;orthogonalLoop=1;jettySize=auto;html=1;entryX=0.5;entryY=0;entryDx=0;entryDy=0;" edge="1" parent="1" source="EJOH6y6XxS1806s4NGWn-3" target="EJOH6y6XxS1806s4NGWn-9">
          <mxGeometry relative="1" as="geometry" />
        </mxCell>
        <mxCell id="EJOH6y6XxS1806s4NGWn-12" value="No" style="edgeStyle=orthogonalEdgeStyle;rounded=0;orthogonalLoop=1;jettySize=auto;html=1;entryX=0.5;entryY=0;entryDx=0;entryDy=0;" edge="1" parent="1" source="EJOH6y6XxS1806s4NGWn-3" target="EJOH6y6XxS1806s4NGWn-11">
          <mxGeometry relative="1" as="geometry" />
        </mxCell>
        <mxCell id="EJOH6y6XxS1806s4NGWn-3" value="&lt;span style=&quot;background-color: rgb(255 , 255 , 255)&quot;&gt;Agency contract&amp;nbsp;Multi Currency Options&amp;nbsp;=&amp;nbsp;&lt;br&gt;NEW_QUOTATION&lt;/span&gt;" style="rhombus;whiteSpace=wrap;html=1;" vertex="1" parent="1">
          <mxGeometry x="-260" y="420" width="230" height="90" as="geometry" />
        </mxCell>
        <mxCell id="EJOH6y6XxS1806s4NGWn-28" style="edgeStyle=orthogonalEdgeStyle;rounded=0;orthogonalLoop=1;jettySize=auto;html=1;" edge="1" parent="1" source="EJOH6y6XxS1806s4NGWn-7">
          <mxGeometry relative="1" as="geometry">
            <mxPoint x="268.33500000000004" y="760" as="targetPoint" />
          </mxGeometry>
        </mxCell>
        <mxCell id="EJOH6y6XxS1806s4NGWn-7" value="Calculate premium by using &lt;b&gt;forex exchange rate from agency/location setting.&lt;/b&gt;" style="rounded=0;whiteSpace=wrap;html=1;align=left;verticalAlign=top;fillColor=#fff2cc;strokeColor=#d6b656;" vertex="1" parent="1">
          <mxGeometry x="175" y="370" width="186.67" height="70" as="geometry" />
        </mxCell>
        <mxCell id="EJOH6y6XxS1806s4NGWn-27" style="edgeStyle=orthogonalEdgeStyle;rounded=0;orthogonalLoop=1;jettySize=auto;html=1;" edge="1" parent="1" source="EJOH6y6XxS1806s4NGWn-9">
          <mxGeometry relative="1" as="geometry">
            <mxPoint x="81.66499999999996" y="760" as="targetPoint" />
          </mxGeometry>
        </mxCell>
        <mxCell id="EJOH6y6XxS1806s4NGWn-9" value="Calculate premium by using &lt;b&gt;pricing line and riders value from product setting.&lt;/b&gt;" style="rounded=0;whiteSpace=wrap;html=1;align=left;verticalAlign=top;" vertex="1" parent="1">
          <mxGeometry x="-11.670000000000016" y="525" width="186.67" height="70" as="geometry" />
        </mxCell>
        <mxCell id="EJOH6y6XxS1806s4NGWn-26" style="edgeStyle=orthogonalEdgeStyle;rounded=0;orthogonalLoop=1;jettySize=auto;html=1;entryX=0;entryY=0.5;entryDx=0;entryDy=0;" edge="1" parent="1" source="EJOH6y6XxS1806s4NGWn-11" target="EJOH6y6XxS1806s4NGWn-25">
          <mxGeometry relative="1" as="geometry">
            <Array as="points">
              <mxPoint x="-377" y="760" />
            </Array>
          </mxGeometry>
        </mxCell>
        <mxCell id="EJOH6y6XxS1806s4NGWn-11" value="&lt;b&gt;Ignore policy&lt;/b&gt;&amp;nbsp;&lt;br&gt;** Cannot identify&amp;nbsp;&lt;span style=&quot;background-color: rgb(255 , 255 , 255)&quot;&gt;Agency contract&amp;nbsp;Multi Currency Options&lt;/span&gt;" style="rounded=0;whiteSpace=wrap;html=1;align=center;verticalAlign=middle;" vertex="1" parent="1">
          <mxGeometry x="-470" y="525" width="186.67" height="70" as="geometry" />
        </mxCell>
        <mxCell id="EJOH6y6XxS1806s4NGWn-18" value="No" style="edgeStyle=orthogonalEdgeStyle;rounded=0;orthogonalLoop=1;jettySize=auto;html=1;entryX=0.5;entryY=0;entryDx=0;entryDy=0;" edge="1" parent="1" source="EJOH6y6XxS1806s4NGWn-15" target="EJOH6y6XxS1806s4NGWn-17">
          <mxGeometry relative="1" as="geometry" />
        </mxCell>
        <mxCell id="EJOH6y6XxS1806s4NGWn-20" value="Yes" style="edgeStyle=orthogonalEdgeStyle;rounded=0;orthogonalLoop=1;jettySize=auto;html=1;entryX=0.5;entryY=0;entryDx=0;entryDy=0;" edge="1" parent="1" source="EJOH6y6XxS1806s4NGWn-15" target="EJOH6y6XxS1806s4NGWn-19">
          <mxGeometry relative="1" as="geometry" />
        </mxCell>
        <mxCell id="EJOH6y6XxS1806s4NGWn-15" value="&lt;span style=&quot;background-color: rgb(255 , 255 , 255)&quot;&gt;Agency contract&amp;nbsp;Multi Currency Options&amp;nbsp;=&amp;nbsp;&lt;br&gt;NEW_QUOTATION&lt;/span&gt;" style="rhombus;whiteSpace=wrap;html=1;" vertex="1" parent="1">
          <mxGeometry x="670" y="240" width="230" height="90" as="geometry" />
        </mxCell>
        <mxCell id="EJOH6y6XxS1806s4NGWn-31" style="edgeStyle=orthogonalEdgeStyle;rounded=0;orthogonalLoop=1;jettySize=auto;html=1;" edge="1" parent="1" source="EJOH6y6XxS1806s4NGWn-17">
          <mxGeometry relative="1" as="geometry">
            <mxPoint x="563.335" y="760" as="targetPoint" />
          </mxGeometry>
        </mxCell>
        <mxCell id="EJOH6y6XxS1806s4NGWn-17" value="Use original premium from MO_POLICY" style="rounded=0;whiteSpace=wrap;html=1;align=center;verticalAlign=middle;" vertex="1" parent="1">
          <mxGeometry x="470" y="370" width="186.67" height="70" as="geometry" />
        </mxCell>
        <mxCell id="EJOH6y6XxS1806s4NGWn-29" style="edgeStyle=orthogonalEdgeStyle;rounded=0;orthogonalLoop=1;jettySize=auto;html=1;entryX=1;entryY=0.5;entryDx=0;entryDy=0;" edge="1" parent="1" source="EJOH6y6XxS1806s4NGWn-19" target="EJOH6y6XxS1806s4NGWn-25">
          <mxGeometry relative="1" as="geometry">
            <Array as="points">
              <mxPoint x="1023" y="760" />
            </Array>
          </mxGeometry>
        </mxCell>
        <mxCell id="EJOH6y6XxS1806s4NGWn-19" value="Calculate premium by using &lt;b&gt;pricing line and riders value from product setting.&lt;/b&gt;" style="rounded=0;whiteSpace=wrap;html=1;align=left;verticalAlign=top;" vertex="1" parent="1">
          <mxGeometry x="930" y="370" width="186.67" height="70" as="geometry" />
        </mxCell>
        <mxCell id="EJOH6y6XxS1806s4NGWn-33" style="edgeStyle=orthogonalEdgeStyle;rounded=0;orthogonalLoop=1;jettySize=auto;html=1;entryX=0.5;entryY=0;entryDx=0;entryDy=0;" edge="1" parent="1" source="EJOH6y6XxS1806s4NGWn-25">
          <mxGeometry relative="1" as="geometry">
            <mxPoint x="415" y="860" as="targetPoint" />
          </mxGeometry>
        </mxCell>
        <mxCell id="EJOH6y6XxS1806s4NGWn-25" value="" style="ellipse;whiteSpace=wrap;html=1;aspect=fixed;align=center;" vertex="1" parent="1">
          <mxGeometry x="395" y="740" width="40" height="40" as="geometry" />
        </mxCell>
        <mxCell id="EJOH6y6XxS1806s4NGWn-34" value="End" style="rounded=1;whiteSpace=wrap;html=1;align=center;" vertex="1" parent="1">
          <mxGeometry x="355" y="860" width="120" height="40" as="geometry" />
        </mxCell>
        <mxCell id="EJOH6y6XxS1806s4NGWn-36" style="edgeStyle=orthogonalEdgeStyle;rounded=0;orthogonalLoop=1;jettySize=auto;html=1;entryX=0.5;entryY=0;entryDx=0;entryDy=0;" edge="1" parent="1" source="EJOH6y6XxS1806s4NGWn-35" target="EJOH6y6XxS1806s4NGWn-1">
          <mxGeometry relative="1" as="geometry" />
        </mxCell>
        <mxCell id="EJOH6y6XxS1806s4NGWn-35" value="Start" style="rounded=1;whiteSpace=wrap;html=1;align=center;" vertex="1" parent="1">
          <mxGeometry x="355" y="20" width="120" height="40" as="geometry" />
        </mxCell>
        <mxCell id="EJOH6y6XxS1806s4NGWn-37" value="" style="shape=image;verticalLabelPosition=bottom;labelBackgroundColor=#ffffff;verticalAlign=top;aspect=fixed;imageAspect=0;image=data:image/png,iVBORw0KGgoAAAANSUhEUgAAAv0AAAFBCAYAAADkJhCHAAAgAElEQVR4Ae29Dc/lxnXneb+TPsFOxmPPOvJYD9DfIECwE8uYWHF7BoGMx40HsRTYUNsKPI4SZd0tdSMTTNZyDGmsYDRRpFbL0YutlxhyvLasdEvuZKJoFS+EddTO1OKQPOSfxTr38r2Kdf8XuCBZrDp16l/nFH/kZT+9c/xQASpABagAFaACVIAKUAEqkLUCu6xHx8FRASpABagAFaACVIAKUAEq4Aj9DAIqQAWoABWgAlSAClABKpC5AoT+zCeYw6MCVIAKUAEqQAWoABWgAoR+xgAVoAJUgApQASpABagAFchcAUJ/5hPM4VEBKkAFqAAVoAJUgApQAUI/Y4AKUAEqQAWoABWgAlSACmSuAKE/8wnm8KgAFaACVIAKUAEqQAWoAKGfMUAFqAAVoAJUgApQASpABTJXgNCf5QS/6h644w53xx0PuFdD4/v7x9yn5fzdj7l3Q+cPlL36FbFdfh/4/oHKPN0o8P0Hat3u+EpwZpq63KMCVIAKUAEqQAWowIwKBKH/3W99uoGTLcKdwtVIqJ1R38JUredI0BvefkHoV21HjmWyttp/FZd681Fsi/kOjf1d99jd7ZsUvHFpbBg3Sc654XPgjzTkl19n4rFqk0jcTxwNm1MBKkAFqAAVoAIzKtCBfoWhT3+reQYswMMnuuNVnwqMw9sfAMwJT/rVF4yP8cpMadkF+dJaaOzduhrnGtc6LusJ/KHzB0cyQfODtlmBClABKkAFqAAVoAIHFGhDfx8w0Tr6pBWeKioYffpbj1Wvl8ArJvoUsn5CrCD2affY35deKojpk9caLLXPux9zjxWvllRttFx9ueOO8uZEy8E337bCnnMNJD4Gv3DUffsCgm30xbd/xx2Vjzpu30fnnN8m2KfRXrVWrWQbGtMDoVdxYAx6azfOF3ky3tVP/fBtarlIquce+Fb1qpHoI7GB461jxZ8EOdb4wXEXlgOvNnXr1v1XryepnkPmAMeh84BjbLxWjfzXohq/yvZNLoTisrTtt4Hxd+a1WxfjpNYA5wBypvG/2sO5KeK5/GWktlNp2T7WsT/gNL9kHI3e1Vqh/eoY6nxpfn2p7Vr+dtp+2j32g+6rbLUdvprWmWIWUAEqQAWoQL4KtKFfL+oWbOlFVS/QXn29kOu75HpxLUFKAaS6iHu2yroKPVrXgnspb2Ci83Z00LbCkWe7htY7XOGntj30PnwNJeozBInqUulU6wK67h0vmJLdUPtWlY7Pqk01Zv+8Hlf+TfOl6QvBV+e+DaqNVnq+/HcFOicV+Ndz0tRvjbc4aNq0Qbvrj/oVAl48p3Hb7Ss8BzoGa4wtO6p5HVfqv45R/VbI1WO8UdA2fp19OVXFdeAmSf3356CtZzUKL6ZxbGpH27WPQ+MAPTWPJBZVI80T7bM6VrtBf7VtrW/jYdnO0rmpxz0qQAWoABWgAjkr0IL+Q3DZPa8X9BI69Lw+LbWOBQ70XAkKaqcBHIWx4rxe0PVmo5gRv41e1J1zrfparzmvfZd+6nkDpPzZb9mGk1quECNbE/q1T2O8YFZ21d/2qychG9YYFBYrDdTXwr+QndIvhTh0p+uLtte+pbaWWZrDk/7iaav6Z92YoQe677fRcu0b/enWVYCsx6iaBKBRLNvjtseoHhVb375/jL9+FJoExlG38eNm37yqf4c16GgCA9BzmttwqvnV5sCTfrw5Vz3RnpZp7tfbKo/UB50zPK7b6g0DOljdPBR94T7W4T4VoAJUgApQgcwVaEF/G5a7I9cLa3OhboOJf94/ru1/5dUKFBTM1I4Cite3wk4L+qVOAzIKCIVvrfpqW/tqAK4ch3/eP+7ji7YJwVfTXwPtXn2vC/9QdWzaN+MuAUjt6Rj9Y60f8k/rGtp7znR90fbatzTolmk7jR0ENpzHcjyev54P5aHW0RsFrdTtu2vfv+lAn8M6qP/NHHT70To6RvWo2GpM6k2FHkNMtzXp2q/zR220OrBudnVeunq1+wtp0nSgdUNj03MhGA/FglgNaaVljcZN/7K3r5/9bSst/dcD2+Z5RAWoABWgAlQgawXa0A8XVry4ywW1uKD7oOL9/K4XXm3rH4uSeuEuIB2eytXlUGb2G5iSVl+en2o7DJQ+XPnHXmee7eKslimM6bECnadTS4fQeL0u6/fc67rqowKqHivgece+P96x6oOwVWvv+aI6N3W9vqr6ajOseRMH7fMK8AqoOj7PieJQ62gbrRPyp1u37Z8PzGoLtnvmsD0Gw2fVXGOkvmHV+r7f/rH40oxDc0xKX/1KZUP7KOKuqdv2r9HL18A/htE3/9ZCYxpOajv1SY/LfkPjCEN/c1OjmhSjcw9UfbbtejGkY6/1BQfhJsNfd9q1eEQFqAAVoAJUIF8FOtAvQ9WLqz49l215AQc40tdYAAIUCPXi7x8XMio86T90BW3NfvWCDn01gACvOigUB+r7tuvxdJ5KhyGldjNg29JMX+9pnna2X5vxfWrpXHdYWId/GF3OhWqLc9S8k65jAG0QhgJj6OtL3a9q3dGvcdy32WjexFhZZgEqwl9jt9zz2+h5HbveAEl5t67vW6kjtlF7ulW7++cQx6gti61qjvMAfpX943i1P9+nZizN3IegX3pVGxgHTS6rBuqzf9zyXw7q3FV7lW/12LQcNVIf2uPQONK1ou4rZKsP9IuBTlvQsz4HZXWn3KECVIAKUAEqkL8CQejPf9gcIRU4NgXC8H00KugNCz44OJrBc6BUgApQASpABZwj9DMKqECuCijo6q9ygV/Xch16e1zNryP6q0b7PI+oABWgAlSACuSvAKE//znmCKkAFaACVIAKUAEqQAWOXAFC/5EHAIdPBagAFaACVIAKUAEqkL8ChP7855gjpAJUgApQASpABagAFThyBQj9Rx4AHD4VoAJUgApQASpABahA/goQ+vOfY46QClABKkAFqAAVoAJU4MgVIPQfeQBw+FSAClABKkAFqAAVoAL5K0Doz3+OOUIqQAWoABWgAlSAClCBI1eA0H/kAcDhUwEqQAWoABWgAlSACuSvAKE//znmCKkAFaACVIAKUAEqQAWOXAFC/5EHAIdPBagAFaACVIAKUAEqkL8ChP7855gjpAJUgApQASpABagAFThyBQj9Rx4AHD4VoAJUgApQASpABahA/goQ+vOfY46QClABKkAFqAAVoAJU4MgVIPQfeQBw+FSAClABKkAFqAAVoAL5K0Doz3+OOUIqQAWoABWgAlSAClCBI1eA0H/kAcDhUwEqQAWoABWgAlSACuSvAKE//znmCKkAFaACVIAKUAEqQAWOXAFC/5EHAIdPBagAFaACVIAKUAEqkL8ChP7855gjpAJUgApQASpABagAFThyBQj9Rx4AHD4VoAJUgApQASpABahA/goQ+vOfY46QClABKkAFqAAVoAJU4MgVIPQfeQBw+FSAClABKkAFqAAVoAL5K9CC/qefftrxSw0YA4wBxgBjgDHAGGAMMAYYA9uNgdAtTAf6f/7/OccvNWAMTI8BWSyp43QdqSE1lBhgPuUdB5zfvOd3C+t4TjEoYwl9OtD//3zwvxy/1IAxMD0GJOmo43QdqSE1lBhgPuUdB5zfvOd3C+t4TjEoYwl9OtD/7v/7vxy/1IAxMD0GJOmo43QdqSE1lBhgPuUdB5zfvOd3C+t4TjEoYwl9OtD/P3/+L45fasAYmB4DknTUcbqO1JAaSgwwn/KOA85v3vO7hXU8pxiUsYQ+Hei/9f6/OH6pAWNgegxI0lHH6TpSQ2ooMcB8yjsOOL95z+8W1vGcYlDGEvp0oP+d9/7F8UsNGAPTY0CSjjpO15EaUkOJAeZT3nHA+c17frewjucUgzKW0KcD/Tf+8ZeOX9XgbffVf7dzu51+73JffV3PbXD75AUYy87t/tO1wXP98kN3ud3ugvsm4+SgdpJ0zKVQnuSTV9/8T7o2wLZXXl1zn/13j7iXmUe9c2R0Pr3+iPu39Rqu87TeWl7ESDXXuD99bbjmPqvjgpgr12gZ56F1WvKwqlNp9NknQ/nat6z0598+9HbvOUUNRs/v1Bw6hvjQODkYE/vmulq3IdZw/obtz2lrn8/DzvWNwSbHdD3ZuT5x3zf/xf60XPxl8ZCkF/T/9B9+6fgVDd52Fz+xc7tPPOJeqDR54fcFeO9yF1/doEb/rQT+e/6b+n7N3SMLwX+8Nmi+Sw0uuD9lnBzUTRYQ5pLGm27zyqs//Y/tNeKnrz7iPrbbuSbPdNztbacd8+lgrozOp8CcrKn/cn1Va7is4/V1qsqvAvL2r9OttTyg0fC1q/TnY7//9sG5DNkePb9Tcycw9uXmrL0OiA7L9dWdj+X66o4rNMdNWRWnA/mjaT+0v371+8ZgK3ck/gIxFPK1l/49bYXsY5mMJfTpPOn/yd//0vH7S/eTJwSS73IPfN/Qozi/c595Qs6/7R6obhC++/e/dN/9enlz8FEpExuXS+D+6CekvGrz/UfcR+Hu+79Wuv/Xz8kCfsF9pmhbPq3Rcz9ptSl9077Uz/L4gqvbFHYr/z53bc/cVnXUJ6hb+FSU3+U+87nySb/ab87t3Ee//vYe+4aOGcebJB1zyZv3A3nVjudr7jMSd0Usao7dVebNJx5xj/t5JrnayhHNA43/C6U9sfmJR5zkqsxP2Wf1xKYo1760jrbv5k+Zr1pP7JU+17lQrRPlr4WYs/qEqPSx5QPkHuOniZ/R+VTFRLlW45xrfHgxsNNyLw5Ca/7nQjFVtSvWzAvuM8WaXsZIK16qXCjX1DIeah8hbj76uQtFzNfn6jWzyo9PSE5U16pirHe58tpTjSOUE2C/uEZ9p7we6TVK4rWOYT9Han28fKu0wHZD4nf0/NZ6NLEypF9dM1Df9nUU51PXoybXy/VJYwjnYec+87nm1/VGF7Rnx0cZKwYLwPwdio+mX+Ua5Rb1uVqLYN1prUf1Wln5XdSr1rkqNst4eSS4viIjNOsu2vL8wPiaOrcD2/eNwXZ8SCxU46m1qnKz4ibls1b+V9cKvDbo9aMs0xwM2zoU4zKW0KcD/T/6u9uO39vuuf9cwu1/sfR4vEzm33xc9Lrpvnznzu3uvOye+zttu3PludvuR1Xdf/Ofb1baPut+c9ec/y/nm7bF/u4u9+Xv33Y/+v5l9292O1e2K9vszj9b2GjalOVlncqPqk4zj1gnPL9lvxdcMV7sNzTOXVmv0Kgas/paj9nS7YjKJemaOQjrfmznD+VVeb6K/7/DmK9iu4o90a2s2+TRj6r6GoNNjnhtMaZxv2pf5FJR3s5DtYtz1vRRzW/AXtmunZutdkWbKvfQhyPKFdTU2h+dT9V61sxfNRe6drXmDM/hfrOOt+ZT4xFsBGO46qs777q+Y18Y96E417VE610oricSt0Xfd152X5ZrSuFbWUfHjv2XfrbX/Nb1JTC29rUOfW70Ka9F6mP/7ej5nZonB+Kj0Ey1wGtja33SeWqvGSE9+8ZH2W/bXqmtznvJAqU9XAdV87Jeaz7Qf2vdgVjWNbW0Uc13wReVDxjXyi3YHvto6RywBXZbPk+d3wHt+8ZgK3cq+02clGPTMWDdJv/sOm2W2lPvwLhkLKFPB/p/+LPbjt/b7trXSuj/Y0uPb5fQ/x++LXrddF+qoP/az7TtXe5LL1daturedj+sjvVurtxecNLXH3+2vAEQOz/82bPuP+x27iNfu+l++PJl95HdzpX9teeoaPPZZ/fUATvB8XTPqx9/5unQ6FKNubiT1aeWla/BPto+H0OMSdIdwziHjLGJn3A8lOc1d8q43Elsezkmfbbr7surKlYLO7dbeWL7U/Yt+WbXqfL1QA4UuaR1Kh80vyTPW+e9ekO0zb3u6Hyq1s7Qeiua4VwUGhbrs8Rge13Xdbu15gdiyreHx7hf2tNYBz/8td4/rtfXJj8Ku599thyLbncX3B/vuda04trrA8+1fJa+a33864Z/HM5xK05Hz2+tx7D+aj/2xkd3TI0ejf5iq9Ssms8Bejb2IAY6cQl+eLZtNoA2qlHVVpii6FfXG91+9tk96x2uo23bpa2SYbr+VDpVfXTzx2OJOy+7kn9GzqeOdcS2bwxifmgc1RoE46mMi3qu99Rp6bev3oHxyVhCnw70/+Dt247f2+4HfyZQf5f73RcNPYrzO/fpP5PzN93v/urO7X71svvLt2+7v/w9uWGAtq26alvbtu1f+a3Gzg/eftZ9WqD/9266H7xYQn/ZX7tN6esF97tFvxfclc4cVv791rPG3EI/VVv145uezXJs0kd7zIwZb07evl38Qxrq4ulyIK/auVPG5a6I2268tevuyysv/iGXmnj2/Hz7tity4Lcul7lt5I7mieR9mYeQ11U/Lf8rO9iu2N+F8rbr0zHHk1zERo0f5ttfq8UezkVhv45RL+Za67gdU749PMZ9/xpTn2v5e3vP2g/5UfkmNzZyjShsSUy1fG7HUyv2vT7xXO2XXldqffzrhn/c7u/Q3I2eX/Vr7LY1dm/O8Rpc2W/0AP39637LpjJBmeNN+1IfPLb297KA11ejc2A+oG7RV2DdwblvbImvGPNt2y1b0Edpq1oTobxtq4oTiGFlqXb/w+JpTNu+MRjSqJ67apwFt3kx2adOi/X22Do0vt7Q/9rNDx2/osENd18F8v+j0uR//N4n3W73SXffCx+611647P71buf+9e/dcK/dfMbdLXexv3rZSd1WPWn7rS8U7/Lf/S3Vtqr/W880/RT7H7pHKugv+yzrtfqo6pV9fME9UvhW2RMfqvOdOdzrQ9XvrrKHY2u1qzSp6rXGWdSrtGEMFTkkSdeZh6PX5kBeYbxVcVjG9IF2mAedvKraam5Udot8xP4057VedU5AqsldzeFy285XzaMqD1q2Mee9PMd66NvRx0pb69H55Gvaiit/fW7HWTG/rfVOY8GOqda66F0bWvFSzHuzZjbn2rFS2tN+UROop2OqfG38hjpefLeuIZ5GrXMYn2qjuNa1tdLrXHm9Qj/77Y+e36l54o1dr+16LW209K/77fGX9dp8oOsG6lnu67xX81OxQxMD3hpRxZHNAnZ84HygfZ2vwkfUIDTfnTW19FtthzQSu61y027AVqXH2tfPvjGI81n4iPq1cqQ9j43+gdjRMfe0dUgbGUvo03nS/8rffuj4VQ1uuC9+vHl1RYD/i98NnPv4F9ynpN7HL7v//rcfuv/+1fLmoK77WAn9n3pM237oXqnKyp+cv+AuV7pfvqex88rfPuM+tdu5X/nqjXJOvnvZ/Yr+DNfy5UNXtNvtXKsPfy5bfe7c7p5nYK69scI5tS3j/9Q9Mjb1t92m9tPv90iPJemYSxDzdRy046adV2XMF3lxzxeK+C/jtGpT5Zjo2skzsd+KcS9ONaarPNJcKe1UeQ72Nf+aeO+OpZ2vcr7yv7CD4/yk+5XOGiF9lj42OebnZbfPY42p0fnkzXcTO8162YqBen1rx9On7sF1vJrbYEzhvH/BfQrW9Fa8FLHaXFO658qY/JV7vlCs+xqvzfxXsVb40M6PMp6q+A/mBI7tk+6Lf1ZeW7SPUg/NH801vRY25a/gNanK17HXgdHzW68rI3PlYHzgfLbzs4kbvTZW8+nZbOuJ9uz4aMWDzwIwpwfjo2aGZr3RGCrjpJpXjeV6ba3K6zWx8ruo12aTVrzh2DE+Pv7JIo7L+EBbGIvSZ5MT6uda274x2Mx7pRFymsQjjhvG05pTo059DVGbZr398S5jCX060P/yTz90/G5Pg//zMzu3+98vuz/n/CUTv5J0zKXt5VIzZ8+4f7/buX/1lRucxwTWlePJpzLudp95poy75y+7f7XbuX//f205lw77fjzze1iLZg0K1T3O+NivSUin4WU5xaCMJfTpQP+Lb/6z43dDGly/5P636k7+//jTDfl9BHEmScdc2mZMfucr8ouWPMX5gvujI4jVLcTpMeVTE3/Vk8Tf/Mvs15Jjmt+p+XaM8TFVsz7tc4pBGUvo04H+7/74nx2/1IAxMD0GJOmo43QdqSE1lBhgPuUdB5zfvOd3C+t4TjEoYwl9OtD/3P/9z45fasAYmB4DknTUcbqO1JAaSgwwn/KOA85v3vO7hXU8pxiUsYQ+Heh/9m9+4filBoyB6TEgSUcdp+tIDamhxADzKe844PzmPb9bWMdzikEZS+jTgf6n3/iF45caMAZmiIGnn2YucT1hDMwVA8ynvGOJ85v3/M61DixpJ6cY7A39Mmh+qQFjgDHAGGAMMAYYA4wBxgBjYJMx0OtJf6gSy6gAFRiugPXz2nBLbEEFqADzKe8Y4PzmPb9bGF1OMWiNpfN6zxYmhj5SgS0oYCXdFnynj1QgNQWYT6nNyLz+cH7n1ZPWhiuQUwxaYyH0D48LtqACvRSwkq5XY1aiAlSgpQDzqSVHdgc4v9eeftLxm6cGf/39511qX00mjEEt2+rWGguhf6szSr+TV8BKuuQdp4NUIEEFmE8JTsqMLuH8CvDzk6cCAvwpfdAfjMGUfBzjizUWQv8YNdmGCvRQwEq6Hk1ZhQpQAU8B5pMnSGaHOL+E/swmF4aDkA3F0XbRH4zBaA7N1LE1FkL/TALTDBXwFbCSzq/HYypABQ4rwHw6rNGWa+D8Evq3PJP7fUfI3l9znbPoD8bgOr0v14s1lsWg//z5845farDFGJgrDa2kG2N/izrSZ+a/xMBcnznzaS6faGc+BXB+Cf3z6ZqaJYTsFHxDfzAGU/Btig/WWBaB/jkX+imDZlsqMEaBueLXSrqhPs3lz9B+WZ8KzKHAXPE7Jp/eeust9+abb/K7sgai+9APzi+hf6h626mPkJ2C1+gPxmAKvk3xwRoLoX+KqmybpQIxISUk6Fz+hGyzjAosrcBc8WtdxCz/BTxv377NbyQNhoI/zi+h34rq7ZcjZKcwGvQHYzAF36b4YI2F0D9FVbbNUoFYkGKJOZc/ln2WU4ElFZgrfq2LmOU7oT/uDY/8wjLkg/NL6B+i3LbqImSn4Dn6gzGYgm9TfLDGQuifoirbZqlALEixxJzLH8s+y6nAkgrMFb/WRczyndBP6Ldig+XxFEDI7uPFbtfC1D5NBtVBf4auMYM6WrmyNZaWmlalob52F/nr7my3c2edP8/qld+84k52J+7KzXaP1y/s3K4qv3X1xEkQ+N+u7bYNHlGBvgp047dvy3a95fJJ+ilzp8yDM3e93bV31LOukX+eMR5SgUEKxMonC/o/+OAD9+CDD7o777yz/r722mv1a0BXr16ty7GO7Ms5fWXoqaeecnfffbfz+3nvvffcvffe26orbbRf7Uva+/blWM9rP7qVfqQ/aadlstX+DtnS9n49HBPanbq/9pP+W09cdKenp/X30suDwpSVV1IAIftQl8h5h+qOPY/+zHXNHuvLnO2ssSQP/SXkN1BTHJ+74m6hOs+fFTcBBH8UhftjFYgFKZa/IX+KG+ELJerjfsgGnsf9dt1b7sq55ua6fY5HVGC8AqH4HWPNuohZtnwYF4hV8EbQVWgOwbbUw7oKwmLn4YcfLr4WhPs3BNq39iPt5OZDytWunLPAX+prn9jG8l/qy82HnBf7ooccoy7aNjRG9WnsdlXof/mSOz295L6nwVAcX3SPv6MF3KaiAEL2Pp8Q+HV/X/2x59CfoWvM2D7XaGeNJW3oL2C+/eQ/CP3OOat8DXHZR14KxIIUS8WuP6FfyJob47adnnUl186dBH9pa9vjERUYpkA3foe119rWRUzP+1uEWwVXhVwFby0XQA6BrwX90l6A/aWXXmqBtdjTPu67774W1PeBfmkfuhkQm/fff3/xK4CAO/qv/WEZ+qHlIeiXela5nNPvo48+6t5///36WMulTM7pMW5XhX5/8t333KXTU8en/R1hohcgZEd3xjmH/gxdY1Lw3/LBGku60F+8atB9JciE++IGwQIfSxaWU4GuArEgpetJWdLxx38Nxz9GQ/45/7ioKzcGZ+568Bwa4z4VGK5AJ36HmyhaWBcxy1wI+hW8Q4CPwKr7FvRLucB5CLi17LnnnituCKSe2NO+FcJDcC/15Dw+odcy/VXA90n7U7vqu19uwb1fT9vrVqBefn2QXy4Q/GVfyuRcCPwJ/VZkHnc5QnYKSqA/Q9eYFPy3fLDGsir06080/rZ+LaeGjvLp5MnV1ks8xdhM6K/bWhKwnAr0UyAWpFjedfwpYh1vcCVf2r+I1bZ61JWcKnKNOVTLxp35FOjE70jT1kXMMheCfgFZKVdYFWBVKFfIxa0P2HJOIFmeuqt9aS/1tB1CNAJ8X+gPwbneZEgfcl76l37UH//pv5SLX3jzELIr9dQvSweEewX/UJnYwm9M6C/f74fXfawgYfnqCiBkr955oEP0Z+gaEzCXTJE1llWhv4b7WpbQqwflP9I9OSf/YLcLMoT+WjzuLKRALEixhtPxpwfI17YO1ZXz+m9kCP21bNyZT4FO/I40bV3ELHMK5Qii/r6AroC/fP0n5VI3BP1SDyH/EISrDYVr7Uf61qf36JcP5wL3Uk8h37ejNxk6Dt0KoKMGvl3tU+1Z0C/1fMjXmya9CVBbuI0G/cX7/Hy1x8qL2OUI2bF9kf7Rn6FrTAr+Wz5YY0kT+vEfKMprBzAqE/r5eg+oxN0pCsSCFMvnjj8+nPvHaMg/5x3LP+ytb8a9c2iG+1RgrAKd+B1pyLqIWeYQeBFGQ/sCvPhUXOsosOuxArKCNW4VmhXCFe7FD4Fjef9f4F3LLeiX8+iL1MN+dF9vGPz+1Ee8MRH/Lej32+tY/S2Cv/iwD/ilbRToJ/Bb6ZBMOUJ2Ck6hP0PXmBT8t3ywxpIg9OPT/eovilQ3ATI4C/qLv0qiTywtFVhOBXooEAtSLNe6/niv8xSw3r45bmztq1v+0ua/bifH9Y1AY4h7VGCUAt34HWXGWRcxy1oI+gWoFZYRan3Q1nM+9ItNfClmKtQAACAASURBVLVG6yHAhyBazks7+R6CfulTfVSA1zbaHwJ8qD8tk35DbbRMtmJbAD6kF9aTfQX/Q8AvdVeHfv7FHisVkipHyE7BMfRn6BqTgv+WD9ZYEod+51wBNLvynWML+oun/AQVa/JZPkyBWJBieRnyB//0Ju6HbOB53O/U5ZP+jiQsmK5AKH7HWLUuYpatEMQqDONTcAVrLFPY9aFfIDpU7xCEax/yhFwBHm8UtD85h3XEbugmQ+2JDR2T2kVbCPPoo9bRtqExaR1/K+AvX7/cP14V+t953F3kX+uxUiGpcoTsFBxDf4auMSn4b/lgjSV96FfQ35XgXzzp7/znXPjrgCUBy6lAPwViQYrlXdgffErvPeUv/vwm/l8We+pip4R+VIP7MykQjt/hxq2LmGUpBP0CpgrM+pqMbPGJOMIrQr8Csg/XaFPqW/V8oJc+0QfZR0gXu9g/+iX70l5eA7px40ax9f3SceqrQqKH2Pf7tMbu9zf0eE3o9/9jLv1Pui4+0f1jIFa8sHwdBRCy1+lxfy/oz9A1Zr/luGetsawE/XEHz96pwBAFYkGK5eNc/lj2WU4FllRgrvi1LmKW7xb0D4VX1m//VZ6+eqwJ/VYMsDw9BRCy93kXeu10X/2x59CfoWvM2D7XaGeNhdC/hvrsY1MKxIIUS6S5/LHss5wKLKnAXPFrXcQs3wn942C9L9QfqkfotyLzuMsRsg8pgeB/qO7Y8+jP0DVmbJ9rtLPGQuhfQ332sSkFYkGKJdJc/lj2WU4FllRgrvi1LmKW74R+Qr8VGyyPpwBCdh8vBPyX/KA/Q9eYJf2aatsaS0tNq9LQzuda5If2y/pUYA4F5opf5tMcs0EbW1cgVj4R+uNCv+g/5IPr5bWnnxzSlHU3pABCdgpuoz8Ygyn4NsUHayyE/imqsm2WCsSCFEvMufyx7LOcCiypwFzxa13E9vku4MnvuhrIaz1DgV/mEOeX0L8vqrd9DiE7hZGgPxiDKfg2xQdrLItAvzgqCz2/1GCLMTAl0bCtlXRYp+/+FnWkz8x/iYG5PnPm01w+0c58CuD8Evrn0zU1SwjZKfiG/mAMpuDbFB+ssSwG/VOcZVsqkIMCVtLlMDaOgQqsrQDzaW3F1+0P55fQv672a/aGkL1mv1Zf6A/GoFV/K+XWWAj9W5lB+rk5Bayk29xA6DAVSEAB5lMCk7CgCzi/hP4FhY5sGiE7sitF9+gPxmAKvk3xwRoLoX+KqmxLBfYoYCXdniY8RQWogKEA88kQJpNinF9CfyaTGhgGQnbg9OpF6A/G4OqOzNyhNRZC/8xC0xwVUAWspNPz3FIBKtBfAeZTf622WBPnl9C/xRns5zNCdr8Wy9ZCfzAGl+11eevWWAj9y2vPHo5UASvpjlQODpsKTFKA+TRJvuQb4/wS+pOfrtEOCmSn9tXBYAxq2Va31lgI/VudUfqdvAJW0iXvOB2kAgkqwHxKcFJmdInzO6OYNDVKgZxi0BoLoX9UaLARFTisgJV0h1uyBhWgAr4CzCdfkbyOOb95zecWR5NTDFpj6UC/VOSXGjAGGAOMAcYAY4AxwBhgDDAGthkDoRuvDvTf/McPHb/UgDEwPQZkoaSO03WkhtRQYoD5lHcccH7znt8trOM5xaCMJfQh9PMmh2C6UAzktIBsYcGmj3lDA/OJ88sczzsGYs9vTmsMoX8hsIsdpOw/3UUwpwWEcZZunB3L3DCf8o5BnF/56z385qlBan+5R/zRNRRjUMu2upWxhD580s+bgTrgtxrcqfqd0wKSqsb0K28QxPllPuU91zi/Avw499zPZ+4RslOYV/QHYzAF36b4IGMJfQj9hH4urgvFQE4LyJTFh23zuWDHnEvmU95xhPNL6M93rhGyY64n2jf6gzGo57e6lbGEPoT+hYBvq4FCv+dbbHNaQBgX88UFtRynJfNpnG5biTecX0J/vnONkJ1CbKI/GIMp+DbFBxlL6LMY9J8/f97xSw22GANTEg3bzrmAbFFH+sz8lxjAnJiyP2c+TfGDbZcBUpxfQv8yGqcQuwjZqfmDMZiCb1N8kLGEPotAvyz0/FCBrSowF6jMtYAwn7YaSfRbFIiZTy++/mP3V6/+iN+VNRDdhwILrpeEfkL/0PgZWx9vQjAGx9pLpR2hn9dfKtBTgZiQElowCP09J47VklQgVj4JeL77T7/gN5IGQ8EfgYvQT+gPXQuXKCP0z/COOyElyWsvneqpQCxIsRY05lPPiWO1JBWIlU+v//BNAn8k4JebLfmFxVrTQuWE/nxBH+cbIRvLY+2jPxiDsfyZq18+6U/yckinUlQgFqRYyU7oTzFK6FNfBWLlE6E/7q8chP7jgHjrumWVI2RbdbB8t9sNunnEtn320R9C/8in/l1Iue7Odjt39rx/mQiVl2Uy0eX3xF252bS7dfWkKtfz5bZru2nDPSowRIFYkGItUN18ktFgnpy56/sG+PwZ5Ew7n7DZ9Qs7d3L1FhaV+zevuJPdgT66rVhCBQoFYuWTBf0/+4efu/u+9BX3kY99vP4+98Ir9a8CD/3Ro3U51pF9OaevDD32+J+7X/v133CvvfGTukzOvfXOu+6ez/12q66Ua7/al7T37cuxntd+dCv9SH/STstkq/0dsqXt/Xo4JrQ7dX9t6H/lmxfd6elp/X3oGUK3dU2JWY6QfciPhgOXA3/0h9C/OvSXINMCjwI4GlApoP/cFddCkwpqCP6kjDkUiAUp1gIYgn4B9N2FEvVxvzP+UP4EAL6wsQtAf9FebqwJ/R1tWdBLgVj5FIJ+BW8EXYXmEGxLPayrICx2vvq1Pyi+FoT7NwTat/Yj7eTmQ8rVrpyzwF/qa5/YxvJf6svNh5wX+wL9cow3Kdo2NEb1aex2Veh/5hvu9PQb7illluL4ovuTNwj+1nUlVjlC9j4fEPh1f1/9sefQH0K/JtDAbRdSQk/05XrhlXuAolcUfAIZhH7nnFWuNrilAn0ViAUp1qJ1MJ+KvOkJ5Z0cq34xOHfmzs61oV9/VTu7IL8U9LTfV2TWOxoFYuVTCPoVchW8FWgFkEPga0G/tBdg/4trL7TAWuxpH5+/8DstqO8D/dI+dDMgNj9/4YvFrwAC7ui/9odl6IeWh6Bf6lnlck6/X//DS+7GrffqYy2Xst9/+HKnXM6vCv0dRnnRPXR66vi0P72bHoRs65q3Zjn6Q+jvJFK/ADoIKfXlzoP+6iag9aS/rlvumHBfPO0nmHhy8XCEArEgxVroOvnkg7t/vGfM3fy57q4Xr93dcld86H/+evmLGnNrj6I8dUiBWPkUgn4F7xDgK8ji1oJ+KRc4DwG3ln3nqWeLGwKpJza1b4XwENxLPTmPT+i1TH8V8H3S/tSu+u+XW3Dv19P2uhXgl18f5JcLBH/ZlzI5J3W0vm4J/f14yVr3cy1HyE5hjOgPoX916HfOtd4/7v47gC60VJecAeBz6CLF88etQCxIsRbAMPTjDa7cPDevwAVnr8iPff/+pQv9tR1Cfy0Fd4YrECufQtAvQCrwq7AqwKpQrrCKWx+w5ZxAsjx1FztyLO2lnrZDiEaA7wv9ITjXmwzpQ85L/9KP+uM//Ve/8OYhZFfqqV+WDgj3Cv6hMrGF35jQX77fD6/7jGQZa01m+fgbGoTsFHREfwj9IxOlAyn+azz1dcN/0l+fKHb0PeMdAA2hv60Rj+ZXIBakWAtgJ58KgB8I/SpTBf/df/9C6FeJuJ1XgVj5ZEE/gqmAroC/fP0n5VIvBP1SDyH/EISrDYVr7Uf61qf36JMP5wL3Uk8h37ejNxk6Dt0KoIstte3b1XK1Z0G/1PMhX2+a9CZAbeE2GvQX7/Pz1R7rehK7HCE7ti/SP/pD6J8N+i2g2A/9eukp4L/6x7sm9PNppMrF7UQFYkGKtQCGoR+e7A/8lavIp+ofATdSWTmqv77hTUbTintU4JACsfKpD/QrpArw4lNxLVdg12MFZAVr3Co0K4Qr3AtsCxzL+/8C71puQb+cR1+kHvaj+3rD4PenPuKNifhvQb/fXsfqbxH8xYd9wC9to0A/gX/RP29pXaOGlCNkD2m3VF30h9C/NPR7sFIAfQdG2v9I14J+vDE4dBHieSqwT4FYkGItah3oL34586G/L5RbcG+VE/r3xQrPHVYgVj6FoF+AWmEZodYHbT3nQ7+AM75ao/UQ4EMQLeelnXwPQb/0qT4qwGsb7Q8BPtSflkm/oTZaJluxLQAvNrE8tK/gfwj4pe3q0M+/2JM88Ms1DiHbuuatWY7+EPpng/4K3OE1HblUdEC9evWg/Q95y18DtCwI/dW/A+i+snD4gsQaVMBXIBakWAtdF/qr3BnxJzvLfzMDNwz14An9tRTcmVWBWPkUgn6FYXwKrmCNZQq8PvQLRIfqHYJw7UOekCvA442C9ifnsI51k6H2xIaOSe2iLYR59FHraNvQmLSOvxXwl69f7h+vCv1vfNt9mX+th9A/glkJ/SNE82ElBClyFSmAvf5Pt3Zu5/+9/eJSU0K+/l1W2SLMd2wU9kIQM+t1i8aOSIFYkOLnkR6H8wnzxHvKLzfBmFvVTbHmFOZTM62E/kYL7s2pQKx8CkG/gKkCs74mI1t8Io7witCvgOzDNdqU+lY9H+ilT/RB9hHSxS72j37JvrSX14D++m9+Wmx9v3Sc+qqQQL/Y9/u0xu73N/R4Tej3/2Mu/U+6vvzNm5sAYV3rj2GLkJ3CeNEfPukfeQMQhpQ5LyO0RQWWUyAWpFgLIPNpubmm5eUViJVPFvQPhVfWb/9Vnr56rAn91trJ8vF/ZWcp7RCy9/WhD6lwu6/+2HPoD6Gf0L/8FZE9JKdALEixFi1Cf3IhQocGKBArnwj942C9L9QfqkfoTw+4rWvMmuUI2Yf6XRr4pX/0h9BP6B9waWPVXBSIBSnWAkjozyWyjnMcsfKJ0E/ot9ZUlse7IUHI7jMPAv596o2tg/4Q+gn9x3mVPvJRx4IUa9Ei9B95QG58+LHy6cXXf3zwH5seelrN8+NvHER/a00LlSNwXXv6yUFtQ/ZYFg/s92mPkL2v3lrn0B+MwbX6X6ofGUvos8PCuQZMSEFVub81BWJBipX8zKetRRD9RQVi5pOApzzx53c9DeS1nqHAL2sf8gehP01gt65RQ8oRsoe0W6ou+oMxuFR/a9ldFfplULLQ80sNthgDcyXlnAvIFnWkz8x/iYEU82kun2hnPjjF9ZLQP5+uqcUoQnYKvqE/GIMp+DbFh9Whf4qzbJtvwh/T3Oa0gBzTvHGsaa4/zKc052WufMH5JfTnO9cI2XPFzhQ76A/G4BSbKbSVsYQ+i7zek8KA6UO+i8ZW5janBWQrmtPPfPOe+ZTv3Ere4vwS+vOda4TsFNZr9AdjMAXfpvggYwl9CP0j/7HylMlg23wXNJzbnBYQHBf3jyN+U5tn5lPecYfzS+jPd64RslNYY9AfjMEUfJvig4wl9CH0E/pne+d2SoDm2DanBSTH+eGYtgUWzKdtzdfQ/ML5JfTnO9cI2UNjZIn66A/G4BJ9rWlTxhL6EPoJ/YT+hWIgpwVkzcWKfeV7wZ8yt8ynvOMC51egn588FRDITu2r6xLGoJZtdStjCX0I/QsB31YDhX7Pd2HNaQFhXMwXF9RynJbMp3G6bSXeOL95z+8W4jCnGJSxhD6EfkI/n/QvFAM5LSBbWLDpY97QwHzi/DLH846B2POb0xrTG/qlIr/UgDHAGGAMMAYYA4wBxgBjgDGwzRjo9aQ/VIllVIAKDFdAFkp+qAAVmEcB5tM8OqZqhfOb6swcj185xaA1ls7rPcczvRwpFVhWASvplu2V1qlAngown/KcVx0V51eV4DaWAjnFoDUWQn+s6GK/2StgJV32A+cAqcACCjCfFhA1IZM4v/LXe/jNU4PU/nKP+KMfjEEt2+rWGguhf6szSr+TV8BKuuQdp4NUIEEFmE8JTsqMLuH88k92zihsYqYQslNwDf3BGEzBtyk+WGMh9E9RlW2pwB4FrKTb04SnqAAVMBRgPhnCZFKM80voz2RSA8NAyA6cXr0I/cEYXN2RmTu0xkLon1lomqMCqoCVdHqeWypABforwHzqr9UWa+L8Evq3OIP9fEbI7tdi2VroD8bgsr0ub90ay2LQf/78eccvNdhiDMyVjlbSjbG/RR3pM/NfYmCuz5z5NJdPtDOfAji/hP75dE3NEkJ2Cr6hPxiDKfg2xQdrLItA/5wL/ZRBsy0VGKPAXPFrJd1Qn+byZ2i/rE8F5lBgrvgdk09vvfWWe/PNN/ldWQPRfegH55fQP1S97dRHyE7Ba/QHYzAF36b4YI2F0D9FVbbNUoGYkBISdC5/QrZZRgWWVmCu+LUuYpb/Ap63b9/mN5IGQ8Ef55fQb0X19ssRslMYDfqDMZiCb1N8sMZC6J+iKttmqUAsSLHEnMsfyz7LqcCSCswVv9ZFzPKd0B/3hkd+YRnywfkl9A9Rblt1EbJT8Bz9wRhMwbcpPlhjIfRPUZVts1QgFqRYYs7lj2Wf5VRgSQXmil/rImb5Tugn9FuxwfJ4CiBk9/Fit2thap8mg+qgP0PXmEEdrVzZGktLTavSUF+7i/wtd+Xczp1cvVWaunnFnezguO7gujvbnbgrN8uC6xd2Tia8871wvW7BHSowtwLd+B3Xw3L5JP5IrmhunLn9GbG/7q2rJ3WO1TlaD7nMXc3B7vm6IneoQFCBWPlkQf8HH3zgHnzwQXfnnXfW39dee61+Dejq1at1OdaRfTmnrww99dRT7u6773Z+P++995679957W3WljfarfUl7374c63ntR7fSj/Qn7bRMttrfIVva3q+HY0K7U/fXftJ/64mL7vT0tP5eejkYjiyMrABC9iFX9Loj26U+6M9c1+ylfB1i1xpLS0mr0pCOpG53kQ9D/27nw0oA+n3Ar24Yzpr/RG2oe6xPBfYq0I3fvdXNk8vlk3PFDXGVG7gfcgbP435Rt8in6kYb9ytDRf1zV1x5u17ePDD3QiqzzFIgVj75MC4Qq+CNoKvQHIJtqYd1FYTFzsMPP1x8LQj3bwi0b+1H2snNh5SrXTlngb/U1z6xjeW/1JebDzkv9kUPOUZdtG1ojOrT2O2q0P/yJXd6esl9T4OwOL7oHn9HC7hNRQGE7H0+IfDr/r76Y8+hP3Nds8f6Mmc7aywRof/EnZzbuV0L6ntAvzzjlF8AWu3mlIq2jl2BWJBi6d71x4PvAtb9G2i1tr9u8ZS/hvoyt5qn+e18VIvcUoEhCnTjd0jrpq51EWtqtPcQbhVcFXIVvLVcADkEvhb0S3sB9pdeeqkF1mJP+7jvvvtaUN8H+qV96GZAbN5///3FrwAC7ui/9odl6IeWh6Bf6lnlck6/jz76qHv//ffrYy2XMjmnx7hdFfrbU++c+567dHrq+LS/I0z0AoTs6M4459CfoWtMCv5bPlhjiQr9V54vX/Npnhy2IcOCe6vcGjzLqcAQBWJBiuVjxx//ibx/jIb8c96xn0ut4+fPXPfXODTOfSpwWIFO/B5uEqxhXcSClZ1rPdFWGFXwDgG+1sGtBf1SLnAeAm4te+6554obAqknNrVvhfAQ3Es9OY9P6LVMfxXwfdL+1K7675dbcO/X0/a6FaiXXx/klwsEf9mXMjkXAn9CvxWZx12OkJ2CEujP0DUmBf8tH6yxxIX+m861nzT2gP4CWnauuVGwhsxyKjBOgViQYnnb8afIAXyy386blp0DdQXymyf7VT7qr2gC/eeuuOt73/lv9cYDKtBRoBO/nRr9CqyLmNU69KRfQFbKFVYFWBXKFXJx6wO2nBNIlqfual/aSz1thxCNAN8X+kNwrjcZ0oecl/6lH/XHf/ov5eIX3jyE7Eo99cvSAeFewT9UJrbwGxP6y/f74XUfK0hYvroCCNmrdx7oEP0ZusYEzCVTZI0lOvQ7h+/7t+GleOpY/2NF/UeLbUhJRmE6ko0CsSDFErDjzwGQb9k5UPcg9OM/uC9s8Ya7pS8PDirQid+DLcIVrItYuHb4ST9CqewL6Ar4y9d/Ui7nQ9Av9RDyD0G42lC41n6kb316j375cC5wL/UU8n07epOh49CtALrYUtu+XS1Xexb0Sz0f8vWmSW8C1BZuo0F/8T4/X+2x8iJ2OUJ2bF+kf/Rn6BqTgv+WD9ZYEoB+51zxGoH8Y8IA9OtTR1c9hez8419ryCynAuMUiAUplrcdfwr4bv7KlfOP0ZB/zjtuvc7j/3uZwOs9fn3sivtUIKRAJ35DlXqUWRcxqykCL8JoaF+AF5+Kax0Fdj1WQFawxq1Cs0K4wr34IXAs7/8LvGu5Bf1yHn2RetiP7usNg9+f+og3JuK/Bf1+ex2rv0XwFx/2Ab+0jQL9BH4rHZIpR8hOwSn0Z+gak4L/lg/WWNKA/ho2zrp/shOgXwZXQAf8w0NrwCynAmMViAUplr9df9o3xyX04+s+aGl/3eL1Osix1pP/4gahbbd1HrvhPhUwFOjGr1HxQLF1EbOahaBfgFphGaHWB20950O/2MRXa7QeAnwIouW8tJPvIeiXPtVHBXhto/0hwIf60zLpN9RGy2QrtgXgQ3phPdlX8D8E/FJ3dejnX+yxUiGpcoTsFBxDf4auMSn4b/lgjSUZ6G/+7njzBDP8VFEghq/4WBPN8ukKxIIUy/OQP5gbuB+ygedxv6iLT/5xvziJr945t/cXhVDHLKMCwT/hPE4W6yJmWQtBrMIwPgVXsMYyhV0f+gWiQ/UOQbj2IU/IFeDxRkH7k3NYR+yGbjLUntjQMaldtIUwjz5qHW0bGpPW8bcC/vL1y/3jVaH/ncfdRf61HisVkipHyE7BMfRn6BqTgv+WD9ZYEoJ+fX3nEPRrPb5bbE02y6cpEILsMRatpBtqK+xPefNb/v3i9tP44nW51q9he+rWr82V/2YG/1Fv6Wf7P+fiP6AfOnusH47f4boMzacQ9AuYKjDrazKyxSfiCK8I/QrIPlyjTalv1fOBXvpEH2QfIV3sYv/ol+xLe3kN6MaNG8XW90vHqa8KiR5i3+/TGrvf39DjNaHf/4+59D/puvhE9R+CDg83tlhIAYTshboYZBb9GbrGDOpo5crWWFaC/pVHy+6owAQFYkGK5fJc/lj2WU4FllRgrvi1LmKW7xb0D4VX1m//VZ6+eqwJ/VYMsDw9BRCy93mn/yEXbvfVH3sO/Rm6xoztc4121lgI/Wuozz42pUAsSLFEmssfyz7LqcCSCswVv9ZFzPKd0D8O1vtC/aF6hH4rMo+7HCH7kBJLA7/0j/4MXWMO+R/zvDUWQn/MWWHfSSoQC1IsMebyx7LPciqwpAJzxa91EbN8J/QT+q3YYHk8BRCy+3gh4L/kB/0ZusYs6ddU29ZYWmpalYZ2PtciP7Rf1qcCcygwV/wyn+aYDdrYugKx8onQHxf6Rf8hH1wvrz395JCmrLshBRCyU3Ab/cEYTMG3KT5YYyH0T1GVbbNUIBakWGLO5Y9ln+VUYEkF5opf6yK2z3cBT37X1UBe6xkK/DKHOL+E/n1Rve1zCNkpjAT9wRhMwbcpPlhjWQT6xVFZ6PmlBluMgSmJhm2tpMM6ffe3qCN9Zv5LDMz1mTOf5vKJduZTAOeX0D+frqlZQshOwTf0B2MwBd+m+GCNZTHon+Is21KBHBSwki6HsXEMVGBtBZhPayu+bn84v4T+dbVfszeE7DX7tfpCfzAGrfpbKbfGQujfygzSz80pYCXd5gZCh6lAAgownxKYhAVdwPkl9C8odGTTCNmRXSm6R38wBlPwbYoP1lgI/VNUZVsqsEcBK+n2NOEpKkAFDAWYT4YwmRTj/BL6M5nUwDAQsgOnVy9CfzAGV3dk5g6tsRD6Zxaa5qiAKmAlnZ7nlgpQgf4KMJ/6a7XFmji/hP4tzmA/nxGy+7VYthb6gzG4bK/LW7fGQuhfXnv2cKQKWEl3pHJw2FRgkgLMp0nyJd8Y55fQn/x0jXZQIDu1rw4GY1DLtrq1xkLo3+qM0u/kFbCSLnnH6SAVSFAB5lOCkzKjS5zfGcWkqVEK5BSD1lgI/aNCg42owGEFrKQ73JI1qAAV8BVgPvmK5HXM+c1rPrc4mpxi0BpLB/qlIr/UgDHAGGAMMAYYA4wBxgBjgDGwzRgI3Xh1oP/mP37o+KUGjIHpMSALJXWcriM1pIYSA8ynvOOA85v3/G5hHc8pBmUsoQ+hnzc5BNOFYiCnBWQLCzZ9zBsamE+cX+Z43jEQe35zWmMI/QuBXewgZf/pLoI5LSCMs3Tj7FjmhvmUdwzi/Mpf7+E3Tw1S+8s94o+uoRiDWrbVrYwl9OGTft4M1AG/1eBO1e+cFpBUNaZfeYMgzi/zKe+5xvkV4Me5534+c4+QncK8oj8Ygyn4NsUHGUvoQ+gn9HNxXSgGclpApiw+bJvPBTvmXDKf8o4jnF9Cf75zjZAdcz3RvtEfjEE9v9WtjCX0IfQvBHxbDRT6Pd9im9MCwriYLy6o5TgtmU/jdNtKvOH8EvrznWuE7BRiE/3BGEzBtyk+yFhCn8Wg//z5845farDFGJiSaNh2zgVkizrSZ+a/xADmxJT9OfNpih9suwyQ4vwS+pfROIXYRchOzR+MwRR8m+KDjCX0WQT6ZaHnhwpsVYG5QGWuBYT5tNVIot+iQMx8evH1H7u/evVH/K6sgeg+FFhwvST0E/qHxs/Y+ngTgjE41l4q7Qj9vP5SgZ4KxISU0IJB6O85cayWpAKx8knA891/+gW/kTQYCv4IXIR+Qn/oWrhEGaF/hnfcCSlJXnvpVE8FYkGKtaAxn3pOHKslqUCsfHr9h28S+CMBv9xsyS8s1poWKif05wv6ON8I2Vgeax/9wRiM5c9c/fJJf5KXQzqVogKxIMVKdkJ/ilFCn/oqECufCP1xf+Ug9B8HxFvXLascIduqg+W73W7QzSO27bOP/hD6+DdGKAAAIABJREFURz7170LKdXe227nd7sxd968Uz585mdTduSvulrvlrpzTfa/izSvuZLdzZ89LudoTm+1ved5ry0MqMECBWJBiLVDdfJLBYA4E8io03iKHetYNtWcZFRihQKx8sqD/Z//wc3ffl77iPvKxj9ff5154pf5V4KE/erQuxzqyL+f0laHHHv9z92u//hvutTd+UpfJubfeedfd87nfbtWVcu1X+5L2vn051vPaj26lH+lP2mmZbLW/Q7a0vV8Px4R2p+6vDf2vfPOiOz09rb8PPUPotq4pMcsRsg/5gXx3qO7Y8+gPoX9W6D9xJ+cU2psrx/ULFbQX0C/lJcy04b28GTi5eqtqGKrj3K2rJ+Ebi6Y77lGBgwrEghRr0QpBf5E3F8pbaNw3B1fdNAdvvM1GPEEFpisQK59C0K/gjaCr0ByCbamHdRWExc5Xv/YHxdeCcP+GQPvWfqSd3HxIudqVcxb4S33tE9tY/kt9ufmQ82JfoF+O8SZF24bGqD6N3a4K/c98w52efsM9pcxSHF90f/IGwd+6rsQqR8je5wMCv+7vqz/2HPpD6NcEGrjtQopA+ok7u3DidhWolJcSgfmqvIb+LrwXMA/nwzcGYjF8MzD9skULx6RALEixFq1wPsEN9IEn+OXN8M6dXZBf1fik/5hiOYWxxsqnEPQr5Cp4K9AKIIfA14J+aS/A/hfXXmiBtdjTPj5/4XdaUN8H+qV96GZAbH7+wheLXwEE3NF/7Q/L0A8tD0G/1LPK5Zx+v/6Hl9yNW+/Vx1ouZb//8OVOuZxfFfo7jPKie+j01PFpf3o3PQjZ1jVvzXL0h9DfSaR+ARSGlBN35Xl5RQegQ2Dl3BV3XZ7Qt6Aen+yHQD5UJpc3qzyFSx992IoCsSDFWug6+VRA/om7crNS1D/2hL71/HVX/EZWvEoH+efV4yEVWEKBWPkUgn4F7xDgK8ji1oJ+KRc4DwG3ln3nqWeLGwKpJza1b4XwENxLPTmPT+i1TH8V8H3S/tSu+u+XW3Dv19P2uhXgl18f5JcLBH/ZlzI5J3W0vm4J/f14yVr3cy1HyE5hjOgPoX9u6L9Zwry+uiNPIOWVne6TfOdcBTLySlD71wG5LIXhvnyiSahZ4sJ9TDZjQYq1AIahH+Nc8gFuAqzJIvRbyrB8QQVi5VMI+gVIBX4VVgVYFcoVVnHrA7acE0iWp+5iR46lvdTTdgjRCPB9oT8E53qTIX3Ieelf+lF//Kf/6hfePITsSj31y9IB4V7BP1QmtvAbE/rL9/vhdZ+RLGOtySwff0ODkJ2CjugPoX9konQgpYD0EkoU9F31j3blBiAI/YL2xfv+CDd6ZSqhX9/zarY9wEdNcEsFDAViQYq1AHbyqbghxrwg9BtTyeIEFIiVTxb0I5gK6Ar4y9d/Ui71QtAv9RDyD0G42lC41n6kb316jz75cC5wL/UU8n07epOh49CtALrYUtu+XS1Xexb0Sz0f8vWmSW8C1BZuo0F/8T4/X+2xriexyxGyY/si/aM/hP4FoN/J00Z5lQfAxYJ+q7z7pL/8BaH7i0ACVzy6sDkFYkGKtQCGoR9ucA+83lNPAJ/011JwZz0FYuVTH+hXSBXgxafiWq7ArscKyArWuFVoVghXuBfYFjiW9/8F3rXcgn45j75IPexH9/WGwe9PfcQbE/Hfgn6/vY7V3yL4iw/7gF/aRoF+Av+if97SukYNKUfIHtJuqbroD6F/CeivnvrjP+q14N4q70K/XMDKp//NX/hZ76LGnvJSIBakWItaB/rhl7NCebiB3jsThP698vDkMgrEyqcQ9AtQKywj1Pqgred86BdwxldrtB4CfAii5by0k+8h6Jc+1UcFeG2j/SHAh/rTMuk31EbLZCu2BeDFJpaH9hX8DwG/tF0d+vkXe5IHfrnGIWRb17w1y9EfQv8i0K+v7TR/fcSCe6tcAV//bUB9qSqgBp6A1ie4QwX6KxALUqyFrgv9VQ4N+ZOdMnxCf/8gYM3ZFIiVTyHoVxjGp+AK1limwOtDv0B0qN4hCNc+5Am5AjzeKGh/cg7rWDcZak9s6JjULtpCmEcftY62DY1J6/hbAX/5+uX+8arQ/8a33Zf513oI/SOYldA/QjQfVrqQ4r1z7MGHBfdWuQn9+p974V8Imu3SRUPHokAsSPHzSI+7+SQzgf+uBd/vr+C+9dewqpnz8u5Y5pPjjKtArHwKQb+AqQKzviYjW3wijvCK0K+A7MM12pT6Vj0f6KVP9EH2EdLFLvaPfsm+tJfXgP76b35abH2/dJz6qpBAv9j3+7TG7vc39HhN6Pf/Yy79T7q+/M2bmwBhXeuPYYuQncJ40R8+6R95AxCGlLgXHvZOBfoqEAtSrAWQ+dR35lgvRQVi5ZMF/UPhlfXbf5Wnrx5rQr+1drJ8/F/ZWUo7hOx9fTR/oKX6D1x3u0Vu4NAfQj+hP8VrKH1aWIFYkGItgIT+hSec5hdVIFY+EfrHwXpfqD9Uj9CfHnBb15g1yxGyD/WL4H+o7tjz6A+hn9C/6MWQxtNUIBakWIsWoT/NOKFX/RSIlU+EfkK/taayPN4NCUJ2n3kQ8O9Tb2wd9IfQT+jvd1VjrawUiAUp1qJF6M8qvI5uMLHy6cXXf3zwH5seelrN8+NvHER/a00LlSNwXXv6yUFtQ/ZYFg/s92mPkL2v3lrn0B+MwbX6X6ofGUvos8PCuQZMSEFVub81BWJBipX8zKetRRD9RQVi5pOApzzx53c9DeS1nqHAL2sf8gehP01gt65RQ8oRsoe0W6ou+oMxuFR/a9ldFfplULLQ80sNthgDcyXlnAvIFnWkz8x/iYEU82kun2hnPjjF9ZLQP5+uqcUoQnYKvqE/GIMp+DbFh9Whf4qzbJtvwh/T3Oa0gBzTvHGsaa4/zKc052WufMH5JfTnO9cI2XPFzhQ76A/G4BSbKbSVsYQ+i7zek8KA6UO+i8ZW5janBWQrmtPPfPOe+ZTv3Ere4vwS+vOda4TsFNZr9AdjMAXfpvggYwl9CP0j/7HylMlg23wXNJzbnBYQHBf3jyN+U5tn5lPecYfzS+jPd64RslNYY9AfjMEUfJvig4wl9CH0E/pne+d2SoDm2DanBSTH+eGYtgUWzKdtzdfQ/ML5JfTnO9cI2UNjZIn66A/G4BJ9rWlTxhL6EPoJ/YT+hWIgpwVkzcWKfeV7wZ8yt8ynvOMC51egn588FRDITu2r6xLGoJZtdStjCX0I/QsB31YDhX7Pd2HNaQFhXMwXF9RynJbMp3G6bSXeOL95z+8W4jCnGJSxhD6EfkI/n/QvFAM5LSBbWLDpY97QwHzi/DLH846B2POb0xrTG/qlIr/UgDHAGGAMMAYYA4wBxgBjgDGwzRjo9aQ/VIllVIAKDFdAFkp+qAAVmEcB5tM8OqZqhfOb6swcj185xaA1ls7rPcczvRwpFVhWASvplu2V1qlAngown/KcVx0V51eV4DaWAjnFoDUWQn+s6GK/2StgJV32A+cAqcACCjCfFhA1IZM4v/LXe/jNU4PU/nKP+KMfjEEt2+rWGguhf6szSr+TV8BKuuQdp4NUIEEFmE8JTsqMLuH88k92zihsYqYQslNwDf3BGEzBtyk+WGMh9E9RlW2pwB4FrKTb04SnqAAVMBRgPhnCZFKM80voz2RSA8NAyA6cXr0I/cEYXN2RmTu0xkLon1lomqMCqoCVdHqeWypABforwHzqr9UWa+L8Evq3OIP9fEbI7tdi2VroD8bgsr0ub90ay2LQf/78eccvNdhiDMyVjlbSjbG/RR3pM/NfYmCuz5z5NJdPtDOfAji/hP75dE3NEkJ2Cr6hPxiDKfg2xQdrLItA/5wL/ZRBsy0VGKPAXPFrJd1Qn+byZ2i/rE8F5lBgrvgdk09vvfWWe/PNN/ldWQPRfegH55fQP1S97dRHyE7Ba/QHYzAF36b4YI2F0D9FVbbNUoGYkBISdC5/QrZZRgWWVmCu+LUuYpb/Ap63b9/mN5IGQ8Ef55fQb0X19ssRslMYDfqDMZiCb1N8sMZC6J+iKttmqUAsSLHEnMsfyz7LqcCSCswVv9ZFzPKd0B/3hkd+YRnywfkl9A9Rblt1EbJT8Bz9wRhMwbcpPlhjIfRPUZVts1QgFqRYYs7lj2Wf5VRgSQXmil/rImb5Tugn9FuxwfJ4CiBk9/Fit2thap8mg+qgP0PXmEEdrVzZGktLTavSUF/Di/wtd+XczskE6ves+T8RoItuvZOrt+C8c9cvNDbU1m534q7cbFXjARUYpUA4foebWjafrruzOpfO3PU97t26elLnnORLO++6+ba7sM/ano54igoEFIiVTxb0f/DBB+7BBx90d955Z/197bXX6teArl69WpdjHdmXc/rK0FNPPeXuvvtu5/fz3nvvuXvvvbdVV9pov9qXtPfty7Ge1350K/1If9JOy2Sr/R2ype39ejgmtDt1f+0n/beeuOhOT0/r76WXA8HIougKIGQfcqbhuxaqHmo26Dz6M9c1e5ADC1W2xtJS0qo01KfuIl+BRQsmSmhpA0gFMoF6CCIF9LfqOFeCDcF/6FyxfleBbvx26/QpWS6fqhvfKgdC+VD79/yZ2+3gpqA4xjyRnMPjuiV3qMAsCsTKJx/GBWIVvBF0FZpDsC31sK6CsNh5+OGHi68F4f4Ngfat/Ug7ufmQcrUr5yzwl/raJ7ax/Jf6cvMh58W+6CHHqIu2DY1RfRq7XRX6X77kTk8vue9pxBbHF93j72gBt6kogJC9zycEft3fV3/sOfRnrmv2WF/mbGeNZSXoDwF+BeoA7wW8nLvi2s/1nXMeuFiQY5XPKSRt5a9ALEixlO364+XTzSvuBMHeMlSUT2m71zBPUoGgAt34DVY7WGhdxKyGCLcKrgq5Ct5aLoAcAl8L+qW9APtLL73UAmuxp33cd999LajvA/3SPnQzIDbvv//+4lcAAXf0X/vDMvRDy0PQL/Wscjmn30cffdS9//779bGWS5mc02Pcrgr9nSD4nrt0eur4tL8jTPQChOzozjjn0J+ha0wK/ls+WGNZCfpDT/p9Vz0Y8U/DsQX3xdP+0E0DtOUuFTikQCxIsfzq+FNAPjyd948tQ0W5l2dyQ82c2asYT05ToBO/I81ZFzHLXAj6FbxDgI/AqvsW9Eu5wHkIuLXsueeeK24IpJ7Y074VwkNwL/XkPD6h1zL9VcD3SftTu+q7X27BvV9P2+tWoF5+fZBfLhD8ZV/K5FwI/An9VmQedzlCdgpKoD9D15gU/Ld8sMayEvQ75wowad7F99/TL88DyFgjce1XG1rVvF8EWud4QAV6KhALUiz3Ov50nuwLyPfLnfI1uOZ1H/99/9arQJZDLKcCAxToxO+AtljVuohhHdwPQb+ArJQrrAqwKpQr5OLWB2w5J5AsT93VvrSXetoOIRoBvi/0h+BcbzKkDzkv/Us/6o//9F/KxS+8eQjZlXrql6UDwr2Cf6hMbOE3JvSX7/fD6z4YGNyPqgBCdlRHqs7Rn6FrTAr+Wz5YY1kP+sEzBI36nf7A08riiX79jxWbf4BoPen3XwOCLrlLBXorEAtSLAc7/oyF/uKmuMkj6a/IJXjS7x9bPrGcCvRVoBO/fRt69ayLmFetPlQoRxD19wV0Bfzl6z8pl7oh6Jd6CPmHIFxtKFxrP9K3Pr1Hv3w4F7iXegr5vh29ydBx6FYAHTXw7Wqfas+CfqnnQ77eNOlNgNrCbTToL97n56s9dSIktoOQnYJr6M/QNSYF/y0frLFEgX51sv3U0XvtQCsV2/Y5C/oLewAwLRM8oAI9FYgFKZZ7HX/8G2T/OGQoAPyhakN+cQu2ZyEV8BToxK93vu+hdRGz2iPwIoyG9gV48am41lFg12MFZAVr3Co0K4Qr3IsfAsfy/r/Au5Zb0C/n0Reph/3ovt4w+P2pj3hjIv5b0O+317H6WwR/8WEf8EvbKNBP4LfSIZlyhOwUnEJ/hq4xKfhv+WCNZR3ot94b9l7HsZ8y9oH+Pv9uwJKH5VSgUSAWpDQetPe6/niv83Se/Lfbl7+A9Xv9p4T+5vUfzxIPqcBgBbrxO9hE0cC6iFnWQtAvQK2wjFDrg7ae86FfbOKrNVoPAT4E0XJe2sn3EPRLn+qjAry20f4Q4EP9aZn0G2qjZbIV2wLwIb2wnuwr+B8Cfqm7OvTzL/ZYqZBUOUJ2Co6hP0PXmBT8t3ywxrIO9LsS2vHPbjoXgvQ99eDvi4ee9Je/GvQEG0slllMB51wsSLHED/mDOYD7HRvFDUH7lZ6mTpmDzb+vCeVkU5t7VGCMAqH4HWPHuohZtkIQqzCMT8EVrLFMYdeHfoHoUL1DEK59yBNyBXi8UdD+5BzWEbuhmwy1JzZ0TGoXbSHMo49aR9uGxqR1/K2Av3z9cv94Veh/53F3kX+tx0qFpMoRslNwDP0Zusak4L/lgzWWlaBf3KqAAt7Rb2Cj7XYBMVDP/+sinfNFXT6dbKvIo7EKxIIUy9+wP9UNcij24Zc1/Pcz+reOZdvknpeXfD3OmgaWj1QgHL/DjVkXMctSCPoFTBWY9TUZ2eITcYRXhH4FZB+u0abUt+r5QC99og+yj5AudrF/9Ev2pb28BnTjxo1i6/ul49RXhUQPse/3aY3d72/o8ZrQ7//HXPqfdF18ovMHwK1wYflKCiBkr9Tl3m7Qn6FrzF7DkU9aY1kR+iMrwO6pQE8FYkGK5d5c/lj2WU4FllRgrvi1LmKW7xb0D4VX1m//VZ6+eqwJ/VYMsDw9BRCy93mHD6l0f1/9sefQn6FrzNg+12hnjYXQv4b67GNTCsSCFEukufyx7LOcCiypwFzxa13ELN8J/eNgvS/UH6pH6Lci87jLEbIPKaGwL9ulPujP0DVmKZ/msGuNpaWkVWmoA3Mt8kP7ZX0qMIcCc8Uv82mO2aCNrSsQK58I/YT+redOjv4jZPcZ35LAL/2jP3Nds/uMa+k61lgI/UsrT/ubUyAWpFhCzeWPZZ/lVGBJBeaKX+siZvlO6I8L/aL/kA/O77WnnxzSlHU3pABCdgpuoz8Ygyn4NsUHayyE/imqsm2WCsSCFEvMufyx7LOcCiypwFzxa13E9vku4MnvuhrIaz1DgV/mEOeX0L8vqrd9DiE7hZGgPxiDKfg2xQdrLItAvzgqCz2/1GCLMTAl0bCtlXRYp+/+FnWkz8x/iYG5PnPm01w+0c58CuD8Evrn0zU1SwjZKfiG/mAMpuDbFB+ssSwG/VOcZVsqkIMCVtLlMDaOgQqsrQDzaW3F1+0P55fQv672a/aGkL1mv1Zf6A/GoFV/K+XWWAj9W5lB+rk5Bayk29xA6DAVSEAB5lMCk7CgCzi/hP4FhY5sGiE7sitF9+gPxmAKvk3xwRoLoX+KqmxLBfYoYCXdniY8RQWogKEA88kQJpNinF9CfyaTGhgGQnbg9OpF6A/G4OqOzNyhNRZC/8xC0xwVUAWspNPz3FIBKtBfAeZTf622WBPnl9C/xRns5zNCdr8Wy9ZCfzAGl+11eevWWAj9y2vPHo5UASvpjlQODpsKTFKA+TRJvuQb4/wS+pOfrtEOCmSn9tXBYAxq2Va31lgI/VudUfqdvAJW0iXvOB2kAgkqwHxKcFJmdInzO6OYNDVKgZxi0BoLoX9UaLARFTisgJV0h1uyBhWgAr4CzCdfkbyOOb95zecWR5NTDFpj6UC/VOSXGjAGGAOMAcYAY4AxwBhgDDAGthkDoRuvDvTf/McPHb/UgDEwPQZkoaSO03WkhtRQYoD5lHcccH7znt8trOM5xaCMJfQh9PMmh2C6UAzktIBsYcGmj3lDA/OJ88sczzsGYs9vTmsMoX8hsIsdpOw/3UUwpwWEcZZunB3L3DCf8o5BnF/56z385qlBan+5R/zRNRRjUMu2upWxhD580s+bgTrgtxrcqfqd0wKSqsb0K28QxPllPuU91zi/Avw499zPZ+4RslOYV/QHYzAF36b4IGMJfQj9hH4urgvFQE4LyJTFh23zuWDHnEvmU95xhPNL6M93rhGyY64n2jf6gzGo57e6lbGEPoT+hYBvq4FCv+dbbHNaQBgX88UFtRynJfNpnG5biTecX0J/vnONkJ1CbKI/GIMp+DbFBxlL6LMY9J8/f97xSw22GANTEg3bzrmAbFFH+sz8lxjAnJiyP2c+TfGDbZcBUpxfQv8yGqcQuwjZqfmDMZiCb1N8kLGEPotAvyz0/FCBrSowF6jMtYAwn7YaSfRbFIiZTy++/mP3V6/+iN+VNRDdhwILrpeEfkL/0PgZWx9vQjAGx9pLpR2hn9dfKtBTgZiQElowCP09J47VklQgVj4JeL77T7/gN5IGQ8EfgYvQT+gPXQuXKCP0z/COOyElyWsvneqpQCxIsRY05lPPiWO1JBWIlU+v//BNAn8k4JebLfmFxVrTQuWE/nxBH+cbIRvLY+2jPxiDsfyZq18+6U/yckinUlQgFqRYyU7oTzFK6FNfBWLlE6E/7q8chP7jgHjrumWVI2RbdbB8t9sNunnEtn320R9C/8in/jakXHdnu52TSSy/Z+46XjluXnEnu507uXoLS51z0u7EXbnp3K2rJ25X7bcr3XJXzu3c7kLLYrsKj6hADwViQYq1QIXzCXPJyyNvjGXOaM7t3NnzXgUeUoEFFYiVTxb0/+wffu7u+9JX3Ec+9vH6+9wLr9S/Cjz0R4/W5VhH9uWcvjL02ON/7n7t13/DvfbGT+oyOffWO++6ez732626Uq79al/S3rcvx3pe+9Gt9CP9STstk632d8iWtvfr4ZjQ7tT9taH/lW9edKenp/X3oWcI3dY1JWY5QvYhPxpWXA780R9C/5zQHwD6EkYAWKo6ux2UFRejBvrl8PqFLtwXts5dcf7twoLXMprOVIFYkGItgCHoxxzA/c6UPH/mWvlUHJc30J26LKACCygQK59C0K/gjaCr0ByCbamHdRWExc5Xv/YHxdeCcP+GQPvWfqSd3HxIudqVcxb4S33tE9tY/kt9ufmQ82JfoF+O8SZF24bGqD6N3a4K/c98w52efsM9pcxSHF90f/IGwd+6rsQqR8je5wMCv+7vqz/2HPpD6NcEGrg9BCnNdaV8Ol8/2S+g/8SddJ7Yt6HfVTcH9RPLqp38EsAPFZiqQCxIsRatbj6VT/nb8e/fKFsqeG2taiynAjMpECufQtCvkKvgrUArgBwCXwv6pb0A+19ce6EF1mJP+/j8hd9pQX0f6Jf2oZsBsfn5C18sfgUQcEf/tT8sQz+0PAT9Us8ql3P6/fofXnI3br1XH2u5lP3+w5c75XJ+VejvMMqL7qHTU8en/end9CBkW9e8NcvRH0J/J5H6BdBBSLEuJgrvz5ev+dRQA6/3aFN8sr/3Sac24JYK9FQgFqRYC10nnzRP9CbXP947TkL/Xnl4cnYFYuVTCPoVvEOAryCLWwv6pVzgPATcWvadp54tbgikntjUvhXCQ3Av9eQ8PqHXMv1VwPdJ+1O76r9fbsG9X0/b61aAX359kF8uEPxlX8rknNTR+rol9PfjJWvdz7UcITuFMaI/hP65oL8vlEA9hHp8p7+5IlW/EpyTd/z7PuVsWnOPClgKxIIUawEMQz/GvPdLmDUwp/8mBtvuqcxTVGAGBWLlUwj6BUgFfhVWBVgVyhVWcesDtpwTSJan7mJHjqW91NN2CNEI8H2hPwTnepMhfch56V/6UX/8p//qF948hOxKPfXL0gHhXsE/VCa28BsT+sv3++F1n5EsY63JLB9/Q4OQnYKO6A+hf2SihCGlx3vEAP3O4as/BtQU7yfzHybOcF2mCVAgFqRYC2A4nxDcjfyAMRW7zBdfER6voECsfLKgH8FUQFfAX77+k3KpF4J+qYeQfwjC1YbCtfYjfevTe/TJh3OBe6mnkO/b0ZsMHYduBdDFltr27Wq52rOgX+r5kK83TXoToLZwGw36i/f5+WqPdT2JXY6QHdsX6R/9IfTPBf3F6zk94LwF/c65+h8dGlDj11/hAsYu8lcgFqRYC2AY+uEmuk8eEPjzD9xERxgrn/pAv0KqAC8+FddyBXY9VkBWsMatQrNCuMK9wLbAsbz/L/Cu5Rb0y3n0RephP7qvNwx+f+oj3piI/xb0++11rP4WwV982Af80jYK9BP4F/3zltY1akg5QvaQdkvVRX8I/bNBf/gv7sg1qvU+fgBeyvNn9Z/sbF3XAvVb53lABUYoEAtSrEWtA/3+v3Ep8gCf/HuDrm+evXIeUoEVFIiVTyHoF6BWWEao9UFbz/nQL+CMr9ZoPQT4EETLeWkn30PQL32qjwrw2kb7Q4AP9adl0m+ojZbJVmwLwItNLA/tK/gfAn5puzr08y/2JA/8co1DyLaueWuWoz+E/hmhX//iTv2XeuRi48NIEOLlKb/8jXF4sqkXqmB9PcktFRinQCxIsRa6LvS3b5ZbN87+kIsc6fErm9+Ox1RgJgVi5VMI+hWG8Sm4gjWWKfD60C8QHap3CMK1D3lCrgCPNwran5zDOtZNhtoTGzomtYu2EObRR62jbUNj0jr+VsBfvn65f7wq9L/xbfdl/rUeQv8IZiX0jxDNh5UQpJTXDwV4/Y+CvKeTBsSXf8+f0D/TNZhmDigQC1L8PNLjcD5hLnl5JDfT1f9ZUeaO5luzbd18H9CDp6nAFAVi5VMI+gVMFZj1NRnZ4hNxhFeEfgVkH67RptS36vlAL32iD7KPkC52sX/0S/alvbwG9Nd/89Ni6/ul49RXhQT6xb7fpzV2v7+hx2tCv/8fc+l/0vXlb97cBAjrWn8MW4TsFMaL/vBJ/8gbgDCkTLlssC0VWE+BWJBiLYDMp/Xmnj3Nr0CsfLKgfyi8sn77r/L01WNN6LfWTpaP/ys7S2mHkL2vD/0PuXC7r/7Yc+gPoZ/QP/8VkBaTVyAWpFiLFqE/+ZChg3sUiJVPhP5xsN5dLcsYAAAQt0lEQVQX6g/VI/SnB9zWNWbNcoTsQ/0uDfzSP/pD6Cf077mU8VSuCsSCFGsBJPTnGmnHMa5Y+UToJ/RbayrL492QIGT3mQcB/z71xtZBfwj9hP7juCpzlC0FYkGKtWgR+lvTw4ONKRArn158/ccH/7HpoafVPD/+xkH0t9a0UDkC17WnnxzUNmSPZfHAfp/2CNn76q11Dv3BGFyr/6X6kbGEPjssnGvAhBRUlftbUyAWpFjJz3zaWgTRX1QgZj4JeMoTf37X00Be6xkK/LL2IX8Q+tMEdusaNaQcIXtIu6Xqoj8Yg0v1t5bdVaFfBiULPb/UYIsxMFdSzrmAbFFH+sz8lxhIMZ/m8ol25oNTXC8J/fPpmlqMImSn4Bv6gzGYgm9TfFgd+qc4y7b5JvwxzW1OC8gxzRvHmub6w3xKc17myhecX0J/vnONkD1X7Eyxg/5gDE6xmUJbGUvos8jrPSkMmD7ku2hsZW5zWkC2ojn9zDfvmU/5zq3kLc4voT/fuUbITmG9Rn8wBlPwbYoPMpbQh9A/8h8rT5kMts13QcO5zWkBwXFx/zjiN7V5Zj7lHXc4v4T+fOcaITuFNQb9wRhMwbcpPshYQh9CP6F/tndupwRojm1zWkBynB+OaVtgwXza1nwNzS+cX0J/vnONkD00Rpaoj/5gDC7R15o2ZSyhD6Gf0E/oXygGclpA1lys2Fe+F/wpc8t8yjsucH4F+vnJUwGB7NS+ui5hDGrZVrcyltCH0L8Q8G01UOj3fBfWnBYQxsV8cUEtx2nJfBqn21bijfOb9/xuIQ5zikEZS+hD6Cf080n/QjGQ0wKyhQWbPuYNDcwnzi9zPO8YiD2/Oa0xvaFfKvJLDRgDjAHGAGOAMcAYYAwwBhgD24yBXk/6Q5VYRgWowHAFZKHkhwpQgXkUYD7No2OqVji/qc7M8fiVUwxaY+m83nM808uRUoFlFbCSbtleaZ0K5KkA8ynPedVRcX5VCW5jKZBTDFpjIfTHii72m70CVtJlP3AOkAosoADzaQFREzKJ8yt/vYffPDVI7S/3iD/6wRjUsq1urbEQ+rc6o/Q7eQWspEvecTpIBRJUgPmU4KTM6BLOL/9k54zCJmYKITsF19AfjMEUfJvigzUWQv8UVdmWCuxRwEq6PU14igpQAUMB5pMhTCbFOL+E/kwmNTAMhOzA6dWL0B+MwdUdmblDayyE/pmFpjkqoApYSafnuaUCVKC/Asyn/lptsSbOL6F/izPYz2eE7H4tlq2F/mAMLtvr8tatsSwG/efPn3f8UoMtxsBc6Wgl3Rj7W9SRPjP/JQbm+syZT3P5RDvzKYDzS+ifT9fULCFkp+Ab+oMxmIJvU3ywxrII9M+50E8ZNNtSgTEKzBW/VtIN9Wkuf4b2y/pUYA4F5orfMfn01ltvuTfffJPflTUQ3Yd+cH4J/UPV2059hOwUvEZ/MAZT8G2KD9ZYCP1TVGXbLBWICSkhQefyJ2SbZVRgaQXmil/rImb5L+B5+/ZtfiNpMBT8cX4J/VZUb78cITuF0aA/GIMp+DbFB2sshP4pqrJtlgrEghRLzLn8seyznAosqcBc8WtdxCzfCf1xb3jkF5YhH5xfQv8Q5bZVFyE7Bc/RH4zBFHyb4oM1FkL/FFXZNksFYkGKJeZc/lj2WU4FllRgrvi1LmKW74R+Qr8VGyyPpwBCdh8vdrsWpvZpMqgO+jN0jRnU0cqVrbG01LQqDfXVX+SvX9g5mbjg98J1554/c7tzV9wt7EjKdjt31vy/Cc65W+7KuZ07uXrLuZtX3EnIptjjhwpMUMCP37Gmlsqn0p/r7qyO/zO3P+qxrp9TzrXyk/kzdrrZzlAgVj5Z0P/BBx+4Bx980N15553197XXXqtfA7p69WpdjnVkX87pK0NPPfWUu/vuu53fz3vvvefuvffeVl1po/1qX9Lety/Hel770a30I/1JOy2TrfZ3yJa29+vhmNDu1P21n/TfeuKiOz09rb+XXjYCksVRFUDIPuQIMuOhumPPoz9zXbPH+jJnO2ssq0A/DqQADB8sCoA/cVduNjVvXT1xJ+dO3A7rYj3cr5tVcINt6nPcoQL9FIgFKZZ3IX8wj3C/awNulOVkcTPd5Jrk2W7X3DSIreKmumuIJVRglAKh+B1jyLqIWbZ8GBeIVfBG0FVoDsG21MO6CsJi5+GHHy6+FoT7NwTat/Yj7eTmQ8rVrpyzwF/qa5/YxvJf6svNh5wX+6KHHKMu2jY0RvVp7HZV6H/5kjs9veS+p8FQHF90j7+jBdymogBC9j6fEPh1f1/9sefQn6FrzNg+12hnjSUN6K+e4DdP9QVUTtyV56+4E/wFAH8RCEK/q34BaKBmDXHZR14KxIIUS8WuP+XNbZ0vRS404N6249V1eOzdEEhDsYU51zbGIyowWIFu/A42UTSwLmKWNYRbBVeFXAVvLRdADoGvBf3SXoD9pZdeaoG12NM+7rvvvhbU94F+aR+6GRCb999/f/ErgIA7+q/9YRn6oeUh6Jd6Vrmc0++jjz7q3n///fpYy6VMzukxbleF/k4QfM9dOj11fNrfESZ6AUJ2dGecc+jP0DUmBf8tH6yxJAL95SsGzRNGAROBmAr+q18AiqeS+hTfgv4W1FhysJwK2ArEghTLo44/fuz7xy1DHtgXT/r1BsE7J+0KW3q+ZYgHVGCUAp34HWXFOesiZpkLQb+CdwjwEVh134J+KRc4DwG3lj333HPFDYHUE3vat0J4CO6lnpzHJ/Rapr8K+D5pf2pXfffLLbj362l73QrUy68P8ssFgr/sS5mcC4E/od+KzOMuR8hOQQn0Z+gak4L/lg/WWJKB/tZ7/QImFdzj6way3366GXqiHwAZSxWWU4GAArEgJeBKUdTxpwPmcpMcyoXGYvEKkPwbAO8pflneQH55vN9WY5V7VOCwAp34PdwkWMO6iAUrO9d6jUUBVrYCvwqrAqwK5VhH933AlnKBZHnqrjcV0l7qaRuEaAT4vtAfgnO9yZA+5Lz0L/2oP/7TfykXv/DmIWRX6qlflg4I9wr+oTKxhd+Y0F++3w+v+1hBwvLVFUDIXr3zQIfoz9A1JmAumSJrLOlAP4BM8T6//GNd+dQ3APr0v9LUfLpJ6K8U4makArEgxXK34w/kStlmH/TLOXhPv5M3Zb7oO5NnV+UfyBP6rblg+XAFOvE73ETRwrqIWeYUyhFE/X0BXQF/+fpPyqVuCPqlHkL+IQhXGwrX2o/0rU/v0S8fzgXupZ5Cvm9HbzJ0HLoVQEcNfLvap9qzoF/q+ZCvN016E6C2cBsN+ov3+flqj5UXscsRsmP7Iv2jP0PXmBT8t3ywxpIO9Nev8giEIHRUsC+wgk8pO/CiQy8hp/5FQIu5pQI9FYgFKZZ7HX/82PeP0VDrdZ7yRPE0X1+Tw7qyH6jvV+ExFRiiQCd+hzSGutZFDKq0dhF4EUZD+wK8+FRc6yiw67ECsoI1bhWaFcIV7sUPgWN5/1/gXcst6Jfz6IvUw350X28Y/P7UR7wxEf8t6Pfb61j9LYK/+LAP+KVtFOgn8LdyIMUDhOwU/EN/hq4xKfhv+WCNJSHoL9/rP3u+gvx6JNVNwNWz9l8VsUCngBa8aagNcYcK9FIgFqRYznX9kRyBGC9yoXlFp2UnAPH7oL/4dzN4c90yxgMqMFyBbvwOtyEtrIuYZS0E/QLUCssItT5o6zkf+sUmvlqj9RDgQxAt56WdfA9Bv/SpPirAaxvtDwE+1J+WSb+hNlomW7EtAB/SC+vJvoL/IeCXuqtDP/9ij5UKSZUjZKfgGPozdI1JwX/LB2ssSUG/PGU8uSDf9l8dL173OXfSvM8vowxCf/mUX/89gCUGy6nAPgViQYrlU8gfBHfc79ooc6L+R/JF3jT/Nqb7j+Obc11bLKECwxUIxe9wK/NAv8IwPgVXsMYyhV0f+gWiQ/UOQbj2IU/IFeDxRkH7k3NYx7rJUHtiQ8ekdtEWwjz6qHW0bWhMWsffCvjL1y/3j1eF/ncedxf513rGpNXqbRCyV+880CH6Y4FyoFnyRdZY0oL+CkhqQFFZA08rrf+cq9NWbXBLBXoqEAtSLPfC/lQ3uMV/0OU95Zd8waf1VV7V7+0H/sM7Pcf8sWaB5WMVCMfvcGvWRcyyZD25VmDW12Rki0/EEV4R+hWQfbiW+mpT6lv1fKCXPtEH2UdIF7vYP/ol+9JeXgO6ceNGsfX9Up/0VSHRQ+z7fVpj9/sberwm9Pv/MZf+J10Xn2j9l59WqLB8RQUQslfs1uwK/Rm6xphGEzhhjWV16E9AC7pABfYqEAtSLKfm8seyz3IqsKQCc8WvdRGzfLegfyi8sn77r/L01WNN6LdigOXpKYCQvc87fRCF2331x55Df4auMWP7XKOdNRZC/xrqs49NKRALUiyR5vLHss9yKrCkAnPFr3URs3wn9I+D9b5Qf6geod+KzOMuR8g+pMTSwC/9oz9D15hD/sc8b42F0B9zVth3kgrEghRLjLn8seyznAosqcBc8WtdxCzfCf2Efis2WB5PAYTsPl4I+C/5QX+GrjFL+jXVtjWWlppWpaGdz7XID+2X9anAHArMFb/Mpzlmgza2rkCsfCL0x4V+0X/IB9fLa08/OaQp625IAYTsFNxGfzAGU/Btig/WWAj9U1Rl2ywViAUplphz+WPZZzkVWFKBueLXuojt813Ak991NZDXeoYCv8whzi+hf19Ub/scQnYKI0F/MAZT8G2KD9ZYFoF+cVQWen6pwRZjYEqiYVsr6bBO3/0t6kifmf8SA3N95synuXyinfkUwPkl9M+na2qWELJT8A39wRhMwbcpPlhjWQz6pzjLtlQgBwWspMthbBwDFVhbAebT2oqv2x/OL6F/Xe3X7A0he81+rb7QH4xBq/5Wyq2xEPq3MoP0c3MKWEm3uYHQYSqQgALMpwQmYUEXcH4J/QsKHdk0QnZkV4ru0R+MwRR8m+KDNRZC/xRV2ZYK7FHASro9TXiKClABQwHmkyFMJsU4v4T+TCY1MAyE7MDp1YvQH4zB1R2ZuUNrLIT+mYWmOSqgClhJp+e5pQJUoL8CzKf+Wm2xJs4voX+LM9jPZ4Tsfi2WrYX+YAwu2+vy1q2xEPqX1549HKkCVtIdqRwcNhWYpADzaZJ8yTfG+SX0Jz9dox0UyE7tq4PBGNSyrW6tsRD6tzqj9Dt5BaykS95xOkgFElSA+ZTgpMzoEud3RjFpapQCOcWgNRZC/6jQYCMqcFgBK+kOt2QNKkAFfAWYT74ieR1zfvOazy2OJqcYtMbSgX6pyC81YAwwBhgDjAHGAGOAMcAYYAxsMwZCN14t6A9VYBkVoAJUgApQASpABagAFaAC21aA0L/t+aP3VIAKUAEqQAWoABWgAlTgoAKE/oMSsQIVoAJUgApQASpABagAFdi2AoT+bc8fvacCVIAKUAEqQAWoABWgAgcVIPQflIgVqAAVoAJUgApQASpABajAthUg9G97/ug9FaACVIAKUAEqQAWoABU4qACh/6BErEAFqAAVoAJUgApQASpABbatAKF/2/NH76kAFaACVIAKUAEqQAWowEEFCP0HJWIFKkAFqAAVoAJUgApQASqwbQUI/dueP3pPBagAFaACVIAKUAEqQAUOKkDoPygRK1ABKkAFqAAVoAJUgApQgW0rQOjf9vzReypABagAFaACVIAKUAEqcFCB/x/ZjkgirFIHWwAAAABJRU5ErkJggg==;imageBorder=#000000;" vertex="1" parent="1">
          <mxGeometry x="-1290" y="40" width="765" height="321" as="geometry" />
        </mxCell>
        <mxCell id="EJOH6y6XxS1806s4NGWn-39" value="" style="shape=image;verticalLabelPosition=bottom;labelBackgroundColor=#ffffff;verticalAlign=top;aspect=fixed;imageAspect=0;image=data:image/png,iVBORw0KGgoAAAANSUhEUgAAA6AAAAJ2CAYAAABB1e83AAAgAElEQVR4Aey9/68sSXnff/6nIV+kOFYSRY5DhBSutImUSPkljn/KmcTEXpkIO2Z9kcGKPTmAN7IiHMXsriIZ8NwgKyEKloXNXStecznLkhh2P7D2Lnu57GFZFi4LLE599FT1U/3U019m5pye6e6Z15HmTnd9eeqpV9X00++umrlngT8IQAACEIAABCAAAQhAAAIQgMABCJwdoA2agAAEIAABCEAAAhCAAAQgAAEIBAQok2AeBB6sw3KxCIvzdbga1OOrsD5fhIXYXizD+sGgxjEGAQhAAAIQgAAEIAABCBgCexWglxczv7FX0RPFSdWXi0uD73qHV3eWSfAMYKvdg8uw2lJQZV9sHwcXee1e7pSqY9HqmxWR1Ti1lmu2qP1f3hlW1jZbIgUCEIAABCAAAQhAAAIQ2KMAVRGUBMHsbvDvrZJItEJGRNAAolFFz2IAW+1TWNn3rejVoq0cG6m7CjeX2e2eXTu1V4Amq8q17E9/i/qQZHWvvxy5EIAABCAAAQhAAAIQgMDNCexPgGYBt2zfOqn5XStvPj8LQRVXq7DWlcTFIhSiw9cVQaVpWfSpAGsTaX15Cl3LtKzyGrG0zqvAixBFjvph+i3ptXhap9XL2F/tq7bR3IKqAiptIV2ExcVnzJbSntVA9SPz0H6V795+zVl922EcesbQMsh9WVTMxCXDtGutsmZYl6jTKq6RexLYmpfbU/+UjY5RwUj7XY9JzaRkxxkEIAABCEAAAhCAAAQgUBLoFaDPPPNM2OVlTatwWd2rhVpeZVIxoSttesPvBIDe2KtQSOe1AIjnm2xlp9SPanVP62mbuZwcaBtdK4FqS8WrK6+2VUC5/ml/7ApoTlPR0+KXMlUu/rzugvqj/tU5eqTtqS1Nt+/Jvtro6nMl/nOfK2ZVn9V+2Z76V4u4PDfUAW9Pz1u4aJWyjZSqaYtqrnlm/jzoWFWiU+unfngG2nL9vsvnhbK7XV/gBS/mAHOAOcAcYA4wB5gD058D9Z1x+9FGAdpebVOqCgy30uRu6rMA05v+SlyoKMgrUyrKYv3StheLWleFj/VUxYRdbWsIH6mgYkcFsjXSka/tRntaX8WSO1c/cv+DXQGtV++kqVxWGeTVXuWgAtE62ZeXyqld5aT+J+YybmqjFok6HomZ5qtIL89Le8ZG6xiq72rDlNcxcAy1hn33fZI8n+bP1U/PQc/zXIhjqQK09q91/linOIYABCAAAQhAAAIQgMCJEJAHBJv+9iJA9SZfBUv9XgrSfJPfIUBzftELFSn9wqe1roqYi3W1TVVtFA2IbKny28SdEagqMGXNtNpqO6gAdVyUa+qbcmjzsS+v6qvarh4KxFTlE0XfJhuarwzLc+XROg5Z3GpdaV2Z67bb0l4pBP14pfOST3uaL+P91PMsLJVJy1jneW0ZtrtGKgQgAAEIQAACEIAABI6ewEgC1AsJ4ezSVPzoTX3Xua5+iQkRAq2rZ06oeFtumFVgiHhoF0dVhTY72Qftj4o/54MXLf5cbRvh4oVRpKbfca3K+TLal2Y/vH8OQjzVMoaD+llxV/t+pXabFdC8lXWrMRSHlOGWTFu65PlIEZ/mz7WPmaEbG1++aNaVLfI4gQAEIAABCEAAAhCAwIkRGEeAOhGjzPVGXv8fx3xutpZqXqyjN/c2fxsBKpUbdc1KW84zaeqkf89l6y2XtRirBVxaCVPh1LJCqkxUcGexleyKoFMeWQhFX1SUmfadcFYB5Vfj1F5Mz+36DtYrt7m+8DblG/b1e625D8pRfdXztnGQH0mS39dtKWvEYuGLCtgGQ9sXPxZ1H5SDcvXn2j/Nj1b9uOcHBeq3GQ/DynrEMQQgAAEIQAACEIAABE6NwDgC9BqUvSi4homtq2hbtZDcuioFIQABCEAAAhCAAAQgAAEIQKCDwIQFaMuKVV5l6ujNIMm6gmVWKwexixEIQAACEIAABCAAAQhAAAKnTWDCAvS0B4beQwACEIAABCAAAQhAAAIQODYCCNBjG1H6AwEIQAACEIAABCAAAQhAYKIEEKATHRjcggAEIAABCEAAAhCAAAQgcGwEEKDHNqL0BwIQgAAEIAABCEAAAhCAwEQJIEAnOjC4BQEIQAACEIAABCAAAQhA4NgIIECPbUTpDwQgAAEIQAACEIAABCAAgYkSQIBOdGBwCwIQgAAEIAABCEAAAhCAwLERQIAe24jSHwhAAAIQgAAEIAABCEAAAhMlgACd6MDgFgQgAAEIQAACEIAABCAAgWMjgAA9thGlPxCAAAQgAAEIQAACEIAABCZKAAE60YHBLQhAAAIQgAAEIAABCEAAAsdGAAF6bCNKfyAAAQhAAAIQgAAEIAABCEyUAAJ0ogODWxCAAAQgAAEIQAACEIAABI6NAAL02EaU/kAAAhCAAAQgAAEIQAACEJgoAQToRAcGtyAAAQhAAAIQgAAEIAABCBwbAQTosY0o/YEABCAAAQhAAAIQgAAEIDBRAgjQiQ4MbkEAAhCAAAQgAAEIQAACEDg2AgjQYxtR+gMBCEAAAhCAAAQgAAEIQGCiBBCgEx0Y3IIABCAAAQhAAAIQgAAEIHBsBBCgxzai9AcCEIAABCAAAQhAAAIQgMBECSBAJzowuAUBCEAAAhCAAAQgAAEIQODYCCBAj21E6Q8EIAABCEAAAhCAAAQgAIGJEkCATnRgcAsCEIAABCAAAQhAAAIQgMCxEUCAHtuI0p9JEHj00UcDLxhMbQ5M4sOBExCAwGgEpnZNwh/i5D7mwGgfMBremgACdGtUFITAdgTkYsofBKZIgLk5xVHBJwgchgCf/8NwppXxCTDXxx+DTR4gQDcRIh8COxLgwrcjMIofjABz82CoaQgCkyPA539yQ4JDeyLAXN8T2AHNIkAHhIkpCAgBLnzMg6kSYG5OdWTwCwL7J8Dnf/+MaWEaBJjr0xiHPi8QoH10yIPANQhw4bsGNKochABz8yCYaQQCkyTA53+Sw4JTeyDAXN8D1IFNIkAHBoo5CPgL3/2nboWzszP3uhWefKlmFcs88mS4XyeFEO6G21KvSr/72Fk4e+xuUSK89GS4JWVMeixXtXf7aVv8fnjyEedHrle15f3M+WrHlrsdSm9s3lm49VTZm+xrbKPsv1rnfb8E/Nzcb2tYhwAEpkTAf/63iU178//p2+HszMeQLVq7Rr3Uz5aYE+NnS/oWbhyySPs4nYUyvvd41Mss3RfEeH1DHt7Pxj1Aj4tDZ/m5PrR97N2cAAL05gx3snB1ZxkWF5c71aHwvAj4C1+8KDtxmS7UdfBtlqnEohGATQGaBF9xkbeBxh5HhFK+K9gmW2VAa9q3PtjjEEwQk7YqYVzbK+37/s9rhOfrrZ+b8+0JnkMAArsS8J//ZtwJ4WDX5kZ82rI3O9eT2HQr3H7sVsdD0a6YuKU/ByjWNk4hctjS915mJnbfQICmB9/1PY0+QC/uTw7ASpvwc13TeZ8OgdEF6OXFIiwWy7B+MB0o3Z5chtVC/K1fq3vdpdtyEKBtVI4rzV/4WoOHu9D7MvFi7kRrm+CzK59Csa1MFoGxTRsgLPdSIGpOac+V6bVngpoYc/1tnGuDvO+VgJ+be23spIzfPDZMFVeK0YtgY52kLe9cTdVl/Oog4D//Pu7Eav5a3WHrxsm9oqjH+q71pLzE0l3r9bhw6KzWcfIPffuc6u27i9V9drryuuZMb7tdxoZJ93N9GKtYGZLAyAJUgvYqrO8sZxDM0g1GGXQvw+p8HXYJwwjQIafvNG35C19b8PBp9jwet2xNsmIwHjuB2liF9AFKA3ErNicuYxmX5oOMP7d2G3mlLdtfW43j/RLwc3O/rZ2K9WFiw1RpRbF5sQpLE+sQoFMdrX6//Oe/7TrclhbjTf56hll1qwTGbfl6SJVfrnglcZPy0iqkfqUkreDpA9GqnIlpRZtmJ9Cmep6A2Ek+lTEolrNxKh7fDtqXn3/sVvOrLcaP2q4+YK0Z5AfDlc36qyqpn/pQuOij6bvvQ9uYlPG+KSKjbfW3GqcnzdeB1IfCjuURnUjMdGzrOqWH7f6VZdJZt73k75Pma0IyN2x5nSv6oN2XLdvzc73M5WwKBMYVoPdWaTvqg3UR3CIYSTMrjQsT/ILUy3mroBtak7hbmVXKOk9s6pPcWPd8HZ7322Fjm2UdHaTNwvEqrM87VkYLfxflFtwir71t9YH3eRDwF754cc7BW4NUfTGVXuULeAwUJsCbLmtASfbK+qlYGdwkTeroDUHTD2vDXujVx7putN8IplLH+1rdSEh/NfjlPvTl5UIc7JGAn5t7bOpkTF87NsR4swzLHDdkJ5BdSa3jQW9sK2KIXZkUW8uwuljmeKkPUBsCUmzYGGtGT8vKu66CalostqH9un9S38ZJt/OpsFP33bjC4Q0J+M9/MybItd/GhRCi4DPiSONQdCXGKxMnXPzKcS0WrmKM2qpE0V3/oNTGQ1NP41gtQJuiq4mnjFHRHxuXrOCKx6YvRby7G24/civcymysXRd3rc2qb1m4WZvSf2XhYrXvR8mxyi1YN1m0jVOOyV11W3zP3Iu80sOirTLLnDkfCx8qUZnvJ1LZei6muaO+xPbO6u/AxvNHnjRt8b8RFDAmejKqAK0DmgQlG4xSENZgFwWnBkcvEiVoVd+pjEF6UQcuGyRjntqIYlTKSTt1eSmjAdqPl7Xl8+Rc8tWPEO1W/aluMnSLcbqRqCRzT1/a2iBtHgRag7wJNLEX7uJb3wjcCrfkh4J8ed1eG4VsVcYG0mjUBUIX1PQirT8NVJ6nC3wOlMZeDlo2eMZ8G4RjgvmnCiDqY6xbB4z6JsJU4XDvBPzc3HuDJ9DAoLEhx6Mk1DQGtsW2Ot5YyEl0pniT4miOaTbeyHERD2txaa3Jce6fqZPTfGEb++KxsRsFZh3nCxvWN7Fp4nqjCRKuTcB//jcLG9+Uu67HOGYEayFSUlkVDWKpaK+KgRLvbJliRa5qfrt63tdKPGsMkmwfw6y/9jiaMvFN8h67G+4+Vj1wFd9bYnSs1hbbKx9iP9SfWM7ExBb3NSnWazzEtnWbrGN8L9qyD4tteXNsGdhjdaTjvWiro0zzazemXb2/UX8b5y1lLf/KV9u0n+s2j+NpEBhPgLqA0xBmJjgWArR4SlqtOFZlCxshBDnX4CvBToO5RV8HQRu4bYl0XJdr5oXgBbQJ2i6QFj729KWtFdLmQcBf+IrgmbtQXlA1wCQBmMRgFn5VnXiR1yeE8YK7KXCXbeSm9aAIMG0CtArg+tS3KK/B3AY1NVy9xwCbbk6aDDb45kxxOgwBPzeHsXraVq4dG/pioBV+VSwrBKfEjhwj7aqixEQVeT6mybk+cDUC1/nhR9P2T44ljtq0FP/q3T+d7Rc+p/ic+0Qs9Nj3cu4//83rsjTrrs1VrNFttPEBqQoFc42PDhcxohlTivYqAXbrEfmVeCNiq22X9mHodvU8stQP3T5q37Pgtf7a48qUxFwpK+23vWuLKTZXO4fiSqmJi9Fu6p+Us/1KD2LrHUdFnhr3wt2k14duzLyA8+NUPJw2dS2Dljp1e+VRMT5lVn3WsGfa9f42zvvLph88ulW3xf/HXrCY6sloAjQKsbyNVoNXFRwlIObgWj0N1XMXxCzYQtxtKUCDtiV2e36d1tu27d5IgGq/SoOczZjAdYJ84wIeA0EZrGKQ08AvfOIF3QS6IqhIgXTR7gpq5dPg5s1CHIIiaEgZ054JrG3DZftkj1PZMqC01SdteAJ+bg7fwulZvHZscMLP27Eiz+fZh7JSro5dVnTaYxkXK0DrVUaxrQ9q20bP+qHxcm1+hGjr9l3sLvrk8tr8IO3mBPznv3ldljbKa7OPO8V5ER/8Q8nSTrQs30HUlStTt7Dp2t++nuPTEZ+KPlvBZY/VlPhoVz6lzGPy3UMfB3vOcxyW+GmFtjaS3qNfHfmFz2W16qzJumBqWFetxe9aJiFu6loG9ri1TZPYVdam2+NY1bTbEJz6PU/99mxLWZ1HYquybTwKfq7bPI6nQWAkAdpcMRQcEsjSKmUZOGOgUqEWg7aWk1pXYX0nbWktApoToIWN2JY+CU7t1k9tuwZGfLLfr4ke5x8h6gzC7iajKNfTly4vSJ8+AX/haw0eMSDUQautTApIdZkioFQYYpoNWjbQ2ONGUE8X9HqVtU2A+jJlUCj9KQNE4yfYY4Awgtr1f/qjehwe+rl5HL0auxfDxAYfvyRWqDAs89LqpebZclEgbrUCKsx05bSOhW0kC/tVnJbfUdi5fScyiz4RC9vQD57mP/9tccc/2IzXeb3Zr67jOW4UMaYWAvp/XJf2U4xpE6AaL/RhaVu9vGpZtNkWtxK2aMM+sFWaVgh1Hbuytx5R4Vh9F1R5SDkX21JMruO2FIm+yBZaU6/sY/O7tupCrm/q2jw9LsZJf7xH+x+ZmR1TRfw1sdvyaNwzdLMWH1K/lVP0Ov2gkPrg7RU+lPcW2V5HXc9Y+64s5N3PdZvH8TQIjCNAJdiooLQc7CqkHFcrpMvzpdluVD25NaunGgiLgOYEqDQTxZ/Ws6udLjBal8rjdKOhfpWiVYN5Ws21232jX7Yvvm31yQT1sl3O5kTAX/hy8HHf4dBgK31rBKPY4UoAVquO8SKbL8hKpArqRoSmi3Pa1mPb0CfbeStSEdDUTr0dKJYrykibtpwNNj6v5UeIqiCY2i8DtPaG9/0S8HNzv62dkvVrxAb3cNLHLyv8bAyJ8cfGkEq8xfTzZVhuLUDdNtiO4bJ+xCJVexp3k+itdjH1te/irO9vXNUlFnaMwjDJ/vO/TWxSgaXx4G7HKmb0sBAwkqIxTOLK7RB/hVVjSowHdQxJvtTnNo5lwSsmN9RLpPrEUuWTxFLrrz1ORmr/1Wcvoqpy1tfbT7e0HW0bAdhS78zuLsrtp4P2+wNXqGojxdeKtd4vVMxu+iu4+SGAa1pP/Xxqlrf3D+aBtApY9bdxbkRyzrsdbud7qnreqC9+rms679MhMI4A3bH/jUC1Y/1NxSXAWsG4qTz5EOgjwIWvjw55YxJgbo5J//pt7ycGtu9Eur6X1Jw6gbE//1GgGJExdV7D+SfCi4euQ/FsfxhfWh97rpfecNZGYLICtFitzD+c0NaFG6a5p7I3tEZ1CLD1gzkwWQIE5ckOTa9j+xCg+7DZ2wkyRydw6M+/CIV6FSytftXno+M4nAOyAplXUQ/X7LG2hAA9jpGdrAA9Drz04hQJHDrInyJj+nw9AszN63GjFgSOgcDBP//FttCWr2UcA9QNfUjbc1n93IBpp2wE6E64JlsYATrZocGxuRI4eJCfKyj8PjgB5ubBkdMgBCZDgM//ZIYCR/ZMgLm+Z8ADmEeADgARExCwBLjwWRocT4kAc3NKo4EvEDgsAT7/h+VNa+MRYK6Px37blhGg25KiHAR2ICAXP14wmNoc2GEKUxQCEDhCAlO7JuEPcXIfc+AIP7pH1yUE6NENKR2CAAQgAAEIQAACEIAABCAwTQII0GmOC15BAAIQgAAEIAABCEAAAhA4OgII0KMbUjoEAQhAAAIQgAAEIAABCEBgmgQQoNMcF7yCAAQgAAEIQAACEIAABCBwdAQQoEc3pHRoCgRefPHF8JWvfIUXDEabAzIH+YMABCBgCRCbiMvHdm9CrLOf8PkcI0DnM1Z4OhMCcjF86623eMFg9DlAYJ7JRQM3IXAAAsQm4vKx3psQ6w5wARm4CQTowEAxBwGCPEF+KkFennTzBwEIQEAIEJuITVOJTUP7Qayb3zUOATq/McPjiRMgyBPkhw6u17VHUJ74xQL3IHBAAsQmYtN1Y8nU6xHrDnghGagpBOhAIDEDASXQFuQ//elPhw996EPh4cOHjW2ZUv4XfuEX4tPpZ599Nh6/9tprjXKHDAB9/h7SD9q62Q0TQVk/lbxDAAJdsekd73hHsK/z8/PW1VKJT7acxC0bq+RY0qScvXb7ek899VSRb8tuOpYYKrHU+mGPJXZtsjFEvvqx7/a6mEofZDxlrGz/5VjHz95b2OO+/t+0XzK2Xf70tXvTPGLd/K5vCND5jRkeT5xAV5AfQ4BKMLhOsEeA3kz43TSYDlWfoDzxi0Wne1dhfb4Iq3udBciAwM4Eto1Ncv334lLSVNjo9cmntYmlNlsSk7x9tbnL+03F0i5t+bKHaruNqfqySVTafHus9dveN/Vrk522e462OdDW9k3SiHU7Xw5GrzCaAL26swyLxaJ8XVwOCuTyYhGWd64GtYkxCGwiIBdofyGVC3CXALVlh14BbQsGtr2u42397apP+vAC9oknngivv/56Y25JmuS1MScob/q03jy/EcvO1+HmUeemAvQyrBbLsH7Q3T+JjxKDrcglZnbzOoacbWOTFxlyLuLTr2x6seLFkrej1yhfT9N3fR/Kzq7tSvlDte2ZWl+7+GqZTflazr5v6tcmm233HH19sG3rMbHuGK42m/swrgAdWHD67hJMPRHOD0FALtB6IdX3PkFnL+gqQD/xiU/kbSw+6MsFXre4yLG2IeU+8IEPxJfcLPzO7/xOLvfRj340CmBrS3yy9dWOvFt/1b+PfOQj2Z6tJzbVH/uEXOspDx+ExIbYlDoqzq0tsSl+iD8aFLW85Pkn6NKO2JI864fUl7bUR+u77fOUjyUga7+sCJVj7XObCEWA7v8THwWoiWVR2Jnz63lwGAG6vFiFpRHMxMzrjdZcaum12F7r7LVe032aP9dy/t1f4/vq9eV5u13nGhfElpbRNL3m6/W+K7ZIuo0lWl9tdsUVX07b13dbT67d6ofW64tl1leJjeKfpKltfZc2JK9tXKWMzbfHmqexQ+8bpM/qn9yDiG3xXfno+GosamtX+ql9VT+1nvRB6kh70i+xo2X0nVg3l6vJzf2cngB9sA7LxSqsqqeziyqQx6BerZjaVc0YMCWI6mqqBtN7q2J1VZ/yWjtqO4T0tHh1Ua3Kqo2b88XCCRJouyj3BVsbGDTw6AVczq2YsnY0UGig1LryrhdzGwyknNrVuras1pF32474Jz5oXT2XuhJYJJhonyVNxaTtl9i0QUjOxZ4GNs33tjRf/fXn6pO3LX5oWdsXtaPMpN05vKzQlLGQ87Y03xcE6P4vQF6ABok9VQwp41O1Imljk4s1RXwyq5OSrjEsBC9O03neUXRxGUo7q9C2tyj6ducqllXbmhapWT8XdjdRipfL83oH0+qe9cGtvBZ22n3Z/yjRghDQ67S9Tsi1UISAfem1U8vJdVavtZrW9u6vw3317DW6zdY2aW3Xc03TOCR22uKU9tH7bOOWz7M+azttsUTzpLy0b21qnrav58rXt6njo7YsF7GrItKOn5a17dpjbVN9l/JSX841r8s/a8f6osdtYy521Z76rG1rPX1vi2ttaVpe34l187vGjStAVTTG9ypoRQFqg20IMcDnQF0G3xhoe/KsWPU3ClI3BV4JqDbAzm8g8Xg6BOQCqxdFfZeLrQ2Imi7v9oIugcAKTg0GNjBocJG6cqx25Vgv8mrfBgNpRwSeBDh7rGXtu/XX+idlbIDUYw2e1kZfPSlnfbP19Fh80P5YDppv67f1XcppvS5mamsO7z4I642HCtK2PhCU939daIsr+nCzjE8hhBjfaoFm626KcyoSvQCNbeQV16uwvpAtwNttwY3xUXyygrn1ayvWXoqX2Z8oMOs+iT857lYPlLMAlrLZ1/2PDS2UBOSa7K8T9lqveXK9tHHIXmuljNjR648IF41BGg/0euvrqX1577pm2zKbjvX6Ln3Qsm1pmqfvNrZImvVT/JJzSZdj7Zucq21J12Pbttr371JeebbV8+1r3BM7nqm17WOszZNjm991LOWsT/ZY7Vn/rB3Nt+9S1ophOda+S7lN9aUMsa783B7r2bgCtC0Q+YAVQvGEVgbCBu0i2LmybXn5KXGxmmqD67EONf06FAG5wNoLshy3BXktYy/IEqhs8JEyckGX+hqI/MVdy3fVlfpiRwOLlJOXpqsf9t36a/2TMuqH2LDn6pfa3VRPymlZsaP+qZ33v//9mYXm2WBv61t/bT/UV7Wp78rMlp3DsQ3M0hcJ7JLW5TsCdP+f+hiP7MNUE9d8DIqroyY/CdK0Kihls6hzq5zdefJAthZ/dW83xzTrm9q3aSp065ip7TjbIirzQ+AyPsf+WjZybMrW/nJ0CALbxiZ/ve26vsp1x+bp9VZjg83z16iuPLWh12op5+vqufdT0vvS1KaNLVJHuOjDWYkr1n+tY9/Fp7Z21C95FztaR+KNvKSdtnp9sUzLq0+2DR9jbZ4c23x7LLZsDNQ2uvpl/bN2fHtybsu25W+qr3WIdYe4IozbxskJ0PxktuDuAmqRxwkEdiMgF1i9iOp7V7CVfHtB3iYwtAUisePrSpoPBuKHpnXZkXrWX+uf5OkNQlt9KSuiSPI21VM/xKa8vP/23AZILW/r27KaL+9aT/Jt+pyPNTBvEp/SRwTobp/d65S2D0R9/VLQhTBVARqF8Pk6rM3qpfher1baGGmPqz4ZUVnwcOLU8+H8sATkmuyvffZar3l63ZQ8SbPXdS2j77a+jw0+Bmgdb1/Td31vs9OW5uODP9c6n/3sZ+OKp/RDfJFydgXU+qd1lJHN8/225231+mKZZ9rXjs2TY9tu17GUsz7ZY7Vn/bN2NN++27I2XY831ddy8k6sO+z14dCtzUKAxoCWA1xzC64VlfokV0D64J+eVJvvoDxYh3X8mXsXUA89CrR3VATkAmsvonJsg7TPsxdkCXjy1FSDmpzb7SvejlzsNUD6oCrt+GAgbYk9a9P74/21/kmeDYhtefo9Ti1n+yJ9Ez/bfLN91SCoT2n1XG35+tqW2rZ+9TETO3N8SWCW1ybfEaD7v7QUgss152PQxi24eXVUYlK9IlrYibuEyrxaKF5jC27ls7Qhq50aT5ttXmMF1PkaV+GkQzAAACAASURBVFXv5A25jhan+yYg10V/zfDXR8m312ItL+V83JByck3XGOSvw1JX6ul1XG1JXPJpmrfLe1tcaEuz/dF83774aWOv+OH7I/yEgdhTO1LP+2zLSZ70V9m11bNxWttUu8pY3tvakX60jauUlXTNt8feB21D2vR56r/46G16f3zZtnzrR1u+TyPW7fuqMJ79WQhQwaPB0QZITdeAqed5G1MV/KSOplk7i/wz9QjQ8abg8bXcFgw0uEmAsy+58NsLspxLwNj2V3BtENW6EsD0Iq6BRW8QNLjouZbz7+KvlrH+STkNkGJbzrUN7ZcGTsmz/ZZf/RObWs8GXSmrvokdCdbyNFqDp+ZZ276++Cn11A9tR2xLWU23zCTvmF8I0P1fX3YSoOJO/M5k9QM++cGqZJQ/5CM/8qNxKwlXrbMKK5tX1KsFZHrgKnXMQ1eDoxCYkl7FyxxPTfxcnC/DsiteulXOBg/bXyNwjSscHojArrHJXxv9NVauqfY662OD1vcxQsWM5l/3vS0u9KW1xRZt28c5m27jisagtna0jrzbmKOxTDi01euLZfJAV16Ws7bT5XNbvi9rx1Jjs/Rtk3+a78de2/R90XR9935o+k3fiXUHuogM2MxoAnTAPmAKApMiIBfYm15M91lfAoQG0X22g+3xxS1BeVKXBpyBwKgEph6biBnjxAwVlW0idy5jQqwb9dJyrcYRoNfCRiUIdBOYcpCXJ9S6RXYugQU/r39TQlDu/pySA4FTIzDl2MR1/vrX+V3Z+fsAEZ66RXhXW1MpT6yb39UMATq/McPjiROYapCXICPbZlj9PFygHzs4E5QnfrHAPQgckMBUY9PY18lTbF/uA+R+QF9zXv2U8SPWHfBCMlBTCNCBQGIGAkqAIH86Am/qNy4yF/mDAAQgIASITcSmqces6/pHrJvfNQ4BOr8xw+MZEJCLIS8YjDUH5GkwAXkGFwpchMCBCYx1TaJd4uE+5gCx7sAXkAGbQ4AOCBNTEIAABCAAAQhAAAIQgAAEINBNAAHazYYcCEAAAhCAAAQgAAEIQAACEBiQAAJ0QJiYggAEIAABCEAAAhCAAAQgAIFuAgjQbjbkQAACEIAABCAAAQhAAAIQgMCABBCgA8LEFAQgAAEIQAACEIAABCAAAQh0E0CAdrMhBwIQgAAEIAABCBwNAfklUvnlUF4wOJY5IHOav/kRQIDOb8zwGAIQgAAEIAABCOxEQG7Ur/v/LFKP/0N0ynMAEbrTpWAShRGgkxgGnIAABCAAAQhAAAL7I4AARUROWUTexDdZzeVvXgQQoPMaL7yFAAQgAAEIQAACOxNAgCJAbyLyplwXAbrz5WD0CgjQ0YcAB06VwLe//e3w1a9+NTz33HPh8vIyvsu5pPMHgS4CzJsuMqRDAAJ9BNoE6LPPPht+4Rd+Ibz22mtHuT334cOH4UMf+lD49Kc/3dq/p556KrzjHe8IwsEKLOEhXM7Pz0MbN1v2Osfij/gl/okP8tpkR/wQn/bhz6a2p56PAO375E8zb/4C9ME6LM/X4WqafHu8ugrr80VY3espQtbREviLv/iL8Gd/9mfhwYMH4bvf/W74/ve/H9/lXNIlnz8IeALMG09kDueXYbVYhcubumpjnRwPYTMM5NsOfbu8WITlnfEjtvhxavG3TbjsIkCtaDqkIFEx6EXiNj5sI0Df//73NwSgtCXCFAE6j1VjBOgOF+GJFB1HgHYEz6s7y7C4uHGY3hntpoAY/VoswkJfgwjemwpQuXFYhvWD7u5Kv8RnG2Q39bXbGjlDERARIRdLEZ3y+uY3vxmFqLxrmuQjQocifhx2/LzRuWLfmTeHH+tGfHDX3K086oiJnXV3LV8ZOlyMlfhkYqZhMpUYJH7Y2NjJ+ogyEKBNMSUrjx/5yEfCBz7wgWIVWMS2pO9rxfE6Yv5UVkCfeOKJ8PrrrzdWhCVN8toePCBA53ehGkeAhjbx1ZZ2GKCbAqIP2lL+5kL5pv3dToAuL1bFCvGmvh6G+Om2ItsnZYVTRMMbb7wRvvSlL8Xtt7IFV15yLumSL+XYjnu6c8X23M4bKzjbjpk3ltz+j318CHFVcccYsaug3LV8haHp6z74JPFZrnJehlX14HYqMUj8QIC+Fbee6hZcXS0U4SUrf7ICqHm6IihpunVUhIBuYZV0v43U1xFbkqbtaF2tp+d25VHLSpq8pL60K2JMffSrlDZPhKW8RPC1CRdp8/d+7/din9S2tCkMPvvZzzYEqPVR/Ra7Ulf6J2zUV9um7Yf4K/aVo9ixtmwbtm+nIEBFYOr4WxEqxzrebSIUAbqPa/l+bY4kQENoBEIbUO+t6tXGhd2uk0TX6mKZ8iWgSb28IumeuuZ0bW9lnspWW6JcW20BqeGr1LHBVERefNpbrUjGvujT33LrVRSv5smwtidt2IDtg3RR73wd/rBa3UyrsmUbOmXUhrxrO5oWy7i+N9o/rziLvxeXacwq323ZUNhp90V9OvV3+Y6nbLMV4eDFpxWhki/lpDx/ELDzpk102jTmzWHnSyM+xObtA0I5rq+L/lp+VT2QLXfYbIh1McYsw/Jc40x9jQ9FTAwhXp81VprYk67hpW+xbi5T+5z62BI/W1C386gLxhiUY+Yix9LgORhmya9VWJm4pzGtNy+EUPA2O6wkPduo3TvqIxEwXoSpcJJtriqSVHTquYojv2pnz7Wsii6/bVbSVUBqWRVgKuDsuRVl3pY/b+uD+iF50q6e+/5LO5InL+2ncBKB+PzzzxcCVMqoj+qD2vXtyLkVj2111Zbtq9TTdPHV5p2CALVCU/jJeVuaH0cE6PwuXaMJUA0auuG2O2j5QG4FaQjRjhGadghioKu+axLtm4Bm8+yxra/H3jcpryug8bhoX/w1gc2I1Wgnly1XQCXPijrrU1lPAqrcGFgu6mn5nm2YG5KcVhaVMF1s6Y39ysE69Sn7Z/rkxzHe7OR6jUZOPkF+cEi+8ynbbVVwtr1LvpST8pv/0vjkG9jqgUGq18zL45gNuzJ5jmqBNFfb7bsbPGm7UV/t8H5dAjpvrNDsOt5m3sTPt71OVTfqOjfiNScLkUrknK/D8/I1CZ9enZ/azbyOZWTVuObZ67t8vioxZ6+dQR6MrtN3Q6OgrAWfrqLqeMS2zHU8XXfNVzDiQ8Cqvi0nFU2bTV+Nb9XKbR5HX0/74OaKctD37hiTSsS5l68RlpNaSO+Fr5FPe1xNLNrzChuV39o/8UOPy5aP92xbAaqiygsgK6JURIpgUjFgxZMcq5CVfBVskq51bTtqQ941XwWhrSv5th1bXtK9SFNbXW1JG5KnolPKy7mkW1ttdqScikXf313qWpHZx8HatOWO7dgLTl35VEHa1l8E6PyuW+MJ0CIYSBAywbTxJFTzJFjqcQXbBdsYcMwNkgZwH4jkXPM2BUxvU8WneNCo6/yxwq4MeGXgtf54u2U9nWQtLDSrere+qQ2b1nziXLMty7m24s2AuaEyvOPNab65cA5xGkWnCAdZpWoTnpqmq6Ry3vvnb8xiYft5cmPnHjToja69EUvzvb4ZLueCNHAV1hfph79iWXfznR6Q9HpN5o4EZB50Cc629E3zJo5pz/b8tnEtXS6vX2XeaZ21s7J85DNoxGG8Xtafr0jLXlNjgv/cuoetfeUlz16DvZAsPq/ON1vPXCt8H+Vc46cf7eb1oizh8+U8X3+ikK5XdXOs9f21fezJE9v+gYn6XbRbuni0ZyJg/M27FU5tIsuKIyu4VBTqdlN9V9Fpy0qbWl7aa2tHfLNCQ+xI276unIttbc++S7rtj/ZV7Eientt3zRP/ZKuurHqKqBQ7VvBZ/7W+7aNvd1NdKa/i1TLu42Btqg/H+m5FqIxxn/gUBgjQ+V22RhWgebXMBpNK1OXAY4KgFXMZta0bg1cd2G2g6wugtly2aw58XZM1GwGqK8Vr8wuEMTjnm5HyhqdkUuYVq57m5sZy4bidgK5kDbUCWo5TW5tu7KqHO3rD1z637c2zPW7a39x+sw4puxPQedMmNn3atiugciMu46dzwY5l+7ywfvfPC1vy2I/bWdnPnRzXcSnxkDQRR9VDPy+iirhXEbSxrq+8LSdVzTW66avxzdczPvh6cq5Czo+vL+vz7TyTvDwHY5/qh6CFHd9f62tPnm/L+pLbtYlHfiwCxgsWK5zahKEVR1ZwaVmp723KubUr51bAaV0rCm07Ut6e27pqW8WbnNuXF2ltbdny0o76Icey9VZ/kMjaarNjefj+7lLX9tUei5/23Nq0fTjWYxWhm8Sn9B8BOr+L17gCNAa4VVi7YFYEjSIo2aBewbaByARaXd3TIFkEs7j1qQ6gRXstY+jr2iLNuunGQm/quoN/Wa5sI+UVvpsn0ztvwa0cFl/labDaLXwvOPuVXcfdBvx4XN/ERu53NqzaWYAndmy/y3fz74BuIwJ6xq5tBd/MFZ0ncQ7rKnd+YFEVrMafle/9TmQ7b7zg9OfbfAc0f/Zl/KprS06rro9+5ajcWr3N3Nsvk6lYL6/d4lV5/U7nSYBK2Rwb7MMge02NHXOfW0kzY1U8BNTx0hjhbMXrfpXX7quK4+R39s/EU19PzvP1oTEQvv8Vk5Z5FnP0IUib33q9cXl9LGxe9NuK/wfrsK7+6zPhkvva6MNxJoiA8WLFCqc2kWUFkBVcYsefS1kVhl40SllZyZL2utrRuuKniA6xJ+14W/5cy1vbWlfzpH3fdzmXcpon9cVHW1dWYpWb7a/6YOvq6q/YlTq+ruZr/7W/0p62Ke+arr5rnrfZ1p9jSxMRKq9N/UKAzu+aNbIA1e+P1U89I8IYbKqtM+fLsNSnxOaJbEYtZTXwFlt30w80aJDsDaCmvbaA5Ovmtrtu4I29hQ1+Lf7V7aWgnW760o8tqO/SXryJcCIgBVfhpDcQ1jMvIqsbGCNA001MG2df190Mxf6ZNuVGRX2z9kt3OAsh/qrtcL+C60WAnUP6mbJpzbliRYcdoL70LrG5aT5a+xzvRmDoX8G14yvHch2yaX3XvOS5n3u79eeYStfzvrqWuu/WWgFaXHPlmqkCy17jYzxz11wBZmNdEWPaP9d6TV5d1D+ap+JY8lJ8kXbMtbywW6f7+SDnNj41x9Nfd/R6VM4zqafzT4/V76X8CJ7y8TGnwaL2teBkucYYVfpRx99mD44xRYWUvZnfRYCqIFIhJXZEHOk2WJsueSroJP8Tn/hEFGRWJKp4k7JqW8qKANNfphWxZtvROra81NF0KaviUNLFJ7Fn86WMvsR/zdN64qPkSxtSX95tebErLxWGkmc5bltXhabYUVu2X55Dmz/q16m/I0Dnd8UaXYDODxkeQ+BmBPz/5yjbcWXVSt51NUsuptv8P6BWNNRe2ZtXf6w3nqm0v7GsUsP6vG91wNqsW92uri/P+bYE/LzRuWLfrzVvqpt5uz2/fV5YTxGglgbHEJgDASukDi1YRNzJ1tYxfTh0n2mvFvr7ZoEAncMVqPQRAVry4AwCByEgYkJWQkV4ynf2RETIu5xL+jbiMzparViUT/KtQLTHUkPOrbj059V/WZRXRSTfrC6IibwaISKkXlFI4Hx7KZV/hyEw1LzxDy7kvF4V0/+2qm8rPQJ0mBHFCgQOR+CQ4k/a0u9SiviQVUa/QrpvUYL9wwnAsVkjQA93HRmqJQToUCSxA4EdCci2Svlun/zAjPxqqbzLuaTv9pdEpG5ds0IiCU4nEivRWm+hc/XzlvbkRVwNM1usiy3fbvt1/lGV3TpA6R0IDDFvvADVraE6J5pj7v97HQToDkNGUQhMgsAhBagIEtlWqttV5Tudh25/bFFE+4cTwAjQSVxidnICAboTLgpDAAIQgAAEIACB+RFAAB5OECE+D8ta5jZ/8yKAAJ3XeOEtBCAAAQhAAAIQuBYBuVHnBYNjmQOy8on4vNalYPRKCNDRhwAHIAABCEAAAhCAAAQgAAEInAYBBOhpjDO9hAAEIAABCEAAAhCAAAQgMDoBBOjoQ4ADEIAABCAAAQhAAAIQgAAEToMAAvQ0xpleQgACEIAABCAAAQhAAAIQGJ0AAnT0IcABCEAAAhCAAAQgAAEIQAACp0EAAXoa40wvIQABCEAAAhCAAAQgAAEIjE4AATr6EOAABCAAAQhAAAIQgAAEIACB0yCAAD2NcaaXEIAABCAAAQhAAAIQgAAERieAAB19CHAAAhCAAAQgAAEIQAACEIDAaRBAgJ7GONNLCEAAAhCAAAQgAAEIQAACoxNAgI4+BDgAAQhAAAIQgAAEIAABCEDgNAggQE9jnOklBCAAAQhAAAIQgAAEIACB0QkgQEcfAhyAAAQgAAEIQAACEIAABCBwGgQQoKcxzvQSAhCAAAQgAAEIQAACEIDA6AQQoKMPAQ5AAAIQgAAEIAABCEAAAhA4DQKDCFAxwgsGzAHmAHOAOcAcYA4wB5gDzAHmAHOAObBpDmyS2mebCpAPAQhAAAIQgAAEIAABCEAAAhAYggACdAiK2IAABCAAAQhAAAIQgAAEIACBjQQQoBsRUQACEIAABCAAAQhAAAIQgAAEhiCAAB2CIjYgAAEIQAACEIAABCAAAQhAYCMBBOhGRBSAAAQgAAEIQAACEIAABCAAgSEIIECHoIgNCEAAAhCAAAQgAAEIQAACENhIAAG6EREFIAABCEAAAhCAAAQgAAEIQGAIAgjQIShiAwIQgAAEIAABCEAAAhCAAAQ2EkCAbkREAQhAAAIQgAAEIAABCEAAAhAYggACdAiK2IAABCAAAQhAAAIQgAAEIACBjQQQoBsRUQACEIAABCAAAQhAAAIQgAAEhiCAAB2CIjYgAAEIQAACEIAABCAAAQhAYCMBBOhGRBSAAAQgAAEIQAACEIAABCAAgSEIIECHoLiLjXursFgs0uvicpealIUABCAAAQhAAAIQgAAEIDBrAnsUoJdhpUJL38/X4eqmuB6swzLaW4V9ybfLiyQQl3c6vLUisurb6t42HVMm+/N9Gy8oAwEIQAACEIAABCAAAQhAYAwC+xGgrSLxMqyORYDGkbqGmFQuQ3AYY7bQJgQgAAEIQAACEIAABCAAgRsQ2IsA1RXEvlVBLaPbUeuytbBb31nm7appNVLzqi2ssvoo21iNsFvH1ctlWD8IwbexWKT0zKuxkrkKnzFtJt9cnVxZfbGrmXXaNr5rn72fmp6b4gACEIAABCAAAQhAAAIQgMAREOgVoM8880zY5ZV4XIX1uQjELuFWC8MktHx5FXGLEEWnistFJfT8uTSa01SYtrStYlNXH/25GUwVhJ1bcGNZ9bNNgG7vu7bVziI5tcsYUHa3OQsveDEHmAPMAeYAc4A5wBxgDjAHhpsDRla1Hm4UoK21ehNVmLWIwFivmX9VrTqWq5wq7LT8FgJUxaX61xCmi7CoyqjwaxOZfXlqOgTnV9G3bX1XGzWrkkXdGkcQgAAEIAABCEAAAhCAAASmTECE/Ka/PQhQv8LpXVDRpSIthFJ0+Xx3nkVlXT+vgBYCVOtV4k7rTVKA1n0pWXh2nEMAAhCAAAQgAAEIQAACEJgmgdEEaBaEum028ql/hEhXGNu3napwVFG26dxswbUCVAWn+qDnWqZnC+52ItD7JZ30ae5cfVCfpEb1i7vtLKY5sfAKAhCAAAQgAAEIQAACEICAJzCeABVPstjS72XW218lW4VX348Qpf9mxYk4X9f9CJH9j1N8G7EtFaDihIpQ/W9iVBgWvtfbYzPgRr1FSALS++rOs10V18mi9zPZyq1xAAEIQAACEIAABCAAAQhAYPIExhWgk8eDgxCAAAQgAAEIQAACEIAABCAwFAEE6FAksQMBCEAAAhCAAAQgAAEIQAACvQQQoL14yIQABCAAAQhAAAIQgAAEIACBoQggQIciiR0IQAACEIAABCAAAQhAAAIQ6CWAAO3FQyYEIAABCEAAAhCAAAQgAAEIDEUAAToUSexAAAIQgAAEIAABCEAAAhCAQC8BBGgvHjIhAAEIQAACEIAABCAAAQhAYCgCCNChSGIHAhCAAAQgAAEIQAACEIAABHoJIEB78ZAJAQhAAAIQgAAEIAABCEAAAkMRQIAORRI7EIAABCAAAQhAAAIQgAAEINBLAAHai4dMCEAAAhCAAAQgAAEIQAACEBiKAAJ0KJLYgQAEIAABCEAAAhCAAAQgAIFeAgjQXjxkQgACEIAABCAAAQhAAAIQgMBQBBCgQ5HEDgQgAAEIQAACEIAABCAAAQj0EkCA9uIhEwIQgAAEIAABCEAAAhCAAASGIoAAHYokdiAAAQhAAAIQgAAEIAABCECglwACtBcPmRCAAAQgAAEIQAACEIAABCAwFAEE6FAksQMBCEAAAhCAAAQgAAEIQAACvQQQoL14yIQABCAAAQhAAAIQgAAEIACBoQggQIciiR0IQAACEIAABCAAAQhAAAIQ6CWAAO3FQyYEIAABCEAAAhCAAAQgAAEIDEUAAToUSexAAAIQgAAEIAABCEAAAhCAQC8BBGgvHjIhAAEIQAACEIAABCAAAQhAYCgCCNChSGIHAhCAAAQgAAEIQAACEIAABHoJIEB78ZAJAQhAAAIQgAAEIAABCEAAAkMRQIAORRI7EIAABA5E4NFHHw28YDDHOXCgjwjNQAACEIDAhAkgQCc8OLgGAQhAwBMQ0cEfBOZKgPk715HDbwhAAALDEUCADscSSxCAAAT2ToAb+L0jpoE9EmD+7hEupiEAAQjMhAACdCYDhZsQgAAEhAA38MyDORNg/s559PAdAhCAwDAEEKDDcMQKBCAAgYMQ4Ab+IJhpZE8EmL97AotZCEAAAjMigACd0WDhKgQgAAF/A3//qVvh7OzMvW6FJ19qYfX0bVfudrhbFLsbbp+dhdtPF4kh+HqPlbVc6Xh69zHvk5yX7cUy3tZLT4Zb0p+Y3u6P9rn2M5VLHMo2QrB5yadbT91PLmtbjl/O147Zco88GaraKbdg0+SuvkbffF21X73HsrlM5bfnE+6HJx/RMUrHzfE3/VTfs9260exbo426zNBHfv4ObR97EIAABCAwfQII0MmM0VVYny/C6t5kHMIRCEBgggT8DXwpWpLDSViUQiyllQKpmdYUfG22krgs7XtUbeIyphkh1CyT2q8FYNOfJIbLflg79jj6FAVYh68xr7QVKsFWi9sk8pJP9jiEVLau32AVxam2XYnFHrEX62c+lQA9q+1Xo2sEqKXufNOsqo+3Hmm3E8Vrj09qZqh3P3+HsosdCEAAAhCYD4GRBehlWC0WYWFeNxJgD9ZhuViFy0H5i4/LsH6wwWhs2/ZlizqFSQRogYMTCECglYC/gS9FS1XFC6uGqFLTXrQ4weftaLVqFa4WijkjHzSEoOQUgiyEskybQGvzR1f/tKm2Mir6qjazqNM61Xtr/xwTX0b6sKU9Pzb+3HkTyvzULxGOZXvJv1ogqxXntyZH/2+H24+dhXK8xH5KT6vNWmG/737+7rc1rEMAAhCAwBQJjChAk/hc3rkyXC7D6nwdbIrJ3Hw4lgCtxGchniXtYhcpjADdPMCUgAAE/A18KVoSH5/mz7splmKur15fntgvxWVq0afZ83jcEHbWn0qQ6fZZ7YQXiO48+tm1wufKRpM+zYlmL6LVDXlvMCnqdghEY6Csr333/b6eAL3rhbOcP3a3dZyMS4Mf+vk7eAMYhAAEIACByRMYTYBe3VmGRa9AS4JMV0ezuKtE5uqiXm1MeWX5RSVkLy8WYXmxCsu4yiqrkm7VtRC8zsbFZZD66sOiY3U1tlEIaTfu91a1jaK94OyXW3CLtntZufY4hQAEjpaAv4GPosV9h3Gr71q2ElLRkzKtQGwUL8RVIzcJG++XE5hqP/XBrFpmc+pPEl2tK3VRMNq6UqfebhrbsH5YH2Ld5ndVi9VFL9wa7elW3GSnqCv9MG008nI/00G7APUrx9cUoPG7sCUX8UfHwLmyt1M/f/fWEIYhAAEIQGCyBEYToJtEWxRfWXSZbbB+tVHEnYq6SpzadcdoR/NbhsH6UbZ5FdYXshpr2m6pH8KGlcvoU70d1wrveJx9K+3YctKs+JZFeKsfJEIAAqdAwN/Al6KlIhDFYSk2CvFmRFH54zgq+JKdXnGyjQB1K49eaNbi8Fa49Yj+8JAdxeRP8vFW/HGihohrCEIrQL1wdeexbs2p6nX8Iaa8XXUbAaouV1zVx9b+OiZaVd7Lsewai+sK0CQ2k281o94xts4NdOzn70BmMQMBCEAAAjMiMFEBKmKsFm3CMwtFLzLlXEWcz7P1zKBEcWe+d5q2ATfbTFVuKEBFIGchHUIwPpaishSgUQwbH2UVttyubDrEIQQgcDIE/A18KVoUQxIpKqLay6SyZV4peso8td2sVwvJs/x9xXZhU9pP9SoBWIk39Tm1ksrrdyCjP2Z1M5bxItKfl26X30PtKFv02wttf+7s1/0ux8D7mvqiq69pBbdot/r1XhWzupJ6++nrC9BoXwSwEdW1v64jezr183dPzWAWAhCAAAQmTGA0AepX+EpGTTE4mACN22HrHyrKduNKZil6k0+bBKgRx2Un0tkNBCiCsw0oaRA4bQL+Br4ULcrGiZ9K3GUxo8U2rLr5X3mtqzn7dUY+ahc2LQLUrghGcWdXJMvyYjzatdto3dbS5LPdkptdSgdGfHX1r2Aa2Rl7tr4zHYofZ2ph1CF41UzRrhegeaxuh9v5v2HRmvLe0p4kW/+rY/uDRO3jZO0Oe+zn77DWsQYBCEAAAnMgMJoADXFrq1/Vq3+EKK4A5pVDIwLNCmIEvOsKqN2yW22fVaFXtrntFlxd1XRbZMUv8T/6WwtbK7ztsfLQbbZplbYWymJnzX/RMofPFD5CYK8E/A18KVqqphtCrtre6VcPY7l61VL/z0wrVKP9tv+/06X5TrcJG2+rrUxMy7abAlR9tFuKrR17HCOKBAAAIABJREFUrGXr/iR7eZW1VRC6MoWwcyLP13fcW/tbiOeSWjmWbX1P7cuW5LpPasP5pslWgFZ9OTPzoOSllfb37ufv/lrCMgQgAAEITJXAiAJUkIiwtD/yUws1/W6l/gCQCjO7hTVCtQK02nIb61TbcusVTh2CtNU12V2G5bkVwTavTk9iUPw0glDN6XsUmrYvpmxcda3ydLtwrGfbS77kftq+5B9Q0sZ4hwAETpWAv4FPIke3ctbvTYGiq2F1maaQaRM9+iM4pp5dtewYiCQkTZ34Q0B2dbPrB3CSD+mHlDb4k/3QOtKeWa2Mvtk89z3TKM68j66M2LDlvIBUEV/90JHnXnDwdR27zQK0HgvfzlYroHkV9clwv2obAeoGgVMIQAACENg7gZEF6N77RwMQgAAEjoqAF6BH1Tk6c/QEmL9HP8R0EAIQgMBGAgjQjYgoAAEIQGA6BLiBn85Y4MnuBJi/uzOjBgQgAIFjI4AAPbYRpT8QgMBRE+AG/qiH9+g7x/w9+iGmgxCAAAQ2EkCAbkREAQhAAALTIcAN/HTGAk92J8D83Z0ZNSAAAQgcGwEE6LGNKP2BAASOmgA38Ec9vEffOebv0Q8xHYQABCCwkQACdCMiCkAAAhCYFgG5iecFgznOgWl9kvAGAhCAAATGIIAAHYM6bUIAAhCAAAQgAAEIQAACEDhBAgjQExx0ugwBCEAAAhCAAAQgAAEIQGAMAgjQMajTJgQgAAEIQAACEIAABCAAgRMkgAA9wUGnyxCAAAQgAAEIQAACEIAABMYggAAdgzptQgACELgBgTn++Aw+86NJMgf4gwAEIAABCCBAmQMQgAAEZkSAm/gZDRauNggwfxtISIAABCBwcgQQoCc35HQYAhCYMwFu4Oc8evjO/GUOQAACEIAAApQ5AAEIQGBGBLiBn9Fg4WqDAPO3gYQECEAAAidHAAF6ckNOhyEAgTkT4AZ+zqOH78xf5gAEIAABCCBAmQMQgAAEZkTA38DfOjsLZ62vW+HJlw7UsZeeDLfODtDe07fD2dntcLetW9GHNhaVX7auPW6zldPuhycfOQu3nrqfU7Y/uBtut43LI0+G61jbvt1dS96kj1u09fTtopCfv0UmJxCAAAQgcBIEEKAnMcx0EgIQOBYCnTfwhxKBbSAP1XafcNzkg61rj9v6k9P6xdn9p26Fs05BmQTo7aezsRBCsnf2WKuEtgXbjzf1sb1WI7X0u7+Pjco7JQgDBOhOyCgMAQhA4AQIjCxAL8NqsQgL81rduwH1B+uwXKzC5Q1MNKuKj8uwftDM0ZTLi9QH67ukLe9caRHeIQABCAxCAAHatwLaswq7tei0w9QvzkohZ+vJcZsADSFcy4/K9l4EqPd7uHPh41ePO+fvcM1iCQIQgAAEJk5gRAGaxGcp0i7D6nwdri3bRhSgy4tVWBrfEaATn/m4B4GZEui8gW8VJ0lA3X5Mtq6eBV15u/uY3apai7aYblfnvM14rnXresGX82yj6NJ6dktrJfAeux3qrcSlwLS+pn6U+bmprXyo6noRaP177HbcOptWLlWAPmm201obVZ9aV0G3EKDR59vhdjUeulpq+6xjpoI2bbeu2UcRrFt9vR9t42X7GstrH+uNwe3th5DmR+Lj/cjjkA/Ebu2nJnfOXy3AOwQgAAEIHD2B0QTo1Z1lWFz0rVVehfV5vTqaVxcrkbmqVh1l9TTlleUXlRiMQlDEYVxllZVMt+pqRGMIzsbFZdDVzbRK2766qmJT3tVPTYsz6N6qWOWtRXdaXV0W/bQ+uJXXwk67L0c/Y+kgBE6cQOcNfKsAS+Ki2CYqAsQIlSQqqi2hTpiVK3xOUNmyrW3rQEk9I0RsPd2Smr/XWfmrIri3rNqv3guxVYtdFXXFymNht+yXCjorQOvvnZb+lXycP60roGX9JNytIA+htJl8y6uInnPRDxWIur237Jftf9lG8knbKPPK9pMwrccynpu5VBCIvjYfFnTO36IyJxCAAAQgcMwERhOghUBrISz5tUA122CjAK2FXhBRpiKyZQU02tH8jnZUEJZtXoX1hazGmrZb6ktS7ou0b4Vv6xZca0+OXV/Mdt9sVxrxfZN+9wr4DmdJhgAEZk2g8wbei5PYy1JcNDvuBJETTSIwCgFXiI1UN+a3tt1sTVKiwHGCU8WP5FtBbI+jNSe4ihY2+WDrdh1Hg1a4NflZn0qxVniTt+A2fiDKMmz43GyvaMOVF18suyRo7QptUwCKl4XN6iFAstPfvu17047rvzC2fa2yO+evq84pBCAAAQgcL4GJClBZBSxX/7IY80LMiL6GSLPi0IxhXH013ztNArTZZqpiBaMxYg6zb1V7sgpq0xorq1lkOttWTIcQilXiYvWzWhnuEdbGPQ4hAIEjItB5A+/ESepyU1Doqptuobz1SL01V+pEcRJXIEWI1QImputWT/MehUtr2wo9+aBC7NYjt8wv2Tb9q0VOM68QWGpe33t9cN+9NAK0FGNibFgBmgW8+mnfGz7btlPBwr+ifMlV+Z5Vq81FPdumjnEWh5Zzf/v12LT45tqIK665jTqzc/7WRTiCAAQgAIEjJzCaAC3EVQNyUwxmQXdTARqFXL19NduN229L0ZvcciKx4asTm5UgXpsfIZI26tVKa88eh1Cs5rYJUARnC32SIHBaBDpv4AtxokysuEhpXkT48yzyRKTpVlip2rGiFa22tl35YMReTCnO+/1r+FbUrezrW58PUsbW7TqOtqwI6/evT+SVQladdO8Nn5vtFW248sKnWAG15m0fbXqvAO1v349H4Ztro2u+dM5fX59zCEAAAhA4WgKjCdAQt7b6X4qtf4SoU7QNIUCzkEvftxxsC241TaLvi7pvtcjVrbQqdHcQoLHfZruuCOY7fd+hPdo5S8cgcNIEOm/gnThJkJqCIooIXZmKdcoV0PxfhdjvbUZjVpiFoCupG7fgRiGk3xtM/vjvVFoRVYicom61PdesyhYTobX/poQVZPa4WPHULcK69biDXyXMewWYs2s8qQ9bfC5tJuaZjy9f9EN911XrtvFK41C2UfaxzCvbL8amIWTrbsWj6Kv6Uud1zt+6CEcQgAAEIHDkBEYUoEJWBFj9Q0OLvDVV8pI41P+iRX/cp7HNtlpx1F/OVfGn3wstxF8cTGt3GeQHgFSA+jY1vd6yW6+c2nnRaKMSi1o/+azbZpdhmfu5gwCVBt023GzfOsMxBCBw1AQ6b+C9OIkUSnERk2K5+tdb77b8X5alCDE4bd0zs/rW2rbWU9Epbd4KTz79ZLiVxW3Tv1aRU235vRV/Lbcpaup+qdDVts27FWv2WIrE88Tk1lPpF2/T1tkN/mUebT45AWhcyYcd3CID3eZsV6HzjzapQFbRqT+65Pqf/Uv5eTtwThe/O/rY0n7r2OjDjNwpPRC7zp8QQuf81Wq8QwACEIDA0RMYWYAePV86CAEIQGBQAtzAD4qzxZgIx6ZwailI0gYC8iAjr95WZZm/G6CRDQEIQOAECCBAT2CQ6SIEIHA8BLiBH3gs42pgvYIZV3+7tvkO3PTxmxMxf7voJvO3wMEJBCAAgZMkgAA9yWGn0xCAwFwJcAM//MgVW15Z/RwW8NMI0GGBYg0CEIDA/AkgQOc/hvQAAhA4IQII0BMa7CPsKvP3CAeVLkEAAhDYkQACdEdgFIcABCAwJgFu4MekT9s3JcD8vSlB6kMAAhCYPwEE6PzHkB5AAAInRkBu4nnBYI5z4MQ+qnQXAhCAAARaCCBAW6CQBAEIQAACEIAABCAAAQhAAALDE0CADs8UixCAAAQgAAEIQAACEIAABCDQQgAB2gKFJAhAAAIQgAAEIAABCEAAAhAYngACdHimWIQABCAAAQhAAAIQgAAEIACBFgII0BYoJEEAAhCYMoE5/vgMPvOjSTIH+IMABCAAAQggQJkDEIAABGZEgJv4GQ0WrjYIMH8bSEiAAAQgcHIEEKAnN+R0GAIQmDMBbuDnPHr4zvxlDkAAAhCAAAKUOQABCEBgRgS4gZ/RYOFqgwDzt4GEBAhAAAInRwABenJDTochAIE5E+AGfs6jh+/MX+YABCAAAQggQJkDEIAABGZEgBv4GQ0WrjYIMH8bSEiAAAQgcHIEjkyAXoX1+SKs7p3cONJhCEDgRAhwA38iA32k3WT+HunA0i0IQAACOxAYTYBe3VmGxWJRv87X4WoHx9uL3lSAXobVYhnWD9qtS+rlRfLZilxJW965uffdrZIDAQhAIBHgBp6ZMGcCzN85jx6+QwACEBiGwLgC9OIy9yIKO3OeM3Y6OIwAXV6swtIIZgToToNEYQhA4AYEuIG/ATyqjk6A+Tv6EOAABCAAgdEJTEaAhnursKhEXRR0IvLiCmm1Iin5umJqxJ8QjOJV8xb1FlxJr1cqvThN59nmxaWzswq1PK7HScWmta1psZT1c2FXRtPq6vK8XvVd3bM+uJXXwk67L7VXHEEAAqdCgBv4Uxnp4+wn8/c4x5VeQQACENiFwGQEqIi4RbUCGo+tyHywDkuzNTZu363KxuNcthSZViSG0MzT9mLehWwB3m4LbtxuKz5Zwdy6Bdfak2MjiKPArEVnIWJjf43olLI3Xh3eZVpQFgIQmCoBbuCnOjL4tQ0B5u82lCgDAQhA4LgJjCtAzaqlFViFGBP+XoAZgbZJZLavgIoYrcVfPcRWMNap9sj6pm3bNBW6eWU1C2dnW/qUhXMIVlTH/lo2cmzKWn84hgAETosAN/CnNd7H1lvm77GNKP2BAAQgsDuBcQVox6peKeimK0BDtQq6Nj9CJL7XYtqKTntc9cmIyoYANXm7Dys1IACBYyXADfyxjuxp9Iv5exrjTC8hAAEI9BGYhwCNK571iqUVa/Y4xC209TbXQshGG2VeLRSvwnrXLbgV1Sg4zXc9m22q3zsIUOdrXFW90/aN1L6hJQ8CEDhGAtzAH+Oonk6fmL+nM9b0FAIQgEAXgXkIUPE+fmey+gGfYnWw/CEf+ZGfvO22EnJxO+z5KqxsXvWdUN0qq/+NShS0cfur+Q6moVcITEmv2tD6ep7aXJrvru4gQH1/jcA1rnAIAQicIAFu4E9w0I+oy8zfIxpMugIBCEDgmgRGE6DX9JdqEIAABE6aADfwJz38s+8883f2Q0gHIAABCNyYAAL0xggxAAEIQOBwBLiBPxxrWhqeAPN3eKZYhAAEIDA3AgjQuY0Y/kIAAidNgBv4kx7+2Xee+Tv7IaQDEIAABG5MAAF6Y4QYgAAEIHA4AtzAH441LQ1PgPk7PFMsQgACEJgbAQTo3EYMfyEAgZMmwA38SQ//7DvP/J39ENIBCEAAAjcmgAC9MUIMQAACEDgsAbmJ5wWDOc6Bw35SaA0CEIAABKZIAAE6xVHBJwhAAAIQgAAEIAABCEAAAkdIAAF6hINKlyAAAQhAAAIQgAAEIAABCEyRAAJ0iqOCTxCAAAQgAAEIQAACEIAABI6QAAL0CAeVLkEAAhCAAAQgAAEIQAACEJgiAQToFEcFnyAAAQj0EJjjj8/gMz+aJHOAPwhAAAIQgAAClDkAAQhAYEYEuImf0WDhaoMA87eBhAQIQAACJ0cAAXpyQ06HIQCBORPgBn7Oo4fvzF/mAAQgAAEIIECZAxCAAARmRIAb+BkNFq42CDB/G0hIgAAEIHByBBCgJzfkdBgCEJgzAW7g5zx6+M78ZQ5AAAIQgAAClDkAAQhAYEYEmjfw98OTj5yFs7Pq9djdsjdP367zYplb4cmXyiL12d1wW+2c3Q7OUrj/1K1s69ZT9+tqHEFgSwLN+btlRYpBAAIQgMDREECAVkN5ebEIq3vXGNcH67A8X4era1Ttr3IZVotFWN65juVU91r96XeKXAhAYGQC/gb+7mNn4SyLziQgrTiMojHn9ztvbdnjWOulJ8Ots0q82uN+k+RCoCDg52+RyQkEIAABCJwEgZEFaBJKi8Ui6AvRlOadCOJCfN5bZUaLi8t6ckq6Pc85wnYVTMmcwwEEIDBfAptu4L1wlHMrSLt7nsTr7aerElFk1qugUcg+8mTQdc/t7Xa3SM7pEdg0f0+PCD2GAAQgcHoERhSgbSt8l2G1l9XEmQ2srKoW4vEqrM+XYf1A+mGFpaR3i8yrO8tSxM4MA+5CAAJNAv038E5EhrQ9N4vKprk6xa9quvM2YVuvvNZmOIJAH4H++dtXkzwIQAACEDgWAqMJUBFH7St3ilbEVcvKaBRny7DMeSLM7EpqLchiG+fLsNQVVhG3HSuJxRZcW2ahwi8EKaMrtQsVyn4Lrq2rZUIIqb+ruK022aj91B7re5NNhwC9t+oXmN43bYB3CEBgtgS6buCjQJTvb5pVyhDsdzrTd0Q7V0PdimeqW39f1K947rK1d7awcXxwAl3zd/CGMAgBCEAAApMlMJoAbWwxdYii2MtbS0VgVkKwEqBpNbASdnm1MIlW3cabBKh+P7MStGoz2qlFYC1ATVvi04N1WMt3Q0VYFoJynba3WpHX5lvVXvQl+5nEbLHF1vS/9sUkGmGb6kl/av9NSXNoV0tNMocQgMBsCWy6gY9CVEVoFJVnIa+A+nNLAQFqaXC8JwKb5u+emsUsBCAAAQhMiMBEBahd8Uu0smB1wtGvFuZyedVRvwVZitO0lbVc3UzCtRKqC/ejRLFdWQF1os8KUBGJKnDFbeOr91POdxKgftLk1U+z+msEckWN74F6bpxDYOYENt7ARyFZr1z67vqttDnf13Pnvp4/z3Y4gEAPgY3zt6cuWRCAAAQgcBwERhOgXpCVOMcUoLUnImZlu2wpFFXwmRVZFX4HE6D1yqYVss2V07pc3SuOIACBORPYeAMf/9uV+seDfF9FOLZvw5Xtuka4uhVRv+W2245vkXMI1AQ2zt+6KEcQgAAEIHCkBEYToGkFskXcVWIuir+8mihCygg+swrpheyNV0Bl1TK3q9/dvIzf4dStvSGY1VS7AhpXPOtVVeubPZa5ZIWjn1u+bFu+imJrpyFArW/eCOcQgMAsCfgb+HIlsvo/QfW/XfFiNJ4bkekIWFv2OBazK6L22NngFAJ9BPz87StLHgQgAAEIHCeBEQWoANXVRP1xn1q8qcjTH/3J4i+KvHobrBdrNxaglbjUdvOW29iu+rmot9p6kWe+q1l+Z7T80SUrHBtTy/WxzPermoahrsRWFXrbKI1yBgEIzIRA8wa+Ep3yA0SNHyEKIUTRWeWdme+DhhD8qmb5o0XNVdRYvmqnfRV1JhBxczQCzfk7mis0DAEIQAACIxEYWYCO1OsZNGuF9PXc9UL1elaoBQEITIsAN/DTGg+82Y0A83c3XpSGAAQgcIwEEKCTHdW0sqlbbXdzM9XNq8a7VaY0BCAwYQLcwE94cHBtIwHm70ZEFIAABCBw9AQQoEc/xHQQAhA4JgLcwB/TaJ5eX5i/pzfm9BgCEICAJ4AA9UQ4hwAEIDBhAtzAT3hwcG0jAebvRkQUgAAEIHD0BBCgRz/EdBACEDgmAtzAH9Nonl5fmL+nN+b0GAIQgIAngAD1RDiHAAQgMHECchPPCwZznAMT/2jhHgQgAAEIHIAAAvQAkGkCAhCAAAQgAAEIQAACEIAABEJAgDILIAABCEAAAhCAAAQgAAEIQOAgBBCgB8FMIxCAAAQgAAEIQAACEIAABCCAAGUOQAACEIAABCAAAQhAAAIQgMBBCCBAD4KZRiAAAQgMR+ALX/hCeO6553jBYDZz4POf/3yQecsfBCAAAQhAAAHKHIAABCAwIwJyE//973+fFwxmOQcQoTO62OAqBCAAgT0RQIDuCSxmIQABCOyDgKx8IkAR4HOdA7ISyh8EIAABCJw2AQToaY8/vYcABGZGAAGK+Jyr+BS/NwnQH/zw/4XPPf/dcOfuVVh/9tXwzJffCG/+4Ecz+5TiLgQgAAEI9BFAgPbRIQ8CEIDAxAggQBGgxyhAH37/L8MHf/d++PGf+1J427u+Ft75yy+Gf/r+F8Lb3vVy+PGf/b/hfU98Ndz/5psT+zTiDgQgAAEIXIcAAvQ61KgDAQhAYCQCCFAE6LEJ0KtvvxXe+d4vh7//S6+E//qZh+EPPv+t4vWpZ14P//gDL4e/83PPhs996ZsjffJoFgIQgAAEhiKAAB2KZLgMq8UqXA5m7xCGxOdFWN65ukZjqe7q3jWqUgUCELg2AQQoAvSYBKisfL7zvV8KP/Xhq/Dci9+NwtN/OESQvvDK98K7//PXwt/+2WfD1evf80U4hwAEIACBGREYXYBeXizCYrEM6wfTpnZ1ZxkWC/G1fk1XfIk43MxU2Bfi896q7t+FkdKSbs/zUM1RdGfnOYDALAkgQBGgxyRAf/3jX4srn3/03LfDn375u/kz+eL9h0Fe+ici9E++9J3wT371pfC+J14Ib731lmbxDgEIQAACMyMwsgBNAmZ9Z1kKoQlCjAK0EGFpBbBdmI3dgS0E6IN1WBYrtldhfa6i1QpLSe9e2RUuhYgdu+u0D4EjJ4AARYAeiwD9wQ//Mn6/8z/cuQr/45nXwu/d/Ub89L7y6sPw0f/1jfhSESpp//1/vxb+4ydfDj/2M18MX3/120f+Sad7EIAABI6XwLgCVFfWRAydr0OxETQKpHq1cWHz7UqdEVFJJK7ittK0UlkKp7TaWtk8X4fnZVXTisqGKKsHvilAJc8KPSvaQvBt5b4VvqvgK8tbQSd26pVWEYN6ntpeXdQrs1qvaNvwqXsTQrM/HQL03qpfYLaNnW2IYwhAYFACCFAE6LEI0M89/53w1//Ni+G//M8HUWx++k9fCyI0rQDVD4/krT7+Svi3TzwMb/uZl8Kn/vhlzeIdAhCAAARmRmBUAVqLKyt+hKCIKxVaIQQRbSpAvUhUERsqUWUEl9hXURYFl9qQFi5EnJaiUcpoeT+OTcEmJbwgrASv9Tf6tU7fDY2+16JT+iXisvTN2kzCtFuA1v0LBZckTvu2NdfsTU+NOE4cxJdSxJvS1WHJsJlPCgQgMCQBBCgC9FgEqPxXK2//d38R/v3HvhbFpQpMEZnv+e36x4ZEkGrej703hL/66Kvhtz75/JAfK2xBAAIQgMABCYwnQAvB5FbkJM+IxUKAGpGUv49ZlfUi0QrKVsEVhaiKuH7R5m2nMbJi0Qix2DdZaXXizYhlO8beN9tWmefbM2K2ENP9fZG2S7vWG3OcVz/FXr1ynFdzY1HTb1OVQwhAYD8EEKAI0GMRoPL/fP7d93wtLH/z64UAFbGpfyI+RZDK6yd+5UdBBOhfe/TV8JH/9mUtwjsEIAABCMyMwGgCNIosFTX5vRJsmwSoFacGuBVukiznuqLZKbi0rQ5xqOa97ZRuhV6bEFPhVgnFjja8b7atMu+QArTuTz/Hupyy4h0CENgfAQQoAvRYBOgzX34j/JV3vRwFqIpMEZ8iSPVP0//mYyHI62/9coj/N+gnP/MVLcI7BCAAAQjMjMBIAlSElF29S9RqsSWips6PgkxFZ7W6WGxLvZN+sdUKN7FohVNhI2/Brdvd9Eu83rZuE1aBm86TgJayhX/6vc3oe92vbbfg5jaKvpeMbPvp2LTTMimb/SkLSb62a4/rMarKq4Avq3MGAQjsiQACFAF6LAL0zR/8KP4I0U/+yo/CT74/vf7Rrz4M8vrYH74RfvvT6VjOf/rx1+IKqJT9G//6i+GFr9arpHv6qGEWAhCAAAT2RGAcAdolWuwKoRxXK6PL82X9HVABYfKkjBVK9keFrHCSaiKe1KYtV2zx7QAdBVteqU12apEZrdf/D2glFDvbynbqLbrWN+1PdMXaOl+FlYrZ4geQXPuV+E7t120UXYt2O/KK7bxqu30LrmdctMEJBCAwOAEEKAL0WASofDh+7Xf+PLz9l16OAlNE5k99+GH45x98I/4i7u9/7vXw07/xMKZJnryk7Hv+03Ph9ddfH/yzhUEIQAACEDgMgXEE6I59i+LP/lrtjvU3FW+s6m2qcCT50u9C7O7cL7bf7oyMChC4IQEEKAL0mAToGw9/GP7hL34h/MsPvxh+8aOvhHf91sPwr37zW/lT8otPPYxpkidl3v7uy/B/nn+J/wc0E+IAAhCAwPwITFaA2hXBxo/5DMlZVlN1e++QdmdhSwTkdUVoqluuAs+i0zgJgVkTQIAiQI9JgMqH8eVvPIwi9F/8+vPh1z52P/z6x78ePvi7r8SXHEua5P2Dd38+/MmzXwlvvvnmrD/DOA8BCEDg1AlMVoCe+sDQfwhAAAJtBBCgCNBjE6Ayz69e/1543xMvhL/385fhn73/i2H5Gy/Elxz/xKOXcdutrHwiPtuuCqRBAAIQmBcBBOi8xgtvIQCBEyeAAEWAHqMAlY/1W2+9Fb7+6rfDp/745fj/fMp/tSK/dis/OCTf+ZR8/iAAAQhAYP4EEKDzH0N6AAEInBCBL3zhC2HOAgTfT1tAy/zlDwIQgAAETpsAAvS0x5/eQwACMyQgN/Gf//znecFgVnMA8TnDiw0uQwACENgDAQToHqBiEgIQgAAEIAABCEAAAhCAAASaBBCgTSakQAACEIAABCAAAQhAAAIQgMAeCCBA9wAVkxCAAAQgAAEIQAACEIAABCDQJIAAbTIhBQIQgAAEIAABCEAAAhCAAAT2QAABugeomIQABCCwLwJ/9AefCrymyeC5e0+HoV/7mkfYhQAEIAABCIxFAAE6FnnahQAEIHANAiI+3/jWN3hNkIGIz29+45XBXmKPPwhAAAIQgMCxEUCAHtuI0h8IQOCoCSBApyu+RTB+4/5fDPZCgB71R5nOQQACEDhZAgjQkx16Og4BCMyRAAIUATrHeYvPEIAABCAAASWAAFUSvEMAAhCYAQERoA+/8y1eE2TACugMPkC4CAEIQAACoxNAgI4+BDgAAQhAYHsCCNDpim8RoK+89JXBXmzB3f5zQUkIHIrAD374/8Lnnv9uuHPDm2wPAAAgAElEQVT3Kqw/+2p45stvhDd/8KNDNU87EDgKAgjQoxhGOgEBCJwKARGgb37vO7wmyGBbAXp2draVSEWAnsqnmn7OgcDD7/9l+ODv3g8//nNfCm9719fCO3/5xfBP3/9CeNu7Xg4//rP/N7zvia+G+998cw5dwUcIjE4AATr6EOAABCAAge0JIECnK763EaAiPvW1abUUAbr952LuJe/fvx8ef/zx8Oijj258STkpz9/hCFx9+63wzvd+Ofz9X3ol/NfPPAx/8PlvFa9PPfN6+McfeDn8nZ97NnzuS988nGO0BIGZEpiwAL0Mq8UqXM4KrPi8CMs7V9fwOtVd3btGVapAAAInQ0AE6A/efMhrggxEML784pc7Xyo87XtfeQToyXyso/i8e/fuVh2WciJC+TsMAVn5fOd7vxR+6sNX4bkXvxuFp29ZBOkLr3wvvPs/fy387Z99Nly9/j1fhHMIQMAQGE2AXt1ZhsViUbymK75EHC7D+oEh13J4eeHE571V3b8LI6Ul3Z5nW3MU3dl5DiAAgQMQEAH6wx+8yWuCDDYJ0D6x2ZaHAD3AB2oiTcjK5y5/u5bfxTZlSwK//vGvxZXPP3ru2+FPv/zdnPni/YdBXvonIvRPvvSd8E9+9aXwvideCG+99ZZm8Q4BCDgC4wrQQoSlFcB2Yea8PvjpFgL0wTosixXbq7A+V9FqhaWkd6/sijC/3grqwaHQIAQgMAIBBOh0xbcIxj////5ssBcCdIQP2EhN7ioody0/Urdm3+wPfviX8fud/+HOVfgfz7wWfu/uN2KfXnn1Yfjo//pGfKkIlbT//r9fC//xky+HH/uZL4avv/rt2fefDkBgXwQmJECli1boWdEWgqwu5hXT83XIm1ztKqNZpbTlraCT9HqlVcSgnqe2Vxf1yqzWs7YWhcishyWu6BaCukOA3lv1C0wRsrZ/dRMcQQACEAgI0GkL0K8+/8Uw1AsBejof+F0F5a7l903SPjy3x/tud9/2P/f8d8Jf/zcvhv/yPx9EsfnpP30tiNC0AlR9kLzVx18J//aJh+FtP/NS+NQfv6xZvEMAAo7AxASoF4TVSqGITCPKru6s03dD46qjrjKGEO6toriMYjCXtzaTkO0WoGYLbbGiaYWxI1idlsK2SjTiOIlZ8aV79TPVKoV3e2ukQgACp0pABCh/0yQggnEo8Sl2EKDTHOd9eLWroGwvL/cP5mH9Qh+w78Pj0uZoorO4Vyt9GuJM/quVt/+7vwj//mNfi+JSBaaIzPf8dv1jQyJINe/H3hvCX3301fBbn3x+CBewAYGjJDAPARovMHJRdeKt47uUXgxGQVqtTpZ5Vpx6kWmFoM9rzoXSbjM/puTVTxMkslDWOrZdTeMdAhCAQCKAAJ3uTBDB+MKfXQ72QoBOd6yH9qxdUHa30iyf7it051aqeRlWjXuMbps3yTlWASr/z+fffc/XwvI3v14IUBGb+ifiUwSpvH7iV34URID+tUdfDR/5b1/WIrxDAAKOwMQEqBV6bUIsXWAXutV2VgK07o+9UDeFa13OjRWnEIAABOIWXDBMkwACdJrjMgevmoKy32tf3j5ob6+ZHrjrV5nyTrBqJ9nyXFdOZVeZ3muVD/5TGyuzylovCtj7Gn+8OF+Gpa7MiiA2u8PK3/0ofcxiulrlXJmvYiX/y/Jpp5xLMwsX3v/V77f9dke5avzMl98If+VdL0cBqiJTxKcIUv3T9L/5WAjy+lu/HOL/DfrJz3xFi/AOAQg4AhMSoOmCly848fug6eImF418sQzp4hLPqwtn/nXaLbfg5jaqldVkW9o323lN++V3Ux3B6jRd2Mwv3bpi/oKsPjQEqPh0oCeWzkVOIQCBGRBgBXS6gyQC9Mtf/NxgL1ZApzvWQ3vmBeUm+7683EvofUVbXcmvxZ6533H3UfFeJos2c78VQijzqt/mqHaXdd3jxDr5nqYSh/p7GbHtWsSWfZCy1T1Zca+Wvm6Vv5blbPi+x/aNj34nXXEPJrayr8nSmz/4UfwRop/8lR+Fn3x/ev2jX30Y5PWxP3wj/Pan07Gc//Tjr8UVUCn7N/71F8MLX61XSb1fnEPg1AmMK0D1iVj1XotMGRa5QFYXpurio0/u6otodSHKdsoLmZYvLsrW1vkqrNyPEGUxa9vPF97yaWAxeXovgqYvsZKcV08b3cXOXsQL+5xAAAIQCIEV0AnPAgTohAdn4q55QbnJXV++FG++thFzVVYu7+5drGCTormc3gepeJRMWcms7mHsvYs/ru/ZSkFbPtyvxKneG9n7QudjkHO9d/J56pe1YwWo9V/LVrZsXyVL/37td/48vP2XXo4CU0TmT334YfjnH3wj/iLu73/u9fDTv/EwpkmevKTse/7Tc+H1119XE7xDAAKOwGgC1PlxFKddF6/tO+eF6vY1KQkBCJwGAVZApzvOmwTo2dlZ8K++FVNWQKc71kN75gXlJvu+vBeOZf35CNByIaLqhReZfQI0lq13s1ku9rjmo2y677/eePjD8A9/8QvhX374xfCLH30lvOu3HoZ/9ZvfyiZ+8amHMU3ypMzb330Z/s/zL/H/gGZCHECgSQAB2mRyg5S0slmsuG5tLdVtvfhubYOCEIDAsRNAgE53hEUw/t9n/6T3ZQXoprII0OmO9dCePf744+Hu3btbmZVyUr78a7v/qH+ESB6Q1yuRUtZub613j3mRZh+sl3lpxVLvdySv67huN9Wp73OMH9Vqq66oxr7dW4e4K21nAVr3x/a79N/Qq76Tqv6bnHz48jceRhH6L379+fBrH7sffv3jXw8f/N1X4kuOJU3y/sG7Px/+5NmvhDfffDPX5QACEGgSQIA2mZACAQhAYLIEEKCTHZr436ZsEpWSLyJ0m3II0OmO9dCe3b9/P4pKWdnc9BLxKeWbf0mE6teP8g82xoJJ/GleFoFO3HmR1hCgLVtbxfwQAjRUv/GhPubvazofiy24KlzFL7OVVm0sz5dZePu+1fxKIVynl0dXr38vvO+JF8Lf+/nL8M/e/8Ww/I0X4kuOf+LRy7jtVlY+EZ8lN84g0EYAAdpGhTQIQAACEyWAAJ3owIQQBaiIxiFf0+0tnp0agW4BN3MSHf+jQluv3nrrrfD1V78dPvXHL8f/51P+qxX5tVv5wSH5zqfk8wcBCGwmgADdzIgSEIAABCZDAAE6maFoODKk8FRbjUZIgMBIBI5TgG63+jkScpqFwNESQIAe7dDSMQhA4BgJIECnO6oqGod8n25v8QwCEIAABCBwPQII0OtxoxYEIACBUQggQEfBvlWjQwpPtbVVwxSCAAQgAAEIzIgAAnRGg4WrEIAABBCg050DKhqHfJ9ub/EMAhCAAAQgcD0CCNDrcaMWBCAAgVEIIEBHwb5Vo0MKT7W1VcMUggAEIAABCMyIAAJ0RoOFqxCAAAQgAAEIQAACEIAABOZMAAE659HDdwhAAAIQgAAEIAABCEAAAjMigACd0WDhKgQgAAEIQAACEIAABCAAgTkTQIDOefTwHQIQgAAEIAABCEAAAhCAwIwIIEBnNFi4CgEIQAACEIAABCAAAQhAYM4EEKBzHj18hwAEIAABCEAAAhCAAAQgMCMCCNAZDRauQgACEIAABCAAAQhAAAIQmDMBBOicRw/fIQCBkydw//798Pjjj4dHH31040vKSXn+IAABCEAAAhCAwFgEEKBjkaddCEAAAgMQEFF59+7drSxJOSnPHwQgAAEIQAACEBiLwHEJ0AfrsDxfh6uxaF6n3XursMg+X4bVYhUur2OHOhCAwEkSkJXPXf52Lb+LbcpCAAIQgAAEIACBTQRGF6CXF4uwWCzD+sEmV7fIv5YAFdEnPtSv5Z0DSthCgG7Rx12LCBPTt6FYp3GrmS0ukM27Dg3lITAEgV0F5a7lh/ARGxCAAAQgAAEIQEAJjCxA04rf+s4yDCL6ri1ArQAWn+y5otrT+0EEqFlVlfYGWGUVAVqP2VVYn9vzPbHCLAQg0CCwq6DctXyjQRIgAAEIQAACEIDADQiMK0BFDMnKWUM4JhG4uljmlcksduKK3iqs4sppWoFb3asIGDulQAohdAo9LziTmMo2Qwh2tS/7UaXX5cp6sf2LVb36mLfZhtRfuyqZ85IgT2uJPQyku5GDWYHMNtxsqHjV65Omv4WNWnRf3VmGxcUqrwzXfaxte76pzmXibPrmeeWV5uxv4pbTzUqq5V6vsN6Ayw36W/ecIwhMi8CugnLX8tPqLd5AAAIQgAAEIDB3AqMKUBEYSdyICKkFUAgiMsyKWhQOVX4lIrIosit6kqfCxh43xKIdNiPIJDnar1cMo7BSm6EpMrMfLXn1dzttvdS3XK8QxpKnbbcxKPPabdi+NfsThXhso6XfVT9jn7Mfzl51WgrQ1D8rNlMx00bRzxCu7qzjd12zcFW7d9J3eBvpea5cl4vxRdoy82Ob/lbu8QaByRHYVVDuWn5yHcYhCEAAAhCAAARmTWA8Adom9PLqlxMLVty5ekmsGnHaJhYbdeyYJUGTV+Cc8KpFcqpjhVGZZ0VmWjW1giyXNcInWiyEmfhiRaYX5VVerw3bNxWgZqVU7UcmNl2Ok33bR2ctn0p/ambmYUE1VnWeGZu4Mqr9q0zFBwgL80NMKd3bF3uJp58bhlkflxv2N3ecAwhMjMCugnLX8hPrLu5AAAIQgAAEIDBzAqMJ0LTqVIoYFUCFqIyAjbiLQsKKGCNI2gTIxWWQtqwYLMfM1Pcrry0rp1acZVHpfazq2TZz2TYfs2g2Yir6MpQAtbyq3jc41lRsH+vU8kj6Y/unuVE4dj5IkFLSRxl32zcrlJOvXfabc8Mw62N7w/5q/3iHwNQI7Coody0/tf7iDwQgAAEIQAAC8yYwkgAVQekESCH2rCisvr9ZrNzVgiqKJRVwXoDk1bi6fHO4XFuVQNLtrYV9uxLrRWYUOLqluGcF1AnL0r4RU65cEl7aj9Ln0obrYafwEhuliLzs2P7qLMbTLoFYpMe20ziLj8o0GI6XF3Ye1P2KfdIxlxYfrMM6fte3LpP8kvNtuNysv20MSIPAFAjsKih3LT+FPuIDBCAAAQhAAALHQ2AcAdoQihVQ2Y4ZV8+SWGhs45RildCr81R8VHkqRiuTUcjkFbm2gfOCpm5DV/jiql71wzqaFi1ZX85XYXW+jQBVQZ1Wf5fnS7P9tFtMlQK0z4brY/TRMLLZ1n/pX8VpM7OmwM5mrc3zZVjqSqdNN22l76TWK+GWr+Ver5j68bLMNnDp8GGb/ub+cQCBiRHYVVDuWn5i3cUdCEAAAhCAAARmTmAcAboRmhcZpkIUER2CyhRLh+0rrY1iM09AQLUPIFzauZB6XAQef/zxcPfu3a06JeWkPH8QgAAEIAABCEBgLAJHLUCPWYCUq4PbCvKxptnh2oXL4VjT0jQI3L9/P4pKWdnc9BLxKeX5gwAEIAABCEAAAmMRmKgAHQsH7UIAAhCAAAQgAAEIQAACEIDAvgggQPdFFrsQgAAEIAABCEAAAhCAAAQgUBBAgBY4OIEABCAAAQhAAAIQgAAEIACBfRFAgO6LLHYhAAEIQAACEIAABCAAAQhAoCCAAC1wcAIBCEAAAhCAAAQgAAEIQAAC+yKAAN0XWexCAAIQgAAEIAABCEAAAhCAQEEAAVrg4AQCEIAABCAAAQhAAAIQgAAE9kUAAbovstiFAAQgAAEIQAACEIAABCAAgYIAArTAwQkEIAABCEAAAhCAAAQgAAEI7IsAAnRfZLELAQhAAAIQgAAEIAABCEAAAgUBBGiBgxMIQAAC8yJw//798Pjjj4dHH31040vKSXn+IAABCEAAAhCAwFgEEKBjkaddCEAAAgMQEFF59+7drSxJOSnPHwQgAAEIQAACEBiLAAJ0DPL3VmFxvg5Xh2hb2loswmKxDOsHl2G1WIXLQ7Rr2ri8WITVPZMw9cMH67DU8bHHU/cb/06SgKx87vK3a/ldbFMWAhCAAAQgAAEIbCIwkgC9CutzEUXpNStxsonoNvkHE6CJ82H5isgVsbsNiBmU6RGgV3eWYXFxaDnfwkx8vOGDhcn0paV7JPUT2FVQ7lq+v3VyIQABCEAAAhCAwG4ERhKg4uQY4mg3OHsrfTABOoYYHKPNvY1UCAjQPcLF9BAEdhWUu5YfwkdsQAACEIAABCAAASUwMQFaroymbaPiahI1q4tlXjVd3jEbWOMKkK6o1ltM06rOKqyKldayjcKOUonvZTm70iVbSnX1tk7fxcdF/xbcvG1W2qlXE227td/d7dryacuvlFU+rp5sOY0cl2GZV6d12672V+uGENlWXIWFrrIWbVZtSZrm64MH5VenO38Wi1D3sRiYdFIwqv2Stpbn9TyR8bG+1jbd+GYuoRSdXQK0mHPG1yK99qulB6FgpVt+qwczDT7R7iqszNxL7Fw/Kju2z3Z8oh8Fu2VYf1FWUHWMTV+s053tp0JFX/KqsBvT6JvzN5cNBY96nFL68mJV+5hZWQdP93hXQblr+dMlS88hAAEIQAACENgHgUkJ0HgTm29I081r2sopx+bGuLoZTpsfU14WMmZ1Md2ElyIgCpQsXuVmuBZ4FnCsm30J4fJO+s5mIz2Lq+v5aNuMx7Fvxqd7qyjeYrv5xjvdxKc+b2rX2IpCXnm4etK4a7vkZ9t0XjfGw7aZBISOz/XGuK+9EIKMeTVWTftm3pi54SwmkarjLf1R1vbYVfJzIT0oMWJ7U3vahjxiuUjj0vS/YhkZd9gu+Dsn5dTmx2MzPnZ+af9bTCQbrv1KtHsO0ofWuSn7Hty25eJzlXmUcy0y6chrc/XU0nYVlLuWPzWe9BcCEIAABCAAgf0SmJAA9WJQBJLeKNtjASLnlZCSG+p8c6p5qZ6/2fWrb41VJstaxIOsChW2y1UarZ9Wa3bwsUeYWDFl3alv6lNq3beedquV4/r7mIZbI88JlTaxIKuLWbyLrXrVbKHj0WK39t2PcbW6FW329cOSqARn0XY9TtJW6aPOoWb/ImtrRwWYnVP22LlRj0GV0Sjr+1QbqJnUaWl+Gn+jMK36I7Yz46ovOjd9XjTZMT4y97SfpulGX0xePGy0UfdN+qKfBX1v/0yYsVPfq3Y8D+tPOablAw3v5ime7yoody1/ikzpMwQgAAEIQAAC+yNwkgJUV+O2whpvvOUGu16hqgWOtVDfkKdUOe8QybMXoGmFKnMoxInnYAXDgALUCRgdiVKsOF+sn/G4FntW8BTf+5RyHW0VdcSBRlnXvjpZCcvmPOzhY333bfm8ahtv6/jsSYDmtkwfdet8/QDEZEafy8+V5WHZlmNq55Oxd8KHuwrKXcufMFq6DgEIQAACEIDAHghMSIDa1TBdrVKB4G/k5bwSd3HFTbf8VSsslWCwN7HKTm5mi1XNe+vWX2y9vNC2pWbdfrSZ205+ruN/MVKXSW15H2t70UaHqElbHeuyskonN+ZlnSQA0w379u0WK8emT8omta1cW7ZL5tVF276uamk9708pGCL/vAJny9pjZa42s4fpoBIvtWC5Cus71Ybs7KPaMCytULPHlSDMK4OSp+Njj50bzfklfWifi66qG09hlPraycf5W4hdn+d/4EtEp87ZWNYwsfMrj4v3Vj+P9XjY+RiP1b5UfbAO7Z8J6adp28xBa093Kuj4IkBbxsMk7Soody1vmuIQAhCAAAQgAAEI3JjASAI0CRjdrqc3mkkgVdv5zpdhuc0WXEEQb6p1G6C7SW7cVJdt5xtzjzLetKtNu60zCSr1vf6RoA0CytiLP5KjAse3K+emrPUvipNqy2i94tTX7i55yrGbXyEErI9xrFy96GdKk3r1GJf86/T/v72zf7bsKuv8/S9m/BPyy0B5UKwSGU1ZgPiLdAq1tMpfQCpm6BvSTRrSJN0kdNSxDJemAItRScXQkXISvT2UpUxNKI3a0dCmvRKSIgSNk046DS2dhMQkBmdNPWuvZ+1nPfvl7HPveT+fW3V7v6y1npfPWufc9e21zj59sbZAsv7N54OLGI3AiRacUCt4yoOLdKxIPe0fe94IQ2Kuxkjuj46x2Giqole3AKvvMQ8hyl/64uLKuWjclo/rn/bx1ZKLDbrIS3Ku+1uqZf8xHxWZvk/92O5+XWWeyba/rseNDXIzzycVlJPW30yqZA0BCEAAAhCAwKwILEiADkgnTnjLSe6AVlSBAARmQYDX4yyoTsXm5z73uXDu3LlBtqSe1OcHAhCAAAQgAAEILIrAcglQu2pjtzIuig5+IQCBigACdGlHwqVLl6KolJXNcb8iPqU+PxCAAAQgAAEIQGBRBJZLgC6KAn4hAAEIQAACEIAABCAAAQhAYOYEEKAzR4wDCEAAAhCAAAQgAAEIQAACEBACCFDGAQQgAAEIQAACEIAABCAAAQjMhQACdC6YcQIBCEAAAhCAAAQgAAEIQAACCFDGAAQgAAEIQAACEIAABCAAAQjMhQACdC6YcQIBCEAAAhCAAAQgAAEIQAACCFDGAAQgAAEIQAACEIAABCAAAQjMhQACdC6YcQIBCEAAAhCAAAQgAAEIQAACCFDGAAQgAAEIQAACEIAABCAAAQjMhQACdC6YcQIBCEAAAhCAAAQgAAEIQAACCFDGAAQgAAEIQAACEIAABCAAAQjMhQACdC6YcQIBCEAAAhCAAAQgAAEIQAACCFDGAAQgAAEIQAACEIAABCAAAQjMhQACdC6YcQIBCEAAAhCAAAQgAAEIQAACCFDGAAQgAAEIQAACEIAABCAAAQjMhQACdC6YcQIBCEAAAhCAAAQgAAEIQAACUxGgYoRfGDAGGAOMAcYAY4AxwBhgDDAGGAOMAcbAuDEwToZvjatAOQQgAAEIQAACEIAABCAAAQhAYBoEEKDToIgNCEAAAhCAAAQgAAEIQAACEBhLAAE6FhEVIAABCEAAAhCAAAQgAAEIQGAaBBCg06CIDQhAAAIQgAAEIAABCEAAAhAYSwABOhYRFSAAAQhAAAIQgAAEIAABCEBgGgQQoNOgiA0IQAACEIAABCAAAQhAAAIQGEsAAToWERUgAAEIQAACEIAABCAAAQhAYBoEEKDToIgNCEAAAhCAAAQgAAEIQAACEBhLAAE6FhEVIAABCEAAAhCAAAQgAAEIQGAaBBCg06CIDQhAAAIQgAAEIAABCEAAAhAYSwABOhYRFSAAAQhAAAIQgAAEIAABCEBgGgQQoNOgiA0IQAACEIAABCAAAQhAAAIQGEsAAToWERUgAAEIQAACEIAABCAAAQhAYBoE1kuAXt4N26NRGMnv4d1wZRqEsAEBCEAAAhCAAAQgAAEIQAACUyEwQwG6F3ZUDOrxAKJw73QlLLfPqqy8EnYPV/d2LggLvd4Ou5cTmws7UxGjTd9TYT/WSJvf5j3NexQqDmPNUgECEIAABCAAAQhAAAIQgMBCCMxGgOaVyJ2wl9PaCztTFaDZcDpRwWt9+jr7u26Kvv3ZmbRVm9+2e5PapT4EIAABCEAAAhCAAAQgAIFFEJiJAFWR1Lcip3XidtnRKOSVTRWvh3fDblz13A5f/OJ2tZKpK6mjapVTbexcqFcBC3vGlq6bahutNzotElnFa9q+a7bwXjnb7rteca3bdOarceT4zWqlrtJqWRLpbX7Hc5AhpLnshF0Te+Yra8XmfslhEUMQnxCAAAQgAAEIQAACEIDAphDoFaDnz58Pk/xW0FQMmq2wjmYlArXc1W+ItVJsWiGlYrISfiq81G4IQW0lUaf1rQ0XWrz09fx1LT51tVV967W12lOWxKfGo8JQr5t+Q+i7V3JIol4ZjFJsKni90I1CvIp7kj6n7mSvEXjBizHAGGAMMAYYA4wBxgBjYJPHwFgBaqXUsHMVXEYIFg21vF451FW4KKBUMLntusOFl/Fb2FK/ptzEpeJPY5FjpxBUu7pqmY9tttWv5lvX0Zysz3iexKCWaxwSbt+9UoCqGFb/1bVvn/M2AtRg4RQCEIAABCAAAQhAAAIQgMDUCMxAgNYiqRJEPlYVRLUQK2qouJunAO1YFVTh50VbXlnVVcUigbYLXeVVEVqJ24Zd17StvO/eJAJU+wYB6qBzCQEIQAACEIAABCAAAQjMjMBMBGi7QKsfQqQiqvr8ZZWbCKEoijoEqAolFYXSSu2UwssIW2dL61sbYkdtazx6rfX8db0Ft14lreIxvqu0Gv8WtlT4WiErMafVyKJustR2T/MqObSvgGp7n6teNwLmBgQgAAEIQAACEIAABCAAgSkRmI0AleBU/OXtqeV3c6posttP+wRoaa8SemqjFF5GBGoMZjVV22S/Uezpqmy9QinlKkDbfFsRmm2lhyMVfaMxWA52u2sWoca3lhdtU14t9zSnkkO7AJXYtH4d9yggQIte4wICEIAABCAAAQhAAAIQmAGB2QnQGQSLyekTUDFaidfp28ciBCAAAQhAAAIQgAAEIAABJYAAVRIbc2yu9uaV3o1hQKIQgAAEIAABCEAAAhCAwCIIIEAXQR2fEIAABCAAAQhAAAIQgAAENpAAAnQDO52UIQABCEAAAhCAAAQgAAEILIIAAnQR1PEJAQhAAAIQgAAEIAABCEBgAwkgQDew00kZAhCAAAQgAAEIQAACEIDAIgggQBdBHZ8QgAAEIAABCEAAAhCAAAQ2kAACdAM7nZQhAAEIQAACEIAABCAAAQgsggACdBHU8QkBCEAAAhCAAAQgAAEIQGADCSBAN7DTSRkCEIAABCAAAQhAAAIQgMAiCCBAF0EdnxCAAAQgAAEIQAACEIAABDaQAAJ0AzudlCEAAQhAAAIQgAAEIAABCCyCAAJ0EdTxCQEIQAACEIAABCAAAQhAYAMJIEA3sNNJGQIQgAAEIAABCEAAAhCAwCIIIEAXQR2fEIAABCAAAQhAAAIQgAAENpAAAnQDO52UIQABCEAAAhCAAAQgAAEILIIAApwOwoYAACAASURBVHQR1PEJAQhAAAIQgAAEIAABCEBgAwkgQDew00kZAhCAAAQgAAEIQAACEIDAIgggQBdBHZ8QgAAEIAABCEAAAhCAAAQ2kAACdAM7nZQhAAEIQAACEIAABCAAAQgsggACdBHU8QkBCEAAAhCAAAQgAAEIQGADCSBAN7DTSRkCEIAABCAAAQhAAAIQgMAiCCyFAH3iiSfCvffeG26//fZw7NixeJRruc8PBCAAAQhAAAIQgAAEIAABCKwHgYUL0AceeCDcdddd4ZFHHgkvvvhipCpHuZb7Us4PBCAAAQhAAAIQgAAEIAABCKw+gYUKUBGXZ86c6aUo5YjQXkQUQgACEIAABCAAAQhAAAIQWAkCCxOgsr1WVjiH/Eg9tuMOIUUdCEAAAhCAAAQgAAEIQAACy0tgYQJUPuMp22yH/Eg9qb+RPxd2wujwbrjSlvzl3bA92gl7bWUzvHfl7HbYPtsa0Qy9Ttm0sOviOhVXe2FnAX0zldAxAgEIQAACEIAABCAAgRkRWJgAlQcO6Wc+x+Um9aT++B+Z9I/CyP6enrc8a4tS4toOu5fbysbcW0IBOibifRXvnR7NV9QOFKBzj2tf9NoaHWDMtZnjHgQgAAEIQAACEIAABKZAYGECVJ52O8nP2PpxNXAUdi5Yq1fC7uF9Cj9r5sDnBxADCNAD0281gABtxcJNCEAAAhCAAAQgAAEIzJLAwgTotFdAB61UJZFarZDWwlS2lI5O75jV03Jbq9jOq6p5RbUSlTunt6sy2c4pYtGsvuo21aK92ZZZ3M92QwhFnKMxW3C3w/bhOr5KgDcFbzcfqWvyjb71WgR8bXuUYrRbcCdiN/L/QZCGtuOm/4nQxSfmcjhxF96n90KMI7FX7hXHnbBj+k9tx7K8BVcYmDz1fkdcobivrPzL1HKt+iOPlVH/am+Rd4ql0X8SQ2uc1bgubOT+Lfuz5GTHkdiwTLpy9DlzDQEIQAACEIAABCAAgX4CCxOg0/0MaDWxzuKiNedKBORtsGYFrBIv9STbTvYrgVVv45WyWuT1CQnrz55XwY2zm3OxQsPnFcViLaQrYVTlIfazwAjiv86vNOPKjABtxHi2+iyqtR3rGNsNdiqSQn8f2XYSX8N35h6C1FUxHGJuph8sr5iL9lcIlk8pQB0Rsx3Yx6WiNo8I8Wf/8yCbslzl3MRoGOfqemLjjxx2q8/4SpvMsmJQj0MzBi7vht24C0B8mvuhalOPCemPVB7jqeuWfdrfbxo2RwhAAAIQgAAEIAABCAwhsDABOt2n4PpJcjXhL1Y6kxixK5SjJJy82JFrnahHsWNXx7KQaE7wQxJZtQ+d1Dfrdtp1QiOKJiM8ik6NOVlhafyYMp9fYcOLU9Mur/Q5/5aPt23LJMcspCcUoJ18GkLK5CyJ2fjteUza1JUyk1fMw/Sz7X89jyZEIJp68dzYqdmKL+0b4zfHoWV1i3gWY5bVWF9uxniRV3Vf4qhZiyXvs65n449tCnvt4r9g4ELmEgIQgAAEIAABCEAAAkMJLEyASoDT/B5QESzNSbKZhLtJtgU0TkQ17UprYzsZi6Ipr4bZcnteVW6PNwkoK2jcipiNuxBbsaD0Iz52LojwUCFctE4X0saInTZO8V4tiqzIHMeuFkVGQLWE4Xn4a9ukLCtzLpg0cjF1pUw5R1FZM7D27XmMoa8/bJCFsDd+Yx3HvGinF1JHmJu+E99pu3HbmJRYRVxWZd5nD3/Hyfdpg4GGyBECEIAABCAAAQhAAAITElioAJVYRYTK93zKV63oU3HlKNdyX8oH/SSRVAseaWUn4dWE3k7c98yWUruNsiGwnEAbtMUxxqPiwcZRZRMn+QPsxnoqlDyINuFg6yYmNjdvomSUVr9SXHunNf6SZYNPFt1Ve2UcY89lFf+yf+povMjp5uO3kjq2lok91229ykfK9LwQlZVQ0xx8XJXAtauNV8Lu2bwht05onwJU8q4ZedFYXRero5JHZmxXLx2XtHKcPzcqkV7YrZ7M3MbJ2GwwMFlyCgEIQAACEIAABCAAgUkILFyASrCyHVc+EyoPJpKn3cpRruX+ZD+VyLFbDFVIRDtxol2tEsU6aZJdCqVSREk7mYDXNlWUNSf4Kk5i3cPbYdusXlWCSuyUK21Nu/pZxbSaJQ/bUaHkYfh8jO2qqhcw3kCqJQ9hSttKt0/v1N8tGlcG69yVpeRiz63AtWXlluTqITe1uHKxmFy0Tjv3SQVoHb9lH/sqc1VhJ3WrODU/26caV96arMxavxNVxof2tR8rtqybQ+wTIwSlph+rJWOJX32mujFGvWfzNHURoK4TuIQABCAAAQhAAAIQmBWBpRCgs0pu4+2KsMgia9E0vAibQzxOWM3B44xdiIDU/wCZsSvMQwACEIAABCAAAQhAYAYEEKAzgLocJoetfs40VrOqKat5eVVxpk6N8TUToM3VT5MrpxCAAAQgAAEIQAACEFgBAgjQFegkQoQABCAAAQhAAAIQgAAEILAOBBCg69CL5AABCEAAAhCAAAQgAAEIQGAFCCBAV6CTCBECEIAABCAAAQhAAAIQgMA6EECArkMvkgMEIAABCEAAAhCAAAQgAIEVIIAAXYFO6gpRvrKGXxgwBhgDjAHGAGNg9mOg628x9yEAAQhAYDICCNDJeC1NbZls8AMBCEAAAhCAwHwI8Hd3PpzxAgEIrD8BBOiK9jF/CFe04wgbAhCAAARWkgB/d1ey2wgaAhBYQgII0CXslCEh8YdwCCXqQAACEIAABKZDgL+70+GIFQhAAAII0BUdA71/CJ85Ew5tbYUt/X3vmXCpLc+HT9V1pO4d51ytc+HU1lY49bC73XbpfSbfh+5r81zZzfE1fFwKZ967FXLbDttbW4fCmWfagvH3KnvWnz2v/HTl2nVffLg4vVuuIQABCEBgbQj0/t1dmyxJBAIQgMDsCSBAhzC+vBu2D++GK6nulbPbYTQahdFoJ+y5siHmplGn8w9hEpVWNJ67YytsORF66b5DYWvrVLCSM9Yr7vWJL5dFFIlOECbhaGMJ6V4Wl2Kmcc8JuzbbIYS2vFxULZfOdq7RlWvXfWnYZSsb5QQCEIAABNaEQOff3TXJjzQgAAEIzIvAmgnQvbAThaGIw+p358LkKKPAPL3X0VB8bIfdyx3FE93ev632P4RdgsiJqA5B1xRUrl1fbq02fTzVdXOlNYQoiLNIdu1abatwdaK3L8ZY5mzn+l25dt3PDTmBAAQgAIEVI3Dy5Mlw9erVRtRy7+Mf/3jjvtxo/7vbWpWbEIAABCDQQ2CNBGglPrfP6jqlZL0XdszKZQ+HoqhXgMqKp6x8Fi32ezFlAdol1Fx4pdgrC8uyCcRXm29/z1+Xrs2VE4ld7bruG0vNU2c7V+jKteu+NPS2qut6e69dYXZlZrtzXMm940zcdly1te1UaOuWaiu4K5un7khbqY3NnBYnEIAABCBQEBDxKe+1b37zmwsRKuJT7kmZ1PE/CFBPhGsIQAAC+yOwNgK0VzRGNlfC7uF6ZTQL1SQod06nst/4TNg2q6ixXt5mW9oYySppLksdcGEnr76OdKW0uDcK6ntPfep23r44Xf+2/iGM22+deHHt5LISPHbzralU2OgTX6aNnEYxqCKpPhbbbwvbrn1x6YRdh9CcxRbcWjzWOci9Io8caxlnFO9ZBI4vU5sxD+OjzMv1QcGw8uG3V+fwOIEABCAAgQYBEZpvetObChFqxaeUybX/af276ytxDQEIQAACYwmsjQAVMafCri3rslyEZNpGGwXoKNitug0xa0VmrG9WQBtlZnvuhZ3CbhWXXfW056m0yMPE6ZJq/UNYiBPXwFzOToDa1TlxWImn/HnPRnxJQOnDkvJDhUrx1iVu/WdYTYo9p852rumE3tj7UqHLlpSVuUdxmvPLxuNJKThVzCeWwixvTa59VuK1z3/pgysIQAACEKgJeBGqK59d4lNatv7drU1yBgEIQAACAwlsiAB1K5f286FeUIYQ9i1AZaWz9bOj3r+KVC9Afb3uz7G2/iHsWCn0Y6HcZluWlmVdoqxsE686fBf2Ouo02zth1WhXiruWaHpuOdu5ZleuXfelobMVBbaunB4Kh+yTfKV2fPBTXa5P8G3+h4D4rARo2Ubb6hOCnf+cCycQgAAEIDCOgBWhstOlT3yKrda/u+OcUA4BCEAAAg0CayNAG6KxSLUSdnaVMxfPQYDGrbZZmFrRac8lop44c8DVSfsfwi5B4u43BJ0ad/XSKp5uFdVarccOm4UATYKt7SFE1SqnrqC6ONpsx3tdW2NbI0w3ne1ctUtodt2XhtaWPfdl2Uk+saue9jxWsPk2VkCzCeff3uccAhCAAASGEFAROk58iq32v7tDvFAHAhCAAAQsgbURoPGBQyO/Dbd+CFEUgfaBRBd2qyfZTlOARlu6uhlCSFtwi+2/RR0vQEPojNP2Wt8fwrQKZ0VjtYpWfja07V4UQtP8Gha3DTWmkIRj3pYbb1Yir/5eTyfmrCAzHNpyMMUdp852rtUlNLvuS0NrqzrP4jr1g+bpVzlj7OnzohV3Fd/+62Wc/0J4W/85EU4gAAEIQGACAiJC5XfcDwJ0HCHKIQABCAwjsEYCVBIWQVc/aCg/BCiy8Ntb0+c4WwSotVM+hChUDx2yT8GV9oWwtQ8hsj5SXIe3w7Y+nEi3+/Y8hCh+12hLX/b+IUwiJT9Qp/gMoTFWbBndClk85SpO/OT7LSfep36uMz+Ux7ZJYk3ryLGo54RVhwDVz1mWn5G0ftrOne1cpStXf1+uVSw6W5bnHefcw558zvV/CFTi9FQ4lXnUZTE8x1ZFbSmAcyKcQAACEIDADAj0/t2dgT9MQgACEFhXAmsmQNe1m5p58YewyWT+d5wA3WcAfnV0n2ZoBgEIQAACMyTA390ZwsU0BCCwUQQQoCva3fwhXIaOqwSo3e68n6gQoPuhRhsIQAAC8yXA39358sYbBCCwvgQQoCvat/P+Q1h9TrF+Cmve3ivbRru2+M6R7dzjy9ti3XbZfeSMAN0HNJpAAAIQmDOBef/dnXN6uIMABCAwNwII0Lmhnq4j/hBOlyfWIAABCEAAAn0E+LvbR4cyCEAAAsMJIECHs1q6mvLHkF8YMAYYA4wBxgBjYPZjYOkmAQQEAQhAYEUJIEBXtOMIGwIQgAAEIAABCEAAAhCAwKoRQICuWo8RLwQgAAEIQAACEIAABCAAgRUlgABd0Y4jbAhAAAIQgAAEIAABCEAAAqtGAAG6aj1GvBCAAAQgAAEIQAACEIAABFaUAAJ0RTuOsCEAAQhAAAIQgAAEIAABCKwaAQToqvUY8UIAAhCAAAQgAAEIQAACEFhRAgjQFe04woYABCAAAQhAAAIQgAAEILBqBBCgq9ZjxAsBCEAAAhCAAAQgAAEIQGBFCSBAV7TjNjHs1//9/4VHv/VyOHvuStj9m++G80++FF59/QebiIKcIQABCEAAAhCAAAQgsJIEEKAr2W2bFfQrr/1H+PSfXApvv/mb4S1Hng3v+cTT4Zd/86nwliMXw9s//ES484v/HC7966ubBYVsIQABCEAAAhCAAAQgsIIEEKAr2GmbFPKVF98I77n9yfAzH38ufOmhV8Jf/MPV4vcr518Iv/DfL4Zrb/7H8Og3/3WT0JArBCAAAQhAAAIQgAAEVo7AQgXoE088Ee69995w++23h2PHjsWjXMt9fiAgK5/vuf2b4f2fuRIee/rlKDw9FRGkTz33b+GWu58NP/XhfwxXXvg3X4VrCEAAAhCAAAQgAAEIQGBJCCxMgD7wwAPhrrvuCo888kh48cUXIw45yrXcl3J+NpvAJx94Nq58/vVjL4a/f/LlDOPpS68E+dUfEaFf++b3wy/91jPhzi8+Fd544w0t4ggBCEAAAhCAAAQgAAEILBGBhQhQEZdnzpzpxSDliNBeRGtd+Pq//0f8fOenzl4Jf37+e+FPz30n5vvcd18J9/6f78RfFaFy788e+V74nS9fDG+76Rvh+e9W/6Gx1oBIDgIQgAAEIAABCEAAAitIYO4CVLbXygrnkB+px3bcIaTWr86j3/p++LGjT4d7/vflKDYf/PvvBRGaVoBq1lK288Bz4fgXXwlvuemZ8JW/vahFHCEAAQhAAAIQgAAEIACBJSIwdwEqn/GUbbZDfqSe1N/Inws7YXR4N1xpS/7ybtge7YS9trJJ7omP0SiMRtth9/IkDWdfV75q5d0n/2/47fufjeJSBaaIzFv/oH7YkAhSLXvb7SH86LHvhi98+VuzDxAPEIAABCAAAQhAAAIQgMDEBOYuQOWBQ/qZz3HRSj2pP/5nL+xEISViKv2ePrA8G+92bA2Ja5/ibuYC9ErYPTwKOxfGJjFhhQPkbDzJ93z+9K3Phu3PP18IUBGb+iPiUwSp/L7jN34QRIC+9dh3w+//rye1CkcIQAACEIAABCAAAQhAYIkIzF2AytNuJ/kZWz+uBnohJeJqn8JvkuDG1j2AGJu5AD1AbL15T8fu+SdfCj9y5GIUoCoyRXyKINUfvf8Td4Qgvz/5iRC/G/TLD/2TVuEIAQhAAAIQgAAEIAABCCwRgbkL0GmvgO6dHoXts60bVWvMSaT67aZXzm6H0ekds3pabmsV280V1Upg7Zzerspkm2zeylrV13iK9mbLbHHfrtQWcY7GbMHdDtuH6/iqlcym+OviU8QgOaRtvTuac4rL1tO8QnAMRnUf2PqjsTk7O2bL8auv/yA+hOhdv/GD8K7frH5//rdeCfJ7/1+9FP7gwepcrj/wue/FFVCp++Mf+kZ46p/rVdJ6EHAGAQhAAAIQgAAEIAABCCyawNwF6HQ/AzpkG6kTZSK0ktCJAtSJJBVZlTitt/GKsKpFXi24mh1o/dnzquY4u3lL7NgVULPCGwVwJZ7FvuZQCcVSVNfxutiS+M3+Qwgx1iwKLWtpaxgk8VrRcnbVjhHaQ1ne9T//Jbz74xejwBSR+f7PvBLe9+mX4hNxv/roC+EDn30l3pMy+ZW6t/7uY+GFF16o0+QMAhCAAAQgAAEIQAACEFgaAnMXoNN9Cq4VRcK0EkbFSmcSVnklM35GtBZrIyOMrHgrV/LsymZTYIVQxVH7UHHYrNtp1wjjODrGClArLI0fIwa92C1HnWkjBaad1quFYnWntufaRu4ajy8LoTPntJLa9QCkl1759/BzJ74ePviZp8OJe58LR77wSrjx81c1vHDivlfiPSmTOu++ZS88/q1n+B7QTIgTCEAAAhCAAAQgAAEILBeBuQtQSX+a3wMq4qZe8VO4RgS1CCutVQuq6o4XoE27Us/YToaiwMpC1pbb86pye7xJAObVxhDCfgWoRBhXa0UUqxBOgRYHF1sLp8pO3ajm5doOEKBDWdbeqrOL33klitBf/eS3wl33XwqffOD58Ok/eS7+yrnck7KfveUfwtf+8Z/Cq6++6k1wDQEIQAACEIAABCAAAQgsCYGFCFDJXUSofM+nfNWKPhVXjnIt96V80E8UTro9VltYgSTnpUjdO1t9vUktqKp2VoDGMrM9V1YId+MTY63tql0hKmM8KvyadYfajfWsINXU5OjEYqNuYmJXd23zFHX5hF5nU+qUdu1qs89LrrtXQIfm3IyxunPlhX8Ld37xqfDOj+6FX/nNb4Ttzz4Vf+X8Hcf24rZbWflEfHYR5D4EIAABCEAAAhCAAASWg8DCBKikL9tx5TOh8mAiedqtHOVa7k/2IwKofiCPbIUtVtxUkGmdtFoZhVFeuawEl20nwnLIttpKEKa6h7fDtvnqlUp8SZkKNL8lVcVqWvVMMW4f3h7zECIbW2274mbFYhdJJyJbBKi0tAxqNq5tsQKahKvZ6uzt1N876u10xRrittrnv/ti+MrfXozf8ylftSJPu5UHDslnPt94443uxpRAAAIQgAAEIAABCEAAAktBYKECdCkIrGMQIia7Vk/XMV9yggAEIAABCEAAAhCAAARWggACdCW6aZIgh6x+TmKPuhCAAAQgAAEIQAACEIAABKZDAAE6HY5YgQAEIAABCEAAAhCAAAQgAIExBBCgYwBRDAEIQAACEIAABCAAAQhAAALTIYAAnQ5HrEAAAhCAAAQgAAEIQAACEIDAGAII0DGAKIYABCAAAQhAAAIQgAAEIACB6RBAgE6HI1YgAAEIQAACEIAABCAAAQhAYAwBBOgYQBRDAAIQgAAEIAABCEAAAhCAwHQIIECnwxErEIAABCAAAQhAAAIQgAAEIDCGAAJ0DCCKIQABCEAAAhCAAAQgAAEIQGA6BBCg0+GIFQhAAAIQgAAEIAABCEAAAhAYQwABOgYQxRCAAAQgAAEIQAACEIAABCAwHQII0OlwxAoEIAABCEAAAhCAAAQgAAEIjCGAAB0DiGIIQAACEIAABCAAAQhAAAIQmA4BBOh0OGIFAhCAAAQgAAEIQAACEIAABMYQQICOAUQxBCAAAQhAAAIQgAAEIAABCEyHAAJ0OhyxAgEIQAACEIAABCAAAQhAAAJjCIwVoOfPnw/8woAxwBhgDDAGGAOMAcYAY4AxwBhgDDAGDjoGegXoGPFKMQQgAAEIQAACEIAABCAAAQhAYDABBOhgVFSEAAQgAAEIQAACEIAABCAAgYMQQIAehB5tIQABCEAAAhCAAAQgAAEIQGAwAQToYFRUhAAEIAABCEAAAhCAAAQgAIGDEECAHoQebSEAAQhAAAIQgAAEIAABCEBgMAEE6GBUVIQABCAAAQhAAAIQgAAEIACBgxBAgB6EHm0hAAEIQAACEIAABCAAAQhAYDABBOhgVFSEAAQgAAEIQAACEIAABCAAgYMQQIAehB5tIQABCEAAAhCAAAQgAAEIQGAwAQToYFRUhAAEIAABCEAAAhCAAAQgAIGDEECAHoQebSEAAQhAAAIQgAAEIAABCEBgMAEE6GBUVIQABCAAAQhAAAIQgAAEIACBgxBAgB6EHm0hAAEIQAACEIAABCAAAQhAYDABBOhgVGtU8fJu2B6NwujwbrgSQrhydjuMRtth9/ICc7ywE0YmpgVGgmsIQAACEIAABCAAAQhAYEYEZihA98KOCAr7mwTPgXJR8TTaCXsHMtTdeO90Fff2WZFnbT8tuQ0VT3OIvy3i4p7GMBUB2sJiP/2MAC26iAsIQAACEIAABCAAAQisI4HZCFAVOIVI3As7+xEmnnqrbV/pYNfDBeg+RPAc4h+bvcag/RHF37Ry2Wc/I0DHdhsVIAABCEAAAhCAAAQgsOoEZiJAVcDtXOjGo3V0hbSuqytqO2E3bg21q5FaZlZWT++FYATVbly9rLaTeh+NbaYqevIq7U54yPisYmvbmqpxtIg2jSVvab0Sdg+neE//cXNVWOKXHx+LisNQ+1IewqraNjsK22d3jc06Hi1XvnLMjDXG7MP1k5ZnLqatqap8s11TpqdaR+Mo6vqc/SqyLzfxNvOrc1ffHCEAAQhAAAIQgAAEIACB5SLQK0DPnz8fJvmtUlPB1SbcqhoqSiox4uur4BJxdaUWl7qamsWRERz5ngrTFt8qZlTE+GvTLxrfpFtwc32NR3wlP40yzUf8ujoqrqo2NQ8r4rTOKNnpjVnjUZ96rSxM7sEI3v4tzr7fCiPxQmNq7WeNQWPy/dHHROuqeG+6nmjcTjLGqTvZewK84MUYYAwwBhgDjAHGAGNgs8ZAy9S8uDVWgBa1B12oYGoRgbF9s1zFVCm4VGBq/XTthYvY1HteUOl9s5KnD95RcZSFocmtr6yq5mIybfOpiiS/qpdj0vxCUH8qMPMxCqx2XyUzuyKqn1vVdirK5egYel4xeN9ueD/m3As7dXsbs56PVEQqrxRTLxOtq/3amkcZDVcQgAAEIAABCEAAAhCAwGwJyH82jPuZgQCtBVWx3TJHogKnFmAqRqYrQNVPEkAq/JzAWSYB2hZL14pkycwLUF2d1K2zymKIAJWOqturGG6LTUXifvrZx6+rwEP+gyAOJe1PFaF5y3MeaJxAAAIQgAAEIAABCEAAAnMksDABmlckdcUtJl0/nKYULip2dKXMiaXGllBf3rECmgVKh+jSVbSW1bOGOGp0WksMto76ltW95KcWcC1tNRbLS2zsewVUfXQw1fhacrdpyHkvC7Vj45b+ciK/dQuu5qwxdF1b25mJjdKPH1vGOQQgAAEIQAACEIAABCAwLwKLE6CSYRYnZguoio1Qr5LqClu9iqbiSVdI/bVrKyJNfRn7EoIKXfURj7aOip68iubEaryvIs52m8ZkcpO6YltjyStyKpBGQbebFnH5Lag5Fq2vvpRHFYcXhl3XRe4q5jRGy0LT07JGHFrBHdvqG7tFrvZBSEbcFjGatirei/LTe1kU2/v1+HHxcQkBCEAAAhCAAAQgAAEIzIXAYgXoXFLECQQgAAEIQAACEIAABCAAAQgsAwEE6DL0AjFAAAIQgAAEIAABCEAAAhDYAAII0A3oZFKEAAQgAAEIQAACEIAABCCwDAQQoMvQC8QAAQhAAAIQgAAEIAABCEBgAwggQDegk0kRAhCAAAQgAAEIQAACEIDAMhBAgC5DLxADBCAAAQhAAAIQgAAEIACBDSCAAN2ATiZFCEAAAhCAAAQgAAEIQAACy0AAAboMvUAMEIAABCAAAQhAAAIQgAAENoAAAnQDOpkUIQABCEAAAhCAAAQgAAEILAMBBOgy9AIxQAACEIAABCAAAQhAAAIQ2AACCNAN6GRShAAEIACBJSHw2skQ+IUBY2D5x8CSvGUQBgTWkQACdB17lZwgAAEIQGA5CSA8ll940Ef0kYwBfiAAgZkRQIDODC2GIQABCEAAAo4A4gZxwxhYjTHgXrpcQgAC0yOAAJ0eSyxBAAIQgAAE+gkgPlZDfNBP9FP/K5lSCEDgAAQQoAeAR1MIQAACEIDARAQQNggbxsBqjIGJXthUhgAEJiGAAJ2EFnUh6CyGpAAAIABJREFUAAEIQAACByGA+FgN8UE/0U8HeZ3TFgIQ6CWAAO3FQyEEIAABCEBgigQQNggbxsBqjIEpvuwxBQEIlAQQoCUPriAAAQhAAAKzI4D4WA3xQT/RT7N7F8AyBDaeAAJ044cAACAAAQhAYG4EEDYIG8bAaoyBub0p4AgCm0cAAbp5fU7GEIAABCCwKALzFB/P/GLY/uEfCqMbfjFcmadffK2GwKKf+vtpUe8R+IXABhBAgG5AJ5MiBCAAAQgsCYEBk/4r9781jEQ4/vBbw+4zJ/Mkee8uuSe/7wx7A+wEJ0Cz3buub9jcvv9Yvhec7dwu+q5i2Pm7Oi5ff6Wvldk+c9U+qnkeC7s3rDkzN15Wuv9tLkvylkEYEFhHAgjQdexVcoIABCAAgeUkYCe4HedW8NVC5vqwk0XR9AToOLHQFFQng8S3lgL0795ZCfwWgT403zZe4xhTvqT/mbGc7yBEBYG1IIAAXYtuJAkIQAACEFgJAh2i04oQFaDbd70zbOtqp4ijG95abanVe6+pKFVB6q51NU+24Kq4yiL2h6KIzL7aVkBt+9a4nT8fj2m/G1dvqxVdFWk796ctwir4fIx563DtZzevDv9QqMX5yZBXe3N+bw27F5pbkLPvxgqurlSWq8613cQ456R9IaubVRtlWa1S1/ebPtVXtTKq7eMYyPZ/MVTM/OqpstC2jkNrPy2pwFv2WFfiDYUgIbCaBBCgq9lvRA0BCEAAAqtIYMCkW4XM9v3Xx+2bO39XCZYs2PYjQF+rVi6jOFLBZ+4VYk5jVEFo6luhHLzg9NcqpqwofOZkUEGWhZrYT740jpqBbA2uRVcsz3adKMxcasFV+VJRqXZUsNf1ah++TNskG963MkpiWXPTPISX3qtWUVV8dsSU7Vf/QaBcqs/x+rY2fs7LsTkFHqv4/kLMEFgRAgjQFekowoQABCAAgTUgoOKu52jFVzyPK5/vDHtZnKhIUnHUca31kzhSuyMjKPWeFUw6kdcyW1/LquNk/rVtKcgqoaD3sihV0Rpj7ffTG6cVtva8wd/7UAGj950AbVmdlc/lah6Wp96LAlT7xIjl1nK1r/XjtQrQevVz6NZgZc9R+3XAcQ3ebkgBAstKAAG6rD1DXBCAAAQgsH4EGsKnORFWQVWs9okQUzGSxYuKo9kI0OxPxVAj9sn8q/gpBFeyqfescNP6zdXJ0q/yahfKqe4NuqVVVx49dxV3rtwz1+vMpIylLQ+9VwjQ3L4Wra3lDX91/SzWzX8o1Mx8flxPzGb93n3ICAJLQwABujRdQSAQgAAEILD2BBoirikMVFA1xJiKkYYAVdFUiqGGgNTtokawdPrqEYbSplp5U38D/TubxeqdxpZzS5/rHLACmvO0bQ1nzdFvP24IEo2hRRzmvtA+0DraJjFVX7m+WRWt8vVCVxmm/0Tw9v21yStvzzX92cjJ1ue880nPrdzW/s2IBCGwOAII0MWxxzMEIAABCGwagQEioE3ExAmyihEjtLRuXg2LW1c7xIz5LKXUF0Gk7a1g8pNxXcGzPlQ8antblr8mRuNVsZZyV3tqI/tTMafbb+U4RICKXfWV26ootmXmXlc/NOykz2Jq/Zby4ntWi/LKXzNfFaG6ldbEpe2VWXGtYlXb8R2veexo/0zzuGnvTeQLgTkSQIDOETauIAABCEBgwwlMc4KMrWErWipsVdQdhFshCJur1zMVRAeJm7bDxorltOFvVaQPgVkSQIDOki62IQABCEAAApaAneByPrkomJhZvdrYWHGd2JZZTZ2GmN2Pf9rMYcyk/1iwr1vOIQCBqRJAgE4VJ8YgAAEIQAACPQQQEPMTELCG9UHGQM/LmCIIQOBgBBCgB+NHawhAAAIQgMBwAgeZENMWQcUYmN8YGP6qpiYEIDAhAQTohMCoDgEIQAACENg3AQTE/AQErGF9kDGw7xc5DSEAgXEEEKDjCFEOAQhAAAIQmBaBg0yIaYugYgzMbwxM6zWPHQhAoEEAAdpAwg0IQAACEIDAjAggIOYnIGAN64OMgRm9BWAWAhAIAQHKKIAABCAAAQjMi8DACfGxoz8e+IUBY6AcA3P9mpt5vSfgBwIbSAABuoGdTsoQgAAEILAgAgMEqIiOuU60B8REPHzn5zKMgXGvjde/fzI8+o3j4exfHgu7f3FzOP/YLeHVl07s7/W0oLcI3EJgEwggQDehl8kRAhCAAASWg8AAsTdukr0MQoAYEKSLGANdr41XXjwRPv1HR8Pbj3wwvOXGI+E9Jz8UfvnUdjx/+03/Ldx5943h0nMfm0yILsc7BlFAYC0JIEDXsltJCgIQgAAElpIAAnQyETCA1yKEED4XI8DbBOiV79wW3nPb4fAztx4NX3rwePiLRz5S/H7l3EfDL9x5JFx75NfCo18/Nnz8LeUbCEFBYD0IIEDXox+nksXWdZ8P/G4Og6kMGoxAAAKTERggqNom2ZfuuSZsbV0TznzbTfwfujZsXXcoXEp2z53YCltbbb9VWyk/dM/RYhJetbk2nLOxfftQONTmz9Ypzt8XThV+nb3XToaYg4lVRVz7/aPhzHU2D5d7jM+W23NbN8V14n11zkPaCtetjhxMnp5lSLYb91+TOGxcrh8LlpTp2PBH/9qQlc/33PbB8P5PHQuPPVmJT99GBOlTT38s3PK7R8JP3fRr4crlgSuhk72yqQ0BCExAAAE6Aax1r4r43BzxKX3NDwQgsAACA4SGn2TLhLoSoFthywopsdUmQH0d47Mp9kToXRMOXbcVTj1UC59mvbrMT/BbRVcUcMNsNn1VorEQcZ3C7mSo/HeIO4njxLXhVIuYjHlEuy1tWwRoFOqFgE4i2d7L4taLVwRoY9yYcTm0zL82PvmlI3Hl868f/Wj4+8eO5/9kePpfjgf5VbsiQr/29VvCL/36TeHOu7fDGy/flsu0TuO4gLcHXEJgUwggQDelpwfkiQBFgA4YJlSBAAQOQmDApNtPsmViXIm0a8KhrVLUTSpAK7FmxJEIpusOhXP3XFOsjLatlDYm6DGXJMJaRK8Xlv5a7fn7Uei12Iu5tgnJLhH5WhXbqYeqYyFotR+62noB6q+1fVzZNH2S7ImgL/+zAAGq/a3Hk7f+13D1+Y80hKDc+/itP9m4L+3sa+P1758I8vnOT91/LPz5uY+EP/3Lm2Ob5549Hu79s5vjr4pQufdnf/2R8Dt/fCS8bfuG8PyzH221r7HF40Fe57SFAAR6CSBAe/FsViECFAG6WSOebCGwAAJZuHSvKNpJtk6IVaSJUCy2hoowMitwneIt+3VCSNqL2EtCtNrKq8KtO0aNq3f10Yk7zUG3C6uN8n61+mlXY7Ve8GJPc3J+cv14vxLbpQ+TV1dbJzj7uBZlau8h2cJshClbcAvBJ+JTtoq/+U3/uRChIj7lnpRJndyXqa/ta+PRb9wSfuxDHwr3/OmHo9h88OGPBBGaVoBqeynb+dLRcPzu4+Et2zeFr/zVkYZtrZuPC3h7wCUENoUAAnRTenpAnghQBOiAYUIVCEDgIARUNPUc7SRbJ8O1gHKreW0C1HxGMX8e1KwoimDS1UA5r8SeFaZyblZJe2LtFaBOMNY5GAGYV3fT51hVwPnPusYYXO4aV0eb6C/nbfMz/jvalqutHX6T/yIvY6+4jwAtBJ8IzTf9l/9UiFArPqVMrnX869G+NuSrVt59603ht//wSBSXKjBFZN76hfphQyJItextt50MP3r05vCFPz7csK0+8vEgr3PaQgACvQQQoL14NqtwvAB9IjwuSC4+Mf5hRV+9GkK4Gn6v9cFGD4cHXw7h6tcfbrGTfLShf/nZcLTV3hIIx7ufDVfD6+HBu7tjOfr114us2vPvbl/2T8Xp8a8Ord+sVwTDBQQgMB8CKpp6jnaSrZPhQswYkTPxFlwVfFGYibCqP/+YxaiuivbEqHEtrwAtc5N4rfAeG3+xAro/ARrSFuBK7HcI4CGM17SOF6G68tklPqXP7GtDvufzp285ErY/++FCgIrY1P4V8SmCVH7f8YkTQQToW4/eHH7/AQTofN7w8AKBdgII0HYuG3m3FDhNwbIlovLi1fB4p7A0bQ4oQPcrrKLIW4RQHSNAf++iDCkryCsBuX8RigDdyBcpSa8+gQFiwk6ydSJdCNAkpuLW27YV0LzqZ1b6rF8RsLJtV49aloSn+NIVUvXfebRiWO3o0ZcVoq6OrcxNhJquytZ1Kv8dZd6P+I++7JNx9dyt7La1ze3ruiJey8901rEVZd5ejENEPgK0bQxZESqr9X3iU9rb18b5x24JP3JjJUBVZIr4FEGqvvT+T5w4GeT3J0+ejN8N+uUHb8x1tG7juPrvNmQAgaUlgABd2q6Zf2D9ArRatXz8q32rlwjQ1hXQLnHaK9INy9ZVXwTo/F8heITAFAioOOs52km2TopLkSbiJ4mxE5N+BlTbXhvOJcGpPvRzoGdO1Kuiuawz3mp10Iqzc6l9I+YOAVoIOBXXbSK6o33bKmzraqcyM0/7bWsbc/a+/HXm4USxF6A5H3kS7yRca4E7vg9Wu66K0HHiUzjY18arL1UPIXrXJ06Ed52qfn/+148H+b3/q7eEP/jz6lyuP/Dpj8QVUKn744dvCE99s14l7eQ7hZc7JiAAgXYCCNB2Lht5t1eARhFVreB1rTJWq3wVuscvui24sX3C+vLV8PiYLbh9K6CN1cQo5F4PDz4pPtVHvV3XxlVsH5Z2KZYQt88mcX3xaqgt2VXLz4fClt1y2yUyr/t86OLVxruw77c6xzxTfnElOoSaUyVINf36freQ1bocIQCBORLIwqVbNNhJtk6OG2JO7ERRtDXhQ4gqvyIST8mvFWNxy6h8JUu98qf+e49RdNWfK61EXbXiWNqvxJoVq1q3rV6xCut9WI4N0de92ujF7mABqkLSPPBJt9jah0C120t5I0A7Vx1FhMpv7zhzAlTq3nXfh8K7bz0SBaaIzPd/6nh43ydviU/E/erffjR84PTxeE/K5Ffq3vo7N4QXLvMU3Dm+6+EKAg0CCNAGks290SaI9F4UUVkQidhxn3csVvMqIVdvOXWrpklItW8/LYWU7Q0rqqJQi/GUK4Fe7JXX7XHUdtvjzqI1ClYnbJVJjwCtY+0Wg8K5jLXKq2bUkmdQAery6olF+1OO/EAAAgsgYIVTx/lgAZo+Y2gFUBRYbQ8hcttao6BtEUQNgdYRY1MoqMjSra71sU1c5ocjubhqu2llNefSs3roBGirWNc8omg3tlzb7L9jxbPiVudWiGTx0WGvi3f2p/Fx7BWh/rXx0vduCz/3sV8LH/zUh8KJu4+GI//jeLjxs7WQPXHP8XhPyqTOu49dHx7/xk18D+gC3vpwCQFLAAFqaWz4uRUn5bkInFJwiqiqxVFaGVQxJltGrSBtCCInmIotpqXQKuOwAq6qF7vM+C1FXOWnFpgpLv2MqI0xxtCMq1s8VnWzOG3kWMfabaOus3Vd03eRSyNWwyn6bq7U2v5p47jhw530IbAYAgMEhp9kr7ZIORrOPTRgu+MALqvNoXvFm7yGs2l7bVy8eDyK0F/9rcPhrj88Gj75pQ+HT//R0fgr53JPyn722PXha+dvDK++8LFekZv7YzHvEHiFwEYQQIBuRDcPS7JNpMR7Ufy02VDR0xRPW1YUNcRTJVjbBZIRVoUwtWKtOo8CrXiwT/sqYjPyFHcjrmYehXiMOam118PVl80TgXsEaCEkO3Nq5m3b2fOqn6pYo7ju6h8jzNv6VjPhCAEIzJHAAKHVNsnOk+IB7ak7XNDAarVYdb02rlz+WLjz7u3wzpuvD79y6oawfXo7/sr5O45eH7fdysrnYPEprzN+IACBmRFAgM4M7eoZbhMpcs+vdlb1SsFUCDURWVbcNcRZU+jVvku79X0nQJPNQgQ2trEakdYm/GyMsbwZl83LniuXISuglRgvV5BjXgWXpu9CdDZiNZyiHf3PAMepLe90b/VGKBFDYA0IDBCQXZPsRYilvi29duvvImLD52qJx2n0V99r442XbwvPP/vR8JW/OhK/51O+akWedisPHJLPfEr5RDGswdsNKUBgWQkgQJe1ZxYQV7vYE6HTIp6SMM0CLAqkul4Ua3l1shJXuW4UTOUW3tq3EVad4smKtbJ+IdoagjRtFd7nFtyYk7ZNOZQ51fnX+VSCsOQh9xyTRqxVXvUqsbuOvDs+A3qdq9vBcQFDDJcQgMCKCdCJJuwDcsPe5onGafZ5nwCdpp9oi3crCEBgZgQQoDNDu3qGvWiSay/oijpOdMa6Ke2r8UmydlWuEkVV8dXwuPsMaW3X1vMMxV4SbioERVzZOFQYZvGbRGc2ZWKK7cx1y+cwi1XPbDuE8PKz4fe+/no8HpUYYlm3AM0scxztArwSqqmS30Jb+K+eJFx/vtVx821bRKgJhVMIQGBeBAaKNJlo8wsDxkA5BqYuMvtej/N6T8APBDaQAAJ0Azu9K+VaBA7fxkmb1WXVNQ64DwEIzJBA34SXssm2SMILXrMcAzN8G8A0BDadAAJ000eAyR8xubpicj99Z7qeUwhAYF4EZjlhxjaCjDEwvTEwr/cE/EBgAwkgQDew07tS3o+Ioc3qitauccB9CEBghgQQCNMTCLCE5SzHwAzfBjANgU0ngADd9BFg8kdMrq6Y3E/fma7nFAIQmBeBWU6YsY0gYwxMbwzM6z0BPxDYQAII0A3s9K6U9yNiaLO6orVrHHAfAhCYIQEEwvQEAixhOcsxMMO3AUxDYNMJIEA3fQSY/BGTqysm99N3pus5hQAE5kVglhNmbCPIGAPTGwPzek/ADwQ2kAACdAM7vSvl/YgY2qyuaO0aB9yHAARmSGDZBcI914Rw4n3Tm8QPyvd9IWxdE8K3l+Q7Mr99KITrDs2YwdEQrtsKYWtrAbyXhHPf2JBxeM/RGffBGA7TeBt45kwIW6emYQkbfQTuOxTCHef6alC2ZAQQoEvWIYQDAQhAAAJrTKBv0q1lDRGYxMo8hGHD95hJusZ8oOOSCdAD5TKQ10PXzkHkDoxlXL4ntuYvBuchQMflNY23of0K0KGCSurJf2Lk30MhPCOBn3PC91II790K4b5LdVbSVq/vsDa2ajFn7avA03vaVizKPS2PHsS/s/lw7XrqZw3/3kPK38b03jNVpYdPlbHHPlOOUkXaputYZvMy9ZRLw0cL+2izpT8abX0e63ONAF2fviQTCEAAAhBYBwLFZKpt8jLDJAvfM/RTmJbJqpnIFWVrerEQzvtkKeLEio19mpmomfCZtc955DVLASrxq4hSuFlMpfcNFX0Sh4ioLBJdecHCvef4sRqvT5UCt6iTxGfRf+easWrM0zgW/r3BtnhCCJKz8PF9JLaElWWnq9i+rvDWsrExmPc4X1eu1Y6GL/c0Br23RkcE6Bp1JqlAAAIQgMAaELCTk2JimHKLkx79X3i7vS9NHPV/0XUCqJMmsaVlXRMb8S2TL61nJ0WFXydKrG07KS7a9MTaKUCTOL3DxKR5xVUemVSnMvVrY8kT7jThtLlJWZz4JS5qN07W0+qIPRf8ko/6iVyFl3KVCWaa7EZ+Nl8zLmM7bZMmwRLzHTKZlftpolrUM7Z8H0k8lrPN2bitTjvGiPjXvKSiXlu7EpuOmz7GNo9H0hZUW19txP4zHKx/yVH7w+dQxJRYSX2bd2SXmBUcUw6FjYF5DRk7Ptbo244R48vnKIwkZx9vGwebn/ep19a+5Huf3Q4s49SMKfVt2ypPz1avrX29J+3tudrrO0r9/H5j+GiOrWMnvRZtO43X+xobj7wmjDiU95P7zKqosFPbGlP2kd6fZNV5nB+xI2O8z0a223Pix24eH+69Ul9PRX3T5z0u5lGEAJ0HZXxAAAIQgAAEhhLQiYyfFEp7P3mxk6OivplUxTZmYhcnJB0TEfGtExfxJzZ18lXEbyZeYs+2kYmu/IyLNds1tgofciFlRuxGmzpZdGVSXdmpHYlfBU+Ri2trcxAfmo89F5u+nopF9Z0n9UnoqW+NR49tcarPWCfFp+2t36KPkh9l6ZmrPz12jREp1zLry95XG22xa5xiw+YR4zF94G2rTe9HfOSJta0kXLT/0xiLvuW+GdO5ve8H+U+HtA1V81Xz4/JSxn5M9uUU8zfxSl2NM8eYArDx+Fg0Rj32+dQ6duyKqBKRpEdbJvWtb7891MeSrw3zfM/b0mAGHiOv1I/xvGPsxDLD1fr3rorcfGG6lvZxXOhKrR7Te4qOGRufNPX9aQWxnNvXgtSXWOz4lXveZgpp2MG+HuTcvFe22ZZ48zge5mFWtRCgsyKLXQhAAAIQgMB+CMhkKE5e5Ggm1WIrTnjMqlGe5KSJtlzbX5mcNyY4dtLiAvQTuWKi632kCWC0L34nidVMHnUlM352zcXTKLOCoiWPOMFzDHTyWExEXVvLSM514mjPlb8tszl7doU/l9e4ut6v5VC0tTzEh8urcOv7L3FS8ajCw+Yk7X0egxm3jD2fl+Rix6v2ldzX864cctypQo7TMdB4vb1c37S3sci5tinqOvuSk2emMTfKTFufo/VR9LEaM8fidZlEksaeBYb4ktek9Ht6bapPPapJZaQ2NG8p97HYa7Vj79k81H7vUeK0r9kUq2dnx44XUta/91XE414DOobUnviI/KSevEfpMRmNMbXEKsV9MWhMyln9yn2fp9btPLocsqA1Y0vbSl4F2xZRrHXnfESAzhk47iAAAQhAAAK9BOxExk80/XU2lCYldmKjZY0JTstEReta33LP+pPJUzG5tSJSKutEMt23bdV+PLpJXa9o8rHaPH1Zi1iyfouJqGtrGcm5FZl6LrZsTraNlHl2hT8byIC6NobY1MRb+LE8pKKp51xWQsSsKHWV5wltquDz8NfWji/zjGxewtIKN9tWcrQiyPrQc6kvk2utp7bFbh6nWjkxl/paZv1JNX9tmpZljrHP0bZrlJm2Pkfrv+hjazCdN+ym+75dtKmiKokdyV/u2/cK69u78zaLa8lHtveaLdD23NtqXKfxa/tQx4TPUa71tej7uM9na1nb6ybloVyk3cMpP43bx6T35djqx1TQmBs2zJgw1TtPpa90DBev9xY74lOZdRpcTAECdDHc8QoBCEAAAhBoJ+AnMvY6Tl7s5PFSCPelrx+QiYmdbDwsnzdq+R92sWfr2SisL10R08mhnaTGOJLQlDY6adM2cj0uVrVrbdlY4rmbVMmESieoxeQrNZRYcnmKQWOz8fu2MQaz8qJ87H1xYRn7soLdGEEztq7kbfrZTiSLtm0Taf8fAwaqjV9u6xjR3KRPrC97X80MZqxjIHGV9sJM2RZ+nBARHzo+1K+2z5Pvlkm/5FcIaLOVUtpbn8V4UIHqYp107NhYNV47HiUvzb/ox9TfmnNR5o2ma9+Xctu3i/4sy+THxiTtPAvrss2m7wMr7ONry/zHQLTl+iHbd+NX+kdj868vO3Z8mcRvY8r25cSxjWXOb3zfkr4xr50Yi7Pr/Vo/npMtizGYseXryrXmre3kno4/vSdH21cxHo1Z8tTz1CCWm/cRyVP/XlibCzhHgC4AOi4hAAEIQAACnQT85EQq2smmToxk0ie/OmlV8af3dUKjkxB/vy2AOBEyW8zspM7aiQ9kSZMde1982DadsepEWESzTL7cxCnHZurF+G29lgmXssq5mvp24jZUgHp78oAdFRAx755JZeEvJ1Sd+D5uq1tw7fLjJ9IdTLL7VD/zSXbt+NKcizzTmNAJsdTPNroYjxGgxXiVyb8Zy8Inj+scfNpOan0bLlJNxpvGrc26YrV8J8rLMfbjQP3K0fqIvGy8dmzLqq3JX0WTtGnlkJz416u+5jWG6N/0j9z3fa332vxY+/q69mNXY9Xy6NvmJv3lYtD45GjfI+J7QWLkucq17Vsbm7Qr/FsHcu7HvXufkipiz9rXvCwXH5N1Y+PR10a0l1hYOxqPvefbd+UTY0ivgeK9041Ljc3yHTeetM0cjgjQOUDGBQQgAAEIQGBhBPomTQsLaqjjjknV0ObU2ywCIq5UTG5W5mQLgZUigABdqe4iWAhAAAIQgMCEBBCgEwKj+koSaFv9XMlECBoC608AAbr+fUyGEIAABCAAAQhAAAIQgAAEloIAAnQpuoEgIAABCEAAAhCAAAQgAAEIrD8BBOj69zEZQgACEIAABNLTIO1DUGYERbb8Fg/zmNCPPIzDPpxjwuZjq/dt1VzUduVZ5zwWytAK/qFHQ9vNqN6Qsbb0bM0DcuTBMwuNd0z/8hnbGQ3kzTOLAN28PidjCEAAAhDYSALyQJ91EaAHeDjRMgrQlRmPYwTK2DwO0G9jba9ohb7xOPeUDtq/HQGLcNUnw+pR/pNJxLZ/Mqvcy0+ANeI8tut5mm6Ha24vJwEE6HL2C1FBAAIQgAAEpkwAARqB9k34F7UCOuWenp25gwoUBGijbwrB1Sid842D9m9HuCJA23Y1xNzNd39K84LHOSNGO75mp8Mlt5ebAAJ0ufuH6CAAAQhAYNMI5EmZrhq4VUu7mqArBSKq9Nx/x2We/BkBWkzy9PsKnR/L3frU7bViQ1cz5Khff+G3RUpsuV5awZC2dkKaY0wTUC0r2ppJrI3Hrura+5mH5qc85btHz9js6vMoQNN3UmrMMa8W4WRjri00tzoXotat6GiMlkfsG8vM9YvN0XIvYkjf9yjfW6p52JzFRi5LfWJZ27pit8un3Nd+1+829NfqX3It7Li8NP4iNttXqQ/uSONOYpx0rE2LreZqc5P4Y1/rODP56Riw+Qunon5iacfCftkXDFP/Fr7cSqKNa9yY0v4tfNh+0o40R6mrr2lzO4tNm3Pso3O2Vn0efXaU1bU4WwECCNAV6CRChAAEIACBDSIgEzAvqnTy5idnMiHLE9k04VUhEduI4NHJphGgUaSaCbKdAHrUUmYFiQhJyI6DAAAHQklEQVQX/6MTbLkv51o/3lf/aQVD4vX+7ATVl2VfVgTa81RB2qmgk1vKRr9QXifOwkfjy7bTSVu82hdFXJalN+LKLBsf431JCFvbcq4+NQ/b/zn2MatVkr+vq3aKMhVCpp9snHLu7SjLzFgCdfFIWe6PSyHcIbm29JvHV8SWbMa4pa0TMpOOtWmybc3NCHI7zuIY6CizrIWFXGs/HYR97jMx6rhbbn0+2vrG9n324fq+rZ2K9XhM7yE5d/OayfeMEbnn+94Uc7p6BBCgq9dnRAwBCEAAAutMwE/A5FonpDI5LyZyOiGXCWASELJC9LCKwHNGPJhJnvATW3lib8SHZyv1dNJZlCVBkONJk0o7uZVJeJ6om8Y2pyIWNwFXUZN9aJxuQq02cr3ESfKz8Ug9KwxMSPE0CgUrsI0fW+b7qLDjONt24ltizBP31NDy8LZtWdEXAyb9Om7EjbWb+z759/1kY+7z2VlmxmODjfZhUVBf+Nhy3KYvtLbEqSx9DlrH8su2UqEt68xFDemxIzcbS6xq4rU8pczW3W9MffF6htG/f+9I47zPjqasR1vX+7BlWl+Pvq7et7lrX9h7Wk+PUqb9rfc4riQBBOhKdhtBQwACEIDA2hLwEzCdmEnCXRM5KZN6D6vgTJPk+6wAbBFGMpnrmrgr4NaJZRI/KnDsBNtOrrts25x8XrZMfGcBayb0fkXH29DY5WjjkWuJqWsSa/OINqxPXVXtECDZZwtnu6KpMUWxbFaClKXkn3N2grzoi9QHrf850DJWrF0/jnw/WQ59PjvLuhg5npmZOfGx5bhb2tq+9TmoSTuesq1UaMs6c1FDeuzIzcYSq5p4LU8ps3X3G1NfvJ6h96+pyLHPjq3n63ofhR3X0NfV4iL39Lop7mnFdOzLw1XlcrkJIECXu3+IDgIQgAAENo2An4DJtRUnVszIhEwFiEzARdQUde3qZZrgWZ4yMdwasyIl/q1gi1twnfiJvltWQOOE0diXehJvkaPE5eLWHOzEtbBlJveaj9hsZePq+ny0vRz9BNfXjeVWFNvGet7iT+OS1elnWuqJH81ZzrsEaFGWuGn/q1k9WnZ+G3JRpnmb2Kwfe95nR9loPOIj5zHhFlxlUfhzXCVP8aljM/o3OdixpvaKXJy4L8oGsG3NzbzexH8Rm1lZt3EXfieIyfZhG3vNOY6HlI+9Z7d/51wG5G3719qTeLRMx6Aebax6T45tuct7gcYjDK0Pqa9MdXeELbe2OV9qAgjQpe4egoMABCAAgY0j0DYps5MsmczF1TMvHt0E3U/I42TeTIIFrJ0k94G2Pu3kUOOQ7b8qsuzkWn1oPa2jwiLel1XaDgGqE2upF30YgSGctL3GbuO0wlry1BjETp7EasN0tP687VjFCW/XPF/m2GQyLb4TdxuH2Nd+lfr2XBmLQVumk+4Ym+QxZtKvOVtfYtPy1qBtbAWflHObT8vrvSK4bDy2ncs12nJjUeMo+tC0i2PG9L/UHzLWLD85nwbboh9MjJaH9rnG6a+V8X5jsr48+7b+tfWFf+Zg+2nAmFKR6X3ItZZpX+rR19X7Pnd9X8ixJUEcx4u839kxk+LW143a5LgSBBCgK9FNBAkBCEAAAhCYAYG+SeMM3K28SS94FpqQ+w8HH0vXpN/XW7brpYh7DNuFMFvGmBYCAqdrQAABugadSAoQgAAEIACBiQkMXf2c2PC6NkgrLl2rPPNI269i9a3+LIWQ2weURcU9Cdt9pLWvJssY074SoREESgII0JIHVxCAAAQgAAEIQAACEIAABCAwIwII0BmBxSwEIAABCEAAAhCAAAQgAAEIlAQQoCUPriAAAQhAAAIQgAAEIAABCEBgRgQQoDMCi1kIQAACEIAABCAAAQhAAAIQKAkgQEseXEEAAhCAAAQgAAEIQAACEIDAjAggQGcEFrMQgAAEIAABCEAAAhCAAAQgUBJAgJY8uIIABCAAAQhAAAIQgAAEIACBGRFAgM4ILGYhAAEIQAACEIAABCAAAQhAoCSAAC15cAUBCEAAAhCAAAQgAAEIQAACMyKAAJ0RWMxCAAIQgAAEIAABCEAAAhCAQEkAAVry4AoCEIAABCAAAQhAAAIQgAAEZkQAATojsJiFAAQgAAEIQAACEIAABCAAgZIAArTkwRUEIAABCEAAAhCAAAQgAAEIzIgAAnRGYDELAQhAAAIQgAAEIAABCEAAAiUBBGjJgysIQAACEIAABCAAAQhAAAIQmBEBBOiMwGIWAhCAAAQgAAEIQAACEIAABEoCCNCSB1cQgAAEIAABCEAAAhCAAAQgMCMCCNAZgcUsBCAAAQhAAAIQgAAEIAABCJQEEKAlD64gAAEIQAACEIAABCAAAQhAYEYEEKAzAotZCEAAAhCAAAQgAAEIQAACECgJIEBLHlxBAAIQgAAEIAABCEAAAhCAwIwIIEBnBBazEIAABCAAAQhAAAIQgAAEIFASGCJA/z8Bsge4j2uuVwAAAABJRU5ErkJggg==;" vertex="1" parent="1">
          <mxGeometry x="-1360" y="390" width="839.62" height="570" as="geometry" />
        </mxCell>
      </root>
    </mxGraphModel>
  </diagram>
</mxfile>
